<?xml version="1.0" encoding="utf-8"?><svg xmlns="http://www.w3.org/2000/svg" xmlns:xlink="http://www.w3.org/1999/xlink"><symbol viewBox="0 0 102 32" id="brand_bi" xmlns="http://www.w3.org/2000/svg">
    <path d="M33.3677 22.5554C33.3677 20.3688 35.2788 19.1803 37.5639 19.1803C38.9638 19.1803 40.2397 19.5435 41.2367 20.188V22.3558C40.2004 21.5646 39.0663 21.0199 37.6083 21.0199C36.3533 21.0199 35.4155 21.5037 35.4155 22.512C35.4155 23.4242 36.0046 23.7881 37.0408 24.1546L39.0474 24.8818C40.9914 25.5872 41.8841 26.6826 41.8841 28.4825C41.8841 30.7479 39.9544 31.9989 37.4218 31.9989C35.7588 31.9989 34.3434 31.5183 33.4727 30.9118V28.7024C34.6049 29.6134 35.9651 30.1395 37.4218 30.1395C38.8412 30.1395 39.8378 29.6352 39.8378 28.5208C39.8378 27.5504 39.203 27.1694 38.0899 26.7435L36.2894 26.0966C34.6292 25.4882 33.3677 24.599 33.3677 22.5554ZM47.3551 31.8092V19.3919H49.4671V31.8092H47.3551ZM9.28644 31.8088V19.3919H11.4009V31.8088H9.28644ZM55.6425 19.3918H60.413C64.0851 19.3918 66.4592 21.818 66.4592 25.597C66.4592 29.381 64.0851 31.8086 60.413 31.8086H55.6425V19.3918ZM57.7509 21.2518V29.9299H60.3339C62.9462 29.9299 64.3433 28.2493 64.3433 25.597C64.3433 22.9259 62.9462 21.2518 60.3339 21.2518H57.7509ZM70.922 19.3917H78.4667V21.2513H72.9889V24.2393H77.9019V26.0779H72.9889V29.9298H78.4667V31.8086H70.922V19.3917ZM84.777 19.3918H89.2877C91.8599 19.3918 93.5232 20.6831 93.5232 23.1142C93.5232 25.1929 92.6002 26.3868 90.6324 26.6925L95.1083 31.8084H92.7134L88.3801 26.7707H86.8817V31.8084H84.777V19.3918ZM86.8817 21.2133V25.0147H89.2473C90.6479 25.0147 91.4376 24.265 91.4376 23.1142C91.4376 21.9626 90.6479 21.2133 89.2473 21.2133H86.8817ZM29.433 3.44037C29.433 1.22082 31.3535 0.00834125 33.6624 0.00834125C35.0721 0.00834125 36.3594 0.378484 37.3604 1.03614V3.23471C36.3183 2.43291 35.1746 1.87887 33.7036 1.87887C32.4367 1.87887 31.4966 2.37165 31.4966 3.39945C31.4966 4.32402 32.0893 4.69404 33.1315 5.06379L35.1539 5.80368C37.1155 6.52325 38.0144 7.6325 38.0144 9.46158C38.0144 11.763 36.0737 13.037 33.5192 13.037C31.844 13.037 30.4138 12.5438 29.5359 11.9271V9.68758C30.6793 10.6122 32.0483 11.1463 33.5192 11.1463C34.9499 11.1463 35.9504 10.6327 35.9504 9.50211C35.9504 8.51602 35.3174 8.12568 34.1937 7.69402L32.3754 7.03676C30.6998 6.42002 29.433 5.51617 29.433 3.44037ZM93.2884 3.43203C93.2884 1.21248 95.2088 0 97.5178 0C98.9275 0 100.214 0.369752 101.216 1.0278V3.22637C100.174 2.42496 99.0296 1.87013 97.5578 1.87013C96.2921 1.87013 95.352 2.36331 95.352 3.39072C95.352 4.31568 95.9443 4.68544 96.9865 5.05558L99.0089 5.79495C100.97 6.51412 101.87 7.62416 101.87 9.45298C101.87 11.7543 99.9284 13.0286 97.3746 13.0286C95.6987 13.0286 94.2692 12.5351 93.3905 11.9187V9.67885C94.5347 10.6038 95.9036 11.1379 97.3746 11.1379C98.8049 11.1379 99.8058 10.624 99.8058 9.4939C99.8058 8.50807 99.1724 8.11695 98.0488 7.68568L96.2304 7.02841C94.5552 6.41168 93.2884 5.50705 93.2884 3.43203ZM80.4557 3.43203C80.4557 1.21248 82.3765 0 84.6857 0C86.0948 0 87.3821 0.369752 88.3834 1.0278V3.22637C87.3413 2.42496 86.1972 1.87013 84.7254 1.87013C83.4593 1.87013 82.5201 2.36331 82.5201 3.39072C82.5201 4.31568 83.1119 4.68544 84.1537 5.05558L86.1766 5.79495C88.1374 6.51412 89.037 7.62416 89.037 9.45298C89.037 11.7543 87.0961 13.0286 84.5423 13.0286C82.8667 13.0286 81.4361 12.5351 80.5581 11.9187V9.67885C81.7023 10.6038 83.0711 11.1379 84.5423 11.1379C85.9717 11.1379 86.9734 10.624 86.9734 9.4939C86.9734 8.50807 86.34 8.11695 85.2163 7.68568L83.398 7.02841C81.7224 6.41168 80.4557 5.50705 80.4557 3.43203ZM68.0121 0.214149H75.611V2.10383H70.0941V5.13992H75.0421V7.00823H70.0941V10.9226H75.611V12.8313H68.0121V0.214149ZM0.869507 0.214083H5.26196C7.87744 0.214083 9.51187 1.38564 9.51187 3.64572C9.51187 5.00183 8.79695 5.98831 7.87744 6.31753C9.06282 6.70788 9.92054 7.87917 9.92054 9.21507C9.92054 11.5779 8.28611 12.8317 5.67102 12.8317H0.869507V0.214083ZM2.93312 2.06428V5.51612H5.24171C6.69257 5.51612 7.46916 4.96091 7.46916 3.76915C7.46916 2.57739 6.69257 2.06428 5.24171 2.06428H2.93312ZM2.93312 7.28303V10.9819H5.62987C7.06048 10.9819 7.83642 10.2627 7.83642 9.13244C7.83642 7.982 7.06048 7.28303 5.62987 7.28303H2.93312ZM43.4821 12.8313V0.213679H45.6068V12.8313H43.4821ZM22.407 0.213758H24.5321V7.81707C24.5321 11.2694 22.5091 13.037 19.5058 13.037C16.5227 13.037 14.4796 11.2694 14.4796 7.79726V0.213758H16.6046V7.57048C16.6046 9.99543 17.6262 11.1257 19.5058 11.1257C21.3855 11.1257 22.407 9.99543 22.407 7.57048V0.213758ZM60.2923 0.213705H62.3336V13.0279L53.7162 4.62414V12.8314H51.669V0.0174254L60.2923 8.281V0.213705ZM17.456 31.8076V19.1991L26.0154 27.3292V19.391H28.0422V32L19.488 23.7316V31.8076H17.456Z" fill-opacity="0.8"/>
</symbol><symbol viewBox="0 0 160 32" id="brand_bloomberg" xmlns="http://www.w3.org/2000/svg">
    <g clip-path="url(#bclip0_2015_73)">
        <path d="M5.05485 4.1345H8.51039C11.6686 4.1345 13.0604 5.13098 13.0604 7.15516C13.0604 8.91421 11.6686 10.1086 8.87502 10.1086H5.05485V4.1345ZM0.869507 24.0376H9.33877C13.7896 24.0376 18.2405 22.45 18.2405 17.3395C18.2405 14.3189 16.1195 12 13.1637 11.6644V11.5946C15.5821 10.8712 17.2499 9.11265 17.2499 6.4582C17.2499 2.17806 13.5914 0.553955 10.0368 0.553955H0.869507V24.0376ZM5.05485 13.6891H9.07324C12.4609 13.6891 14.061 14.5528 14.061 17.0093C14.061 20.0898 11.0644 20.457 8.90629 20.457H5.05485V13.6891Z" fill-opacity="0.8"/>
        <path d="M22.9733 24.0377V0" stroke-opacity="0.8" stroke-width="4" stroke-miterlimit="10"/>
        <path d="M31.6148 16.078C31.6148 13.5903 33.3765 11.3036 36.3005 11.3036C39.2244 11.3036 40.9808 13.5908 40.9808 16.078C40.9808 18.5652 39.2244 20.853 36.3005 20.853C33.376 20.853 31.6148 18.5658 31.6148 16.078ZM27.6277 16.078C27.6277 21.0869 31.4791 24.4335 36.3005 24.4335C41.116 24.4335 44.9732 21.0874 44.9732 16.078C44.9732 11.0686 41.1165 7.71777 36.3005 7.71777C31.4791 7.71724 27.6277 11.0692 27.6277 16.078Z" fill-opacity="0.8"/>
        <path d="M50.7581 16.078C50.7581 13.5903 52.5198 11.3036 55.4438 11.3036C58.3677 11.3036 60.1241 13.5908 60.1241 16.078C60.1241 18.5652 58.3677 20.853 55.4438 20.853C52.5198 20.853 50.7581 18.5658 50.7581 16.078ZM46.771 16.078C46.771 21.0869 50.623 24.4335 55.4438 24.4335C60.2593 24.4335 64.1165 21.0874 64.1165 16.078C64.1165 11.0686 60.2598 7.71777 55.4438 7.71777C50.6224 7.71724 46.771 11.0692 46.771 16.078Z" fill-opacity="0.8"/>
        <path d="M66.545 8.11569H70.3339V10.6061H70.3964C71.0949 9.1127 72.6218 7.71509 75.2797 7.71509C77.74 7.71509 79.4391 8.67505 80.2675 10.6685C81.4298 8.64912 83.1236 7.71509 85.5107 7.71509C89.7633 7.71509 91.26 10.7384 91.26 14.5534V24.0382H87.2729V15.0164C87.2729 13.0282 86.6788 11.303 84.3177 11.303C81.8267 11.303 80.8934 13.3584 80.8934 15.4117V24.0376H76.9116V14.5528C76.9116 12.5906 76.1139 11.303 74.1858 11.303C71.564 11.303 70.5321 13.2209 70.5321 15.3466V24.0376H66.545V8.11569Z" fill-opacity="0.8"/>
        <path d="M107.714 16.0781C107.714 18.5685 105.958 20.853 103.028 20.853C100.104 20.853 98.3428 18.5685 98.3428 16.0781C98.3428 13.5903 100.104 11.2978 103.028 11.2978C105.958 11.2978 107.714 13.5903 107.714 16.0781ZM94.4914 24.0377H98.2803V21.651H98.3428C99.5099 23.5688 101.6 24.433 103.83 24.433C108.74 24.433 111.701 20.7847 111.701 16.0775C111.701 11.3677 108.542 7.71728 103.993 7.71728C101.005 7.71728 99.406 9.10695 98.5771 10.1426H98.478V0H94.4908L94.4914 24.0377Z" fill-opacity="0.8"/>
        <path d="M117.491 14.4857C117.789 12.1932 119.253 10.7024 121.609 10.7024C124.1 10.7024 125.627 12.1625 125.664 14.4857H117.491ZM129.651 17.4703V16.3775C129.651 10.8353 126.628 7.71777 122.177 7.71777C117.351 7.71777 113.504 11.0692 113.504 16.078C113.504 21.0869 117.351 24.4335 122.177 24.4335C124.695 24.4335 127.06 23.5386 128.916 21.2536L126.06 19.1019C125.064 20.3227 123.766 21.2536 121.775 21.2536C119.55 21.2536 117.752 19.8253 117.491 17.4703H129.651Z" fill-opacity="0.8"/>
        <path d="M132.246 8.11569H136.234V10.6373H136.301C137.166 8.81317 138.923 7.71509 141.018 7.71509C141.518 7.71509 141.982 7.81669 142.446 7.95164V11.7978C141.784 11.6338 141.148 11.501 140.517 11.501C136.765 11.501 136.233 14.6544 136.233 15.5186V24.0382H132.246L132.246 8.11569Z" fill-opacity="0.8"/>
        <path d="M151.364 11.303C154.252 11.303 156.081 13.2209 156.081 15.9811C156.081 18.6303 154.288 20.6545 151.332 20.6545C148.643 20.6545 146.647 18.5652 146.647 16.0436C146.647 13.2209 148.57 11.303 151.364 11.303ZM156.081 8.11569V10.5045H156.018C154.851 8.57874 152.756 7.71509 150.531 7.71509C145.616 7.71509 142.66 11.3655 142.66 16.078C142.66 20.5846 145.818 24.2356 150.598 24.2356C152.594 24.2356 154.653 23.4756 155.821 21.9171H155.878V23.0803C155.878 26.2285 154.689 28.4199 150.833 28.4199C148.607 28.4199 146.944 27.587 145.349 26.1195L142.962 29.3767C145.214 31.3749 147.908 31.9999 150.869 31.9999C157.082 31.9999 159.87 28.3469 159.87 22.6114V8.11569H156.081Z" fill-opacity="0.8"/>
    </g>
    <defs>
        <clipPath id="bclip0_2015_73">
            <rect width="159" height="32" transform="translate(0.869507)"/>
        </clipPath>
    </defs>
</symbol><symbol viewBox="0 0 178 32" id="brand_cnbc" xmlns="http://www.w3.org/2000/svg">
    <path d="M0 15.8621C0 21.5843 4.68005 32 22.5501 32C39.0259 32 44.2295 24.4436 44.2295 20.9788H31.4742C31.4742 20.9788 30.8684 25.5563 23.6731 25.5563C16.4732 25.5563 14.526 19.5495 14.526 16.0761C14.526 12.6159 16.4732 6.93339 23.6731 6.93339C30.8684 6.93339 31.4742 10.9187 31.4742 10.9187H44.2295C44.2295 7.44984 40.4115 0 22.5501 0C4.68005 0 0 11.0927 0 15.8621Z" fill-opacity="0.8"/>
    <path d="M133.77 15.8621C133.77 21.5843 138.455 32 156.32 32C172.794 32 178 24.4436 178 20.9788H165.254C165.254 20.9788 164.645 25.5563 157.448 25.5563C150.247 25.5563 148.298 19.5495 148.298 16.0761C148.298 12.6159 150.247 6.93339 157.448 6.93339C164.645 6.93339 165.254 10.9187 165.254 10.9187H178C178 7.44984 174.186 0 156.32 0C138.455 0 133.77 11.0927 133.77 15.8621Z" fill-opacity="0.8"/>
    <path d="M79.0901 0.535156V19.9061L64.2456 0.535156H47.5469V31.2171H58.9949V11.6236L73.5795 31.2171H90.5388V0.535156H79.0901Z" fill-opacity="0.8"/>
    <path d="M115.775 23.8871V23.9275H106.236V18.2939H115.775V18.3122C117.812 18.3122 119.458 19.5634 119.458 21.1041C119.458 22.641 117.812 23.8871 115.775 23.8871ZM106.324 6.50257H115.515V6.51554C117.072 6.51554 118.335 7.53954 118.335 8.79988C118.335 10.065 117.072 11.0801 115.515 11.0801V11.0939H106.324V6.50257ZM125.143 14.9054C127.227 14.9054 131.585 12.4873 131.585 7.80259C131.585 1.13175 119.157 0.535156 117.251 0.535156H94.3525V31.2171H117.251C128.264 31.2171 132.688 27.7396 132.688 21.9324C132.688 16.1253 125.143 14.9054 125.143 14.9054Z" fill-opacity="0.8"/>
</symbol><symbol viewBox="0 0 104 32" id="brand_financialtimes" xmlns="http://www.w3.org/2000/svg">
    <path d="M3.92374 10.4032C3.92374 11.6586 4.26066 11.798 5.68531 11.8562V12.3037H0.0138947V11.8562C1.19194 11.798 1.52886 11.6586 1.52886 10.4032V2.19689C1.52886 0.935724 1.19194 0.79624 0.0451554 0.743933V0.284794H10.0583L10.126 2.93499H9.63337C9.2102 1.59245 8.75345 1.16819 6.40893 1.16819H4.59294C4.04762 1.16819 3.92374 1.29024 3.92374 1.79006V5.59101H5.97013C7.83764 5.59101 8.24229 5.25391 8.47095 3.99855H8.93002V8.247H8.47095C8.22435 6.82891 7.51867 6.4744 5.97013 6.4744H3.92374V10.4032ZM15.732 10.4032C15.732 11.6586 16.0643 11.798 17.4936 11.8562V12.3037H11.5709V11.8562C13.0025 11.798 13.3325 11.6586 13.3325 10.4032V2.19689C13.3325 0.935724 13.0025 0.79624 11.5709 0.743933V0.284794H17.4936V0.743933C16.0643 0.79624 15.732 0.935724 15.732 2.19689V10.4032ZM29.8472 2.53397C29.8472 1.36579 29.5282 0.889229 28.2234 0.743933V0.284794H32.4522V0.743933C31.1497 0.889229 30.833 1.36579 30.833 2.53397V12.6001H30.2339L22.0593 3.11516V10.0661C22.0593 11.2343 22.3737 11.7109 23.6785 11.8562V12.3037H19.4474V11.8562C20.7522 11.7109 21.0688 11.2343 21.0688 10.0661V1.97022C20.6642 1.25537 20.1866 0.918287 19.4474 0.743933V0.284794H22.7083L29.8472 8.56666V2.53397ZM36.2422 7.9971L38.0397 3.2372L39.8215 7.9971H36.2422ZM44.8237 12.3037V11.8562C43.9259 11.8736 43.6978 11.4842 43.239 10.3509L39.0258 0H38.4469L34.0578 10.7229C33.7573 11.4668 33.3521 11.6934 32.5949 11.8562V12.3037H36.4005V11.8562C35.5727 11.8562 35.1681 11.676 35.1681 11.0948C35.1681 10.6008 35.7157 9.2699 35.8535 8.88051H40.1906C40.3307 9.2699 40.9119 10.6008 40.9119 11.0948C40.9119 11.676 40.4731 11.8562 39.6435 11.8562V12.3037H44.8237ZM56.4375 2.53397C56.4375 1.36579 56.1214 0.889229 54.8186 0.743933V0.284794H59.0472V0.743933C57.7423 0.889229 57.4239 1.36579 57.4239 2.53397V12.6001H56.8265L48.6491 3.11516L48.6494 10.0661C48.6494 11.2343 48.966 11.7109 50.2708 11.8562V12.3037H46.0397V11.8562C47.3445 11.7109 47.6635 11.2343 47.6635 10.0661V1.97022C47.2565 1.25537 46.7795 0.918287 46.0397 0.743933V0.284794H49.3006L56.4372 8.56666L56.4375 2.53397ZM71.568 9.47913C70.3153 11.6237 68.6759 12.6001 66.1907 12.6001C62.2965 12.6001 59.9879 10.0312 59.9879 6.18962C59.9879 3.45225 62.1385 0 66.3152 0C67.5656 0 69.3428 0.709045 69.6097 0.709045C69.9605 0.709045 70.0664 0.517254 70.3518 0H70.9486L71.197 4.01598H70.6679C69.9605 2.15619 68.7124 0.813673 66.6139 0.813673C63.7935 0.813673 62.5616 3.87651 62.5616 6.18962C62.5616 9.43263 63.9521 11.6062 66.9323 11.6062C69.2571 11.6062 70.544 9.87433 71.091 9.11298L71.568 9.47913ZM77.3709 10.4032C77.3709 11.6586 77.7078 11.798 79.1342 11.8562V12.3037H73.2121V11.8562C74.6414 11.798 74.976 11.6586 74.976 10.4032V2.19689C74.976 0.935724 74.6414 0.79624 73.2121 0.743933V0.284794H79.1342V0.743933C77.7078 0.79624 77.3709 0.935724 77.3709 2.19689V10.4032ZM84.0415 7.9971L85.8389 3.2372L87.619 7.9971H84.0415ZM92.6253 12.3037V11.8562C91.7251 11.8736 91.497 11.4842 91.0403 10.3509L86.8271 0H86.2465L81.8573 10.7229C81.5563 11.4668 81.1516 11.6934 80.3939 11.8562V12.3037H84.1995V11.8562C83.3723 11.8562 82.9676 11.676 82.9676 11.0948C82.9676 10.6008 83.5147 9.2699 83.6548 8.88051H87.9895C88.1296 9.2699 88.7108 10.6008 88.7108 11.0948C88.7108 11.676 88.2703 11.8562 87.4425 11.8562V12.3037H92.6253ZM93.6725 12.3037V11.8562C94.8187 11.8039 95.1533 11.6586 95.1533 10.4032V2.19689C95.1533 0.935724 94.8187 0.79624 93.6725 0.743933V0.284794H99.2056V0.743933C97.8851 0.79624 97.5482 0.935724 97.5482 2.19689V10.6357C97.5482 11.3622 97.7607 11.6062 99.0997 11.6062C101.25 11.6062 102.519 11.2169 103.541 9.09554H104L103.19 12.3037H93.6725ZM2.64149 31.2619C4.00247 31.2038 4.33476 31.0643 4.33476 29.8089V20.5739H2.85626C1.46344 20.5739 0.915811 21.1377 0.52911 22.765H0L0.2825 19.6905H10.7842L11.0667 22.765H10.5353C10.1509 21.1377 9.60385 20.5739 8.21335 20.5739H6.73195V29.8089C6.73195 31.0643 7.06655 31.2038 8.42117 31.2619V31.7094H2.64149V31.2619ZM16.4579 29.8089C16.4579 31.0643 16.7949 31.2038 18.2218 31.2561V31.7094H12.2992V31.2561C13.7308 31.2038 14.0631 31.0643 14.0631 29.8089V21.5968C14.0631 20.3414 13.7308 20.202 12.2992 20.1497V19.6847H18.2218V20.1497C16.7949 20.202 16.4579 20.3414 16.4579 21.5968V29.8089ZM30.8012 19.6905H34.9258V20.1497C33.7796 20.202 33.4473 20.3414 33.4473 21.5968V29.8089C33.4473 31.0643 33.7796 31.2038 34.9258 31.2619V31.7094H29.5328V31.2619C30.7132 31.2038 31.0501 31.0643 31.0501 29.8089V21.3527H31.0137L27.0135 31.8605H26.4664L22.5566 21.3527H22.5207V29.4718C22.5207 30.64 22.8368 31.1166 24.1416 31.2619V31.7094H19.9134V31.2619C21.2159 31.1166 21.5325 30.64 21.5325 29.4718V21.3004C21.5325 20.4693 21.1817 20.1497 19.9134 20.1497V19.6905H24.2661L27.4546 28.0363L30.8012 19.6905ZM36.6266 31.7094V31.2619C37.7705 31.2038 38.1051 31.0643 38.1051 29.8089V21.5968C38.1051 20.3414 37.7705 20.202 36.6266 20.1497V19.6905H46.6345L46.7049 22.3407H46.214C45.789 20.9982 45.33 20.5739 42.9875 20.5739H41.1738C40.6244 20.5739 40.5046 20.696 40.5046 21.19V24.9967H42.5464C44.4142 24.9967 44.8188 24.6596 45.0498 23.4043H45.5083V27.6469H45.0498C44.8009 26.2346 44.0975 25.8801 42.5464 25.8801H40.5046V30.0414C40.5046 30.7621 40.7148 31.012 42.8295 31.012C44.9774 31.012 46.2481 30.6226 47.2699 28.4955H47.7272L46.9173 31.7094H36.6266ZM49.2853 27.9317H49.7467C50.2555 29.5242 51.7728 31.1863 53.5367 31.1863C55.0493 31.1863 55.5967 30.1286 55.5967 29.1871C55.5967 26.4264 49.3938 25.915 49.3938 22.486C49.3935 20.8238 50.9971 19.4057 52.8287 19.4057C54.6262 19.4057 55.2598 20.0392 56.0557 20.0392C56.3903 20.0392 56.601 19.7777 56.689 19.4057H57.1481V23.2241H56.689C56.1958 21.4922 54.9636 20.2194 53.3398 20.2194C52.0032 20.2194 51.5059 21.0854 51.5059 21.9048C51.5059 24.3574 57.7117 24.433 57.7117 28.6582C57.7111 30.547 56.162 32 54.0088 32C51.8946 32 51.3493 31.2619 50.5198 31.2619C50.2054 31.2619 49.9907 31.4711 49.9224 31.8605H49.285L49.2853 27.9317Z" fill-opacity="0.8"/>
</symbol><symbol viewBox="0 0 118 30" id="brand_forbes" xmlns="http://www.w3.org/2000/svg">
    <path d="M66.8185 9.6C66.8185 6.16296 66.878 2.96296 67.0565 0L57.953 1.71852V2.54815L58.8455 2.66667C59.5 2.72593 59.9165 2.96296 60.1545 3.31852C60.3925 3.73333 60.571 4.32593 60.69 5.21482C60.809 6.93333 60.928 10.8444 60.8685 17.0074C60.8685 23.1111 60.809 26.963 60.69 28.4444C63.9625 29.1556 66.521 29.4519 68.425 29.4519C71.995 29.4519 74.7915 28.4444 76.8145 26.3704C78.8375 24.3556 79.9085 21.5111 79.9085 18.0148C79.9085 15.2296 79.135 12.9185 77.588 11.0815C76.041 9.24444 74.0775 8.35556 71.757 8.35556C70.21 8.35556 68.6035 8.77037 66.8185 9.6ZM66.997 27.8519C66.878 25.9556 66.759 20.2667 66.759 10.963C67.2945 10.7852 68.0085 10.6667 68.901 10.6667C70.329 10.6667 71.4595 11.3778 72.2925 12.8593C73.1255 14.3407 73.542 16.1185 73.542 18.3704C73.542 21.1556 73.066 23.4074 72.114 25.3037C71.162 27.1407 69.972 28.0889 68.4845 28.0889C68.0085 27.9704 67.5325 27.9111 66.997 27.8519ZM23.8 0.592593H0V1.77778L1.2495 1.8963C2.2015 2.07407 2.856 2.42963 3.2725 2.96296C3.689 3.55556 3.927 4.5037 3.9865 5.80741C4.4625 12.2074 4.4625 18.1926 3.9865 23.7037C3.8675 25.0074 3.6295 25.9556 3.2725 26.5481C2.856 27.1407 2.2015 27.4963 1.2495 27.6148L0 27.7926V28.9778H15.351V27.7926L13.7445 27.6741C13.3525 27.6414 12.9712 27.5301 12.6235 27.3467C12.2758 27.1634 11.969 26.9119 11.7215 26.6074C11.305 26.0148 11.067 25.0667 11.0075 23.763C10.829 21.3926 10.71 18.6667 10.71 15.6444L13.923 15.7037C15.6485 15.763 16.8385 17.0667 17.4335 19.6741H18.6235V10.0148H17.4335C16.8385 12.563 15.708 13.8667 13.923 13.9259L10.71 13.9852C10.71 8.65185 10.829 4.85926 11.0075 2.54815H15.708C19.04 2.54815 21.301 4.68148 22.61 8.94815L24.038 8.53333L23.8 0.592593ZM21.0035 18.8444C21.0035 21.9259 21.896 24.4741 23.6215 26.4889C25.347 28.5037 27.9055 29.4519 31.1185 29.4519C34.3315 29.4519 36.9495 28.4444 38.8535 26.3704C40.7575 24.3556 41.65 21.8074 41.65 18.7259C41.65 15.6444 40.7575 13.0963 39.032 11.0815C37.3065 9.06667 34.748 8.11852 31.535 8.11852C28.322 8.11852 25.704 9.12593 23.8 11.2C21.896 13.2148 21.0035 15.763 21.0035 18.8444ZM34.272 12.0889C34.986 13.8074 35.2835 16.0593 35.2835 18.7852C35.2835 25.0667 33.9745 28.1481 31.416 28.1481C30.107 28.1481 29.0955 27.2593 28.3815 25.4815C27.6675 23.7037 27.37 21.4519 27.37 18.7852C27.37 12.563 28.679 9.48148 31.2375 9.48148C32.5465 9.42222 33.558 10.3111 34.272 12.0889ZM84.5495 26.4889C86.513 28.4444 89.012 29.4519 91.987 29.4519C93.8315 29.4519 95.438 29.0963 96.866 28.3259C98.294 27.6148 99.4245 26.7259 100.198 25.6593L99.603 24.9481C98.294 25.9556 96.8065 26.4296 95.081 26.4296C92.701 26.4296 90.8565 25.6593 89.607 24.0593C88.298 22.4593 87.703 20.4444 87.822 17.837H100.555C100.555 14.9926 99.841 12.6815 98.3535 10.8444C96.866 9.06667 94.7835 8.17778 92.106 8.17778C88.774 8.17778 86.2155 9.24444 84.371 11.3185C82.5265 13.3926 81.634 15.9407 81.634 18.963C81.634 22.0444 82.586 24.5333 84.5495 26.4889ZM88.9525 11.6148C89.607 10.1926 90.44 9.48148 91.5705 9.48148C93.3555 9.48148 94.248 11.7333 94.248 16.2963L87.941 16.4148C88.0005 14.637 88.298 13.037 88.9525 11.6148ZM116.561 9.24444C114.954 8.53333 112.931 8.11852 110.492 8.11852C107.993 8.11852 106.029 8.77037 104.542 10.0148C103.054 11.2593 102.281 12.8 102.281 14.637C102.281 16.237 102.757 17.4815 103.649 18.3704C104.542 19.2593 105.97 20.0296 107.814 20.6815C109.48 21.2741 110.67 21.8667 111.265 22.4C111.86 22.9926 112.217 23.6444 112.217 24.5333C112.217 25.363 111.92 26.1333 111.265 26.7259C110.67 27.3778 109.837 27.6741 108.766 27.6741C106.148 27.6741 104.185 25.7778 102.816 21.9852L101.805 22.2815L102.043 28.2074C104.185 29.037 106.565 29.4519 109.183 29.4519C111.92 29.4519 114.002 28.8593 115.549 27.6148C117.096 26.4296 117.87 24.7111 117.87 22.5778C117.87 21.1556 117.513 19.9704 116.739 19.0815C115.966 18.1926 114.716 17.4222 112.931 16.7111C110.968 16 109.599 15.3481 108.885 14.7556C108.171 14.163 107.814 13.4519 107.814 12.563C107.814 11.6741 108.052 10.963 108.588 10.3704C109.123 9.77778 109.778 9.54074 110.611 9.54074C112.991 9.54074 114.716 11.2593 115.787 14.637L116.799 14.3407L116.561 9.24444ZM59.3215 8.71111C58.4885 8.2963 57.596 8.11852 56.5845 8.11852C55.573 8.11852 54.5615 8.53333 53.431 9.36296C52.3005 10.1926 51.4675 11.3185 50.813 12.8593L50.8725 8.11852L41.8285 9.8963V10.7259L42.721 10.7852C43.8515 10.9037 44.506 11.7926 44.625 13.3926C44.982 17.0667 44.982 20.9778 44.625 25.1259C44.506 26.7259 43.8515 27.5556 42.721 27.7333L41.8285 27.8519V28.9778H54.4425V27.8519L52.836 27.7333C51.7055 27.6148 51.051 26.7259 50.932 25.1259C50.575 21.6889 50.5155 18.0148 50.813 14.2222C51.17 13.6296 51.9435 13.2741 53.1335 13.1556C54.3235 13.037 55.692 13.3926 57.12 14.2222L59.3215 8.71111Z" fill-opacity="0.8"/>
</symbol><symbol viewBox="0 0 131 32" id="brand_lifehacker" xmlns="http://www.w3.org/2000/svg">
    <path d="M5.85501 31.642H0.869507V0.318L5.85501 0.636V31.642ZM14.0178 31.642H9.03134V9.302L14.0178 9.58V31.642ZM11.5241 2.504C13.0927 2.504 14.3797 3.776 14.3797 5.327C14.3797 6.877 13.0927 8.149 11.5241 8.149C9.95648 8.149 8.66951 6.877 8.66951 5.327C8.66951 3.777 9.95648 2.504 11.5241 2.504ZM25.9193 13.794V18.723H22.1787V31.62H17.1932V7.115C17.1942 3.38 20.3304 0 24.03 0C25.2758 0 26.2811 0.358 26.5227 0.517L26.3212 5.247H24.029C23.0236 5.247 22.1797 6.082 22.1797 7.115V13.794H25.9183H25.9193ZM27.936 15.781C27.936 12.045 30.992 8.984 34.8118 8.984C38.5906 8.984 41.6476 12.044 41.6476 15.781V20.551C41.6476 21.943 40.521 23.016 39.1539 23.016H32.9215V25.163C32.9215 26.196 33.7664 27.031 34.8118 27.031H39.5969L39.7572 31.205L35.2539 31.881C30.9108 32.596 27.936 28.899 27.936 25.163V15.78V15.781ZM45.9104 31.642V0.517H49.1279V9.977C50.0119 9.699 51.4192 9.58 52.3844 9.58C55.8023 9.58 58.4564 12.641 58.4564 16.1V31.642H55.3192V16.1C55.3192 14.391 53.9119 13.04 52.1829 13.04H49.1279V31.643L45.9104 31.642ZM70.2236 15.582C70.2236 13.794 69.3796 12.362 67.0873 12.602H67.1274C65.8414 12.641 64.1926 12.8 62.8255 12.879C62.7854 11.727 62.7453 11.289 62.7052 10.415C63.7907 10.017 65.3583 9.62 66.6854 9.58C70.7067 9.5 73.3608 12.72 73.3608 16.179V25.639C73.3608 29.059 70.5864 31.881 67.1274 31.881C63.6694 31.881 60.8148 29.058 60.8148 25.64V23.692C60.8148 20.273 63.1873 17.689 67.1274 17.689C68.6158 17.689 69.3796 17.849 70.2246 18.087V15.583L70.2236 15.582ZM82.3686 9.58C85.8266 9.58 88.6812 12.363 88.6812 15.821V16.219C87.4353 16.259 86.43 16.259 85.5048 16.299V15.821C85.5048 14.151 84.0976 12.761 82.3686 12.761C80.6797 12.761 79.3125 14.151 79.3125 15.821V25.759C79.3069 26.1615 79.382 26.561 79.5335 26.9341C79.6849 27.3072 79.9096 27.6462 80.1944 27.9314C80.4791 28.2165 80.8182 28.4419 81.1916 28.5944C81.565 28.7468 81.9652 28.8232 82.3686 28.819C84.0575 28.819 85.4647 27.548 85.5058 25.879C87.0734 25.998 88.5609 26.077 88.6812 26.077C88.5208 29.377 85.7063 32 82.3686 32C78.9106 32 76.0961 29.217 76.0961 25.759V15.821C76.0961 12.363 78.9106 9.581 82.3686 9.581V9.58ZM101.354 31.642L95.2433 21.108C94.6399 20.075 94.6399 19.955 95.3636 18.723L100.752 9.898H104.41L98.3394 20.075L104.894 31.642H101.354ZM94.4384 0.596V31.642H91.222V0.596H94.4384ZM105.571 15.861C105.571 12.402 108.386 9.581 111.884 9.581C115.342 9.581 118.156 12.402 118.156 15.861V20.751C118.156 21.665 117.432 22.341 116.547 22.341H108.788V25.719C108.788 27.429 110.155 28.819 111.884 28.819H115.945C115.985 29.853 116.025 30.569 116.105 31.284L112.246 31.881C108.305 32.556 105.57 29.178 105.57 25.719L105.571 15.861ZM124.194 31.642H120.977V16.14C120.977 12.682 123.712 9.462 127.732 9.541C129.099 9.581 129.944 9.899 130.87 10.336C130.829 11.29 130.789 12.086 130.749 12.801L127.251 12.721C125.561 12.721 124.194 14.511 124.194 16.141V31.642ZM32.9215 18.087H36.6611V15.78C36.6611 14.747 35.8172 13.912 34.8118 13.912C34.5647 13.9106 34.3197 13.9577 34.0909 14.0509C33.862 14.144 33.6539 14.2813 33.4783 14.4548C33.3027 14.6283 33.1631 14.8347 33.0676 15.0621C32.972 15.2895 32.9224 15.5334 32.9215 15.78V18.087ZM70.2236 25.64V20.273H67.1274C65.3994 20.273 64.0323 21.625 64.0323 23.334V25.64C64.0323 27.349 65.3994 28.74 67.1274 28.74C67.5352 28.7408 67.9391 28.6611 68.3159 28.5055C68.6927 28.3498 69.0349 28.1213 69.3228 27.8332C69.6106 27.545 69.8385 27.2029 69.9933 26.8265C70.1481 26.4501 70.2257 26.0468 70.2236 25.64ZM108.788 19.2H114.98V15.86C114.98 14.152 113.573 12.76 111.883 12.76C111.475 12.7596 111.071 12.8396 110.695 12.9954C110.318 13.1512 109.977 13.3797 109.689 13.6678C109.401 13.9559 109.174 14.2979 109.019 14.6741C108.864 15.0503 108.786 15.4534 108.788 15.86V19.2Z" fill-opacity="0.8"/>
</symbol><symbol viewBox="0 0 244 32" id="brand_modern-retail" xmlns="http://www.w3.org/2000/svg">
    <g clip-path="url(#gclip0_2015_83)">
        <path fill-rule="evenodd" clip-rule="evenodd" d="M16.9067 0.34375L1.21356 8.18272V27.7798L9.06032 31.6989V19.9408L16.9067 23.86L24.7535 19.9408V31.6989L32.5999 27.7798V8.18272L16.9067 0.34375Z" fill-opacity="0.8"/>
        <path fill-rule="evenodd" clip-rule="evenodd" d="M58.7456 14.4508C58.3512 15.927 57.4309 19.7983 57.4309 19.7983H57.3655C57.3655 19.7983 56.4446 15.927 56.0173 14.4508L53.1582 4.18237H45.3349V27.6396H50.5611V15.8618C50.5611 14.9105 50.4628 11.1376 50.4628 11.1376H50.5282C50.5282 11.1376 51.3499 14.6808 51.6128 15.5337L54.9656 27.6396H59.7648L63.1501 15.5006C63.413 14.6477 64.2347 11.1376 64.2347 11.1376H64.3011C64.3011 11.1376 64.2022 14.8773 64.2022 15.829V27.6396H69.5266V4.18237H61.6382L58.7456 14.4508Z" fill-opacity="0.8"/>
        <path fill-rule="evenodd" clip-rule="evenodd" d="M80.6347 24.359C78.3012 24.359 77.0848 22.3248 77.0848 19.2736C77.0848 16.2225 78.3012 14.1562 80.6347 14.1562C82.9683 14.1562 84.2176 16.2225 84.2176 19.2736C84.2176 22.3248 82.9683 24.359 80.6347 24.359ZM80.6676 10.3833C75.2768 10.3833 71.6611 14.2214 71.6611 19.2736C71.6611 24.3259 75.2768 28.1647 80.6676 28.1647C86.0913 28.1647 89.6413 24.3259 89.6413 19.2736C89.6413 14.2214 86.0913 10.3833 80.6676 10.3833Z" fill-opacity="0.8"/>
        <path fill-rule="evenodd" clip-rule="evenodd" d="M99.4339 23.9326C97.3629 23.9326 96.1147 22.0952 96.1147 19.1753C96.1147 16.3538 97.3629 14.3858 99.5 14.3858C101.834 14.3858 102.984 16.4197 102.984 19.2412C102.984 21.9968 101.669 23.9326 99.4339 23.9326ZM102.853 12.7453H102.754C101.767 11.3347 100.42 10.3502 98.0538 10.3502C93.7147 10.3502 90.691 13.9918 90.691 19.2412C90.691 24.8511 93.7476 28.1647 98.0538 28.1647C100.256 28.1647 101.998 27.115 103.017 25.376H103.083V27.6398H108.21V4.18262H102.853V12.7453Z" fill-opacity="0.8"/>
        <path fill-rule="evenodd" clip-rule="evenodd" d="M115.308 17.4365C115.67 15.4355 116.722 14.1558 118.76 14.1558C120.502 14.1558 121.751 15.4355 121.948 17.4365H115.308ZM124.414 12.4496C122.967 11.1374 121.061 10.3501 118.661 10.3501C113.534 10.3501 110.016 14.1886 110.016 19.2083C110.016 24.293 113.435 28.1318 118.99 28.1318C121.126 28.1318 122.835 27.5738 124.249 26.5897C125.728 25.5727 126.714 24.1293 127.076 22.62H121.85C121.389 23.6697 120.469 24.293 119.055 24.293C116.854 24.293 115.604 22.8828 115.275 20.6189H127.372C127.405 17.2069 126.418 14.287 124.414 12.4496Z" fill-opacity="0.8"/>
        <path fill-rule="evenodd" clip-rule="evenodd" d="M134.404 13.4669H134.305V10.8422H129.178V27.6398H134.536V20.0941C134.536 16.4521 136.639 14.8447 139.926 15.3039H140.058V10.7113C139.827 10.6125 139.499 10.5801 139.006 10.5801C136.968 10.5801 135.587 11.4658 134.404 13.4669Z" fill-opacity="0.8"/>
        <path fill-rule="evenodd" clip-rule="evenodd" d="M152.219 10.3501C149.884 10.3501 148.274 11.3346 147.025 13.1388H146.926V10.8422H141.766V27.6398H147.123V18.3554C147.123 16.2884 148.307 14.8122 150.082 14.8122C151.824 14.8122 152.711 16.0256 152.711 17.7974V27.6398H158.069V16.7148C158.069 12.9748 155.9 10.3501 152.219 10.3501Z" fill-opacity="0.8"/>
        <path fill-rule="evenodd" clip-rule="evenodd" d="M171.018 14.5495H166.646V8.77558H171.149C173.384 8.77558 174.502 9.98935 174.502 11.6952C174.502 13.467 173.319 14.5495 171.018 14.5495ZM179.63 21.0127C179.301 18.6836 178.249 17.4038 176.211 16.7149V16.6165C178.94 15.6652 180.287 13.6638 180.287 10.9407C180.287 6.57734 176.737 4.18262 172.07 4.18262H160.828V27.6398H166.646V18.8472H170.163C172.662 18.8472 173.779 20.0285 174.074 22.1936C174.436 24.5231 174.338 27.279 174.962 27.6398H180.615V27.3443C179.794 27.049 180.123 24.0963 179.63 21.0127Z" fill-opacity="0.8"/>
        <path fill-rule="evenodd" clip-rule="evenodd" d="M186.924 17.4365C187.286 15.4355 188.338 14.1558 190.376 14.1558C192.118 14.1558 193.367 15.4355 193.564 17.4365H186.924ZM196.03 12.4496C194.583 11.1374 192.677 10.3501 190.277 10.3501C185.149 10.3501 181.632 14.1886 181.632 19.2083C181.632 24.293 185.051 28.1318 190.606 28.1318C192.742 28.1318 194.451 27.5738 195.865 26.5897C197.344 25.5727 198.33 24.1293 198.692 22.62H193.466C193.005 23.6697 192.085 24.293 190.671 24.293C188.47 24.293 187.22 22.8828 186.891 20.6189H198.988C199.021 17.2069 198.034 14.287 196.03 12.4496Z" fill-opacity="0.8"/>
        <path fill-rule="evenodd" clip-rule="evenodd" d="M207.007 5.52734H201.78V10.8423H199.545V14.1887H201.78V23.2107C201.78 26.8195 204.016 27.8364 207.138 27.8364C208.584 27.8364 209.603 27.7052 210.063 27.574V23.6699C209.867 23.6699 209.34 23.7024 208.88 23.7024C207.729 23.7024 207.007 23.3747 207.007 22.0625V14.1887H210.063V10.8423H207.007V5.52734Z" fill-opacity="0.8"/>
        <path fill-rule="evenodd" clip-rule="evenodd" d="M222.388 21.636C222.388 23.4403 221.008 24.6544 219.003 24.6544C217.688 24.6544 216.702 24.1295 216.702 22.7842C216.702 21.5048 217.556 20.9799 219.627 20.5203C220.712 20.2582 221.698 19.9954 222.388 19.6349V21.636ZM227.516 25.0152V16.5506C227.516 14.4511 226.826 12.8109 225.379 11.7612C224.164 10.8423 222.454 10.3831 219.923 10.3831C214.828 10.3831 212.429 13.0406 212.297 16.1573H217.228C217.392 14.7464 218.246 13.9919 219.956 13.9919C221.567 13.9919 222.257 14.7136 222.257 15.7961C222.257 16.9446 221.139 17.2723 217.984 17.6663C214.5 18.1256 211.542 19.2409 211.542 22.9482C211.542 26.2618 213.941 28.066 217.294 28.066C219.825 28.066 221.304 27.1806 222.29 25.7697H222.355C222.487 26.6226 222.651 27.2791 222.914 27.6396H228.107V27.4099C227.647 27.1147 227.516 26.3602 227.516 25.0152Z" fill-opacity="0.8"/>
        <mask id="gmask0_2015_83" style="mask-type:luminance" maskUnits="userSpaceOnUse" x="1" y="0" width="243" height="32">
            <path d="M1.21185 31.4805H243.488V0.341553H1.21185V31.4805Z"/>
        </mask>
        <g mask="url(#gmask0_2015_83)">
            <path fill-rule="evenodd" clip-rule="evenodd" d="M230.111 27.6395H235.468V10.8423H230.111V27.6395Z" fill-opacity="0.8"/>
        </g>
        <mask id="gmask1_2015_83" style="mask-type:luminance" maskUnits="userSpaceOnUse" x="1" y="0" width="243" height="32">
            <path d="M1.21185 31.4805H243.488V0.341553H1.21185V31.4805Z"/>
        </mask>
        <g mask="url(#gmask1_2015_83)">
            <path fill-rule="evenodd" clip-rule="evenodd" d="M230.111 8.5129H235.468V4.18237H230.111V8.5129Z" fill-opacity="0.8"/>
        </g>
        <mask id="gmask2_2015_83" style="mask-type:luminance" maskUnits="userSpaceOnUse" x="1" y="0" width="243" height="32">
            <path d="M1.21185 31.4805H243.488V0.341553H1.21185V31.4805Z"/>
        </mask>
        <g mask="url(#gmask2_2015_83)">
            <path fill-rule="evenodd" clip-rule="evenodd" d="M238.065 27.6396H243.488V4.18237H238.065V27.6396Z" fill-opacity="0.8"/>
        </g>
    </g>
    <defs>
        <clipPath id="gclip0_2015_83">
            <rect width="243" height="32" transform="translate(0.869507)"/>
        </clipPath>
    </defs>
</symbol><symbol viewBox="0 0 128 32" id="brand_reuters" xmlns="http://www.w3.org/2000/svg">
    <g clip-path="url(#hclip0_2015_394)">
        <path d="M32.9281 19.3569C32.3387 19.3569 31.7984 19.651 31.5036 20.141C31.2089 20.6311 31.2089 21.2681 31.5036 21.7582C31.7984 22.2482 32.3387 22.5667 32.9281 22.5422C33.8123 22.5177 34.5 21.8072 34.5 20.9496C34.5245 20.092 33.8123 19.3814 32.9281 19.3569Z" fill-opacity="0.8"/>
        <path d="M30.8895 23.5225C30.1282 23.5225 29.5142 24.135 29.5142 24.8701C29.5142 25.6297 30.1282 26.2422 30.8895 26.2422C31.6509 26.2422 32.2649 25.6297 32.2649 24.8701C32.2649 24.135 31.6509 23.5225 30.8895 23.5225Z" fill-opacity="0.8"/>
        <path d="M27.9067 29.131C28.5573 29.1094 29.0673 28.5656 29.0456 27.9165C29.0239 27.2673 28.4789 26.7586 27.8282 26.7802C27.1775 26.8018 26.6676 27.3456 26.6893 27.9947C26.7109 28.6439 27.256 29.1526 27.9067 29.131Z" fill-opacity="0.8"/>
        <path d="M24.4548 28.9863C23.9145 28.9863 23.4969 29.4029 23.4969 29.9419C23.4969 30.481 23.9145 30.8975 24.4548 30.8975C24.9951 30.8975 25.4126 30.481 25.4126 29.9419C25.4126 29.4029 24.9951 28.9863 24.4548 28.9863Z" fill-opacity="0.8"/>
        <path d="M21.1147 30.1379C20.6726 30.1379 20.3042 30.5055 20.3042 30.9465C20.3042 31.3876 20.6726 31.7551 21.1147 31.7551C21.5568 31.7551 21.9252 31.3876 21.9252 30.9465C21.9497 30.5055 21.5813 30.1379 21.1147 30.1379Z" fill-opacity="0.8"/>
        <path d="M17.9956 30.6038C17.6026 30.6038 17.2833 30.9223 17.2833 31.3143C17.2833 31.7064 17.6026 32.0249 17.9956 32.0249C18.3885 32.0249 18.7078 31.7064 18.7078 31.3143C18.6832 30.9223 18.364 30.6038 17.9956 30.6038Z" fill-opacity="0.8"/>
        <path d="M14.8519 30.1379C14.4098 30.1379 14.0414 30.5055 14.0414 30.9465C14.0414 31.3876 14.4098 31.7551 14.8519 31.7551C15.2939 31.7551 15.6623 31.3876 15.6623 30.9465C15.6623 30.5055 15.2939 30.1379 14.8519 30.1379Z" fill-opacity="0.8"/>
        <path d="M11.5117 28.9619C11.1679 28.9619 10.8486 29.1334 10.6767 29.4275C10.5047 29.7215 10.5047 30.089 10.6767 30.383C10.8486 30.6771 11.1679 30.8486 11.5117 30.8486C12.0275 30.8486 12.4696 30.4321 12.4696 29.893C12.445 29.403 12.0275 28.9864 11.5117 28.9619Z" fill-opacity="0.8"/>
        <path d="M8.09782 26.7812C7.68029 26.7812 7.28733 27.0018 7.06629 27.3693C6.84525 27.7368 6.84525 28.1779 7.06629 28.5454C7.28733 28.9129 7.65573 29.1335 8.09782 29.1335C8.73638 29.1335 9.2767 28.6189 9.2767 27.9574C9.2767 27.3203 8.76094 26.7812 8.09782 26.7812Z" fill-opacity="0.8"/>
        <path d="M5.07702 23.5225C4.31566 23.5225 3.70166 24.135 3.70166 24.8946C3.70166 25.6542 4.31566 26.2667 5.07702 26.2667C5.83838 26.2667 6.45239 25.6542 6.45239 24.8946C6.42783 24.135 5.83838 23.5225 5.07702 23.5225Z" fill-opacity="0.8"/>
        <path d="M3.03847 19.3568C2.44903 19.3323 1.90871 19.6508 1.61398 20.1409C1.31926 20.6309 1.31926 21.268 1.61398 21.758C1.90871 22.2481 2.44903 22.5666 3.03847 22.5421C3.92263 22.5176 4.61031 21.807 4.61031 20.9494C4.61031 20.0919 3.89807 19.3813 3.03847 19.3568Z" fill-opacity="0.8"/>
        <path d="M2.30174 14.1626C1.27022 14.1626 0.435181 14.9957 0.435181 16.0248C0.435181 17.0539 1.27022 17.8869 2.30174 17.8869C3.33327 17.8869 4.16831 17.0539 4.16831 16.0248C4.14375 14.9957 3.33327 14.1626 2.30174 14.1626Z" fill-opacity="0.8"/>
        <path d="M3.03847 9.45801C2.44903 9.45801 1.90871 9.75204 1.61398 10.2421C1.31926 10.7321 1.31926 11.3692 1.61398 11.8592C1.90871 12.3493 2.44903 12.6678 3.03847 12.6433C3.92263 12.6188 4.61031 11.9082 4.61031 11.0507C4.61031 10.1931 3.89807 9.48251 3.03847 9.45801Z" fill-opacity="0.8"/>
        <path d="M5.07697 5.7583C4.58577 5.7583 4.11913 6.00332 3.87353 6.44436C3.62793 6.8609 3.62793 7.39995 3.87353 7.81649C4.11913 8.23303 4.58577 8.50256 5.07697 8.50256C5.81378 8.47806 6.42778 7.89 6.42778 7.13043C6.40322 6.39536 5.81378 5.7828 5.07697 5.7583Z" fill-opacity="0.8"/>
        <path d="M8.09783 2.86694C7.45927 2.86694 6.91895 3.38149 6.91895 4.04305C6.91895 4.68011 7.43471 5.21916 8.09783 5.21916C8.73639 5.21916 9.27671 4.70462 9.27671 4.04305C9.27671 3.40599 8.76095 2.86694 8.09783 2.86694Z" fill-opacity="0.8"/>
        <path d="M11.5117 1.1272C10.9959 1.1272 10.5538 1.54374 10.5538 2.08279C10.5538 2.59734 10.9714 3.03838 11.5117 3.03838C12.0274 3.03838 12.4695 2.62184 12.4695 2.08279C12.445 1.56824 12.0274 1.1272 11.5117 1.1272Z" fill-opacity="0.8"/>
        <path d="M14.8519 0.245117C14.3852 0.245117 14.0168 0.612652 14.0168 1.0782C14.0168 1.54374 14.3852 1.91127 14.8519 1.91127C15.294 1.91127 15.6624 1.54374 15.6624 1.1027C15.6378 0.612652 15.294 0.245117 14.8519 0.245117Z" fill-opacity="0.8"/>
        <path d="M17.971 0.000244141C17.5781 0.000244141 17.2588 0.318774 17.2588 0.710811C17.2588 1.10285 17.5781 1.42138 17.971 1.42138C18.364 1.42138 18.6833 1.10285 18.6833 0.710811C18.6833 0.318774 18.364 0.000244141 17.971 0.000244141Z" fill-opacity="0.8"/>
        <path d="M21.1147 0.245117C20.6726 0.245117 20.3042 0.612652 20.3042 1.05369C20.3042 1.49473 20.6726 1.86227 21.1147 1.86227C21.5568 1.86227 21.9252 1.49473 21.9252 1.05369C21.9497 0.612652 21.5813 0.245117 21.1147 0.245117Z" fill-opacity="0.8"/>
        <path d="M24.4548 1.1272C24.111 1.1272 23.7917 1.29871 23.6198 1.59274C23.4479 1.88677 23.4479 2.2543 23.6198 2.54833C23.7917 2.84236 24.111 3.01387 24.4548 3.01387C24.9706 3.01387 25.4127 2.59733 25.4127 2.05828C25.4127 1.51923 24.9951 1.1272 24.4548 1.1272Z" fill-opacity="0.8"/>
        <path d="M27.8687 2.89136C27.2301 2.89136 26.6898 3.40591 26.6898 4.06747C26.6898 4.70453 27.2056 5.24358 27.8687 5.24358C28.5073 5.24358 29.0476 4.72903 29.0476 4.06747C29.0476 3.40591 28.5073 2.89136 27.8687 2.89136Z" fill-opacity="0.8"/>
        <path d="M30.8895 5.7583C30.1282 5.7583 29.5142 6.37086 29.5142 7.13043C29.5142 7.89 30.1282 8.50256 30.8895 8.50256C31.6509 8.50256 32.2649 7.89 32.2649 7.13043C32.2649 6.37086 31.6509 5.7583 30.8895 5.7583Z" fill-opacity="0.8"/>
        <path d="M32.9281 9.45801C32.3387 9.45801 31.7984 9.75204 31.5036 10.2421C31.2089 10.7321 31.2089 11.3692 31.5036 11.8592C31.7984 12.3493 32.3387 12.6678 32.9281 12.6433C33.8123 12.6188 34.5 11.9082 34.5 11.0507C34.5 10.1686 33.8123 9.45801 32.9281 9.45801Z" fill-opacity="0.8"/>
        <path d="M25.56 18.4504C25.2898 18.4504 25.0442 18.5729 24.9214 18.7935C24.7986 19.014 24.7986 19.308 24.9214 19.5285C25.0442 19.7491 25.2898 19.8961 25.56 19.8716C25.953 19.8471 26.2477 19.5285 26.2477 19.161C26.2722 18.7935 25.953 18.4749 25.56 18.4504Z" fill-opacity="0.8"/>
        <path d="M23.7672 21.1213C23.497 21.1213 23.2514 21.2438 23.1286 21.4644C23.0058 21.6849 23.0058 21.9789 23.1286 22.1994C23.2514 22.42 23.5216 22.567 23.7672 22.5425C24.1601 22.518 24.4548 22.1994 24.4548 21.8319C24.4548 21.4644 24.1601 21.1458 23.7672 21.1213Z" fill-opacity="0.8"/>
        <path d="M21.0902 22.8364C20.82 22.8364 20.5499 22.9834 20.4025 23.2285C20.2552 23.4735 20.2552 23.7675 20.4025 24.0125C20.5499 24.2576 20.7955 24.4046 21.0902 24.4046C21.5323 24.4046 21.8761 24.0615 21.8761 23.6205C21.8761 23.1795 21.5323 22.8364 21.0902 22.8364Z" fill-opacity="0.8"/>
        <path d="M17.9465 23.3018C17.357 23.3018 16.8904 23.7673 16.8904 24.3554C16.8904 24.9434 17.357 25.409 17.9465 25.409C18.5359 25.409 19.0025 24.9434 19.0025 24.3554C18.978 23.7673 18.5113 23.3018 17.9465 23.3018Z" fill-opacity="0.8"/>
        <path d="M14.7783 22.6648C14.1152 22.6648 13.5748 23.2038 13.5748 23.8654C13.5748 24.527 14.1152 25.066 14.7783 25.066C15.4414 25.066 15.9817 24.527 15.9817 23.8654C15.9817 23.2038 15.4414 22.6648 14.7783 22.6648Z" fill-opacity="0.8"/>
        <path d="M11.9293 20.6555C11.1925 20.6555 10.603 21.2436 10.603 21.9786C10.603 22.7137 11.1925 23.3018 11.9293 23.3018C12.6661 23.3018 13.2555 22.7137 13.2555 21.9786C13.2555 21.2436 12.6661 20.6555 11.9293 20.6555Z" fill-opacity="0.8"/>
        <path d="M10.0382 17.9604C9.42418 17.9604 8.93298 18.4505 8.93298 19.0631C8.93298 19.6756 9.42418 20.1657 10.0382 20.1657C10.6522 20.1657 11.1434 19.6756 11.1434 19.0631C11.1679 18.475 10.6522 17.9604 10.0382 17.9604Z" fill-opacity="0.8"/>
        <path d="M9.59605 15.02C9.12941 15.02 8.73645 15.4121 8.73645 15.8776C8.73645 16.3431 9.12941 16.7352 9.59605 16.7352C10.0627 16.7352 10.4557 16.3431 10.4557 15.8776C10.4557 15.3876 10.0873 15.02 9.59605 15.02Z" fill-opacity="0.8"/>
        <path d="M10.3574 12.1289C9.96442 12.1289 9.64514 12.4474 9.64514 12.8395C9.64514 13.2315 9.96442 13.55 10.3574 13.55C10.7503 13.55 11.0696 13.2315 11.0696 12.8395C11.0942 12.4474 10.7503 12.1289 10.3574 12.1289Z" fill-opacity="0.8"/>
        <path d="M12.1749 9.48267C11.9047 9.48267 11.6591 9.60518 11.5363 9.8257C11.4135 10.0462 11.4135 10.3402 11.5363 10.5608C11.6591 10.7813 11.9293 10.9283 12.1749 10.9038C12.5678 10.9038 12.8871 10.5853 12.8871 10.1932C12.8626 9.8012 12.5433 9.48267 12.1749 9.48267Z" fill-opacity="0.8"/>
        <path d="M14.8273 7.62036C14.3852 7.62036 14.0414 7.96339 14.0414 8.40443C14.0414 8.84548 14.3852 9.18851 14.8273 9.18851C15.2694 9.18851 15.6132 8.84548 15.6132 8.40443C15.6132 7.9879 15.2694 7.62036 14.8273 7.62036Z" fill-opacity="0.8"/>
        <path d="M19.0461 7.6972C19.0685 7.11572 18.6141 6.62623 18.0313 6.6039C17.4484 6.58157 16.9578 7.03485 16.9354 7.61633C16.913 8.19781 17.3674 8.68729 17.9502 8.70962C18.5331 8.73195 19.0237 8.27867 19.0461 7.6972Z" fill-opacity="0.8"/>
        <path d="M21.1392 6.95898C20.4761 6.95898 19.9358 7.49803 19.9358 8.1596C19.9358 8.82116 20.4761 9.36021 21.1392 9.36021C21.8024 9.36021 22.3427 8.82116 22.3427 8.1596C22.3427 7.49803 21.8024 6.95898 21.1392 6.95898Z" fill-opacity="0.8"/>
        <path d="M23.9882 8.7229C23.2514 8.7229 22.662 9.31096 22.662 10.046C22.662 10.7811 23.2514 11.3691 23.9882 11.3691C24.725 11.3691 25.3145 10.7811 25.3145 10.046C25.3145 9.31096 24.725 8.7229 23.9882 8.7229Z" fill-opacity="0.8"/>
        <path d="M25.8794 11.8347C25.2654 11.8347 24.7742 12.3248 24.7742 12.9373C24.7742 13.5499 25.2654 14.0399 25.8794 14.0399C26.4934 14.0399 26.9846 13.5499 26.9846 12.9373C26.9846 12.3248 26.4934 11.8347 25.8794 11.8347Z" fill-opacity="0.8"/>
        <path d="M22.9812 18.0338C23.3475 18.0338 23.6444 17.7376 23.6444 17.3723C23.6444 17.0069 23.3475 16.7107 22.9812 16.7107C22.615 16.7107 22.3181 17.0069 22.3181 17.3723C22.3181 17.7376 22.615 18.0338 22.9812 18.0338Z" fill-opacity="0.8"/>
        <path d="M21.6795 18.7688C21.1392 18.7688 20.6971 19.2098 20.6971 19.7489C20.6971 20.2879 21.1392 20.729 21.6795 20.729C22.2199 20.729 22.6619 20.2879 22.6619 19.7489C22.6865 19.2098 22.2444 18.7688 21.6795 18.7688Z" fill-opacity="0.8"/>
        <path d="M19.1499 20.092C18.585 20.092 18.1184 20.5576 18.1184 21.1211C18.1184 21.6847 18.585 22.1502 19.1499 22.1502C19.7148 22.1502 20.1815 21.6847 20.1815 21.1211C20.1815 20.5576 19.7148 20.092 19.1499 20.092Z" fill-opacity="0.8"/>
        <path d="M16.1535 20.0186C15.8342 20.0186 15.5149 20.1901 15.3676 20.4841C15.1957 20.7781 15.1957 21.1212 15.3676 21.3907C15.5395 21.6847 15.8342 21.8562 16.1535 21.8562C16.6693 21.8562 17.0622 21.4397 17.0622 20.9496C17.0868 20.4351 16.6693 20.0186 16.1535 20.0186Z" fill-opacity="0.8"/>
        <path d="M13.9432 18.5239C13.5748 18.5239 13.28 18.818 13.28 19.1855C13.28 19.553 13.5748 19.8471 13.9432 19.8471C14.3116 19.8471 14.6063 19.553 14.6063 19.1855C14.6308 18.8425 14.3116 18.5239 13.9432 18.5239Z" fill-opacity="0.8"/>
        <path d="M13.0589 16.5884C12.7888 16.5884 12.5677 16.8089 12.5677 17.0784C12.5677 17.348 12.7888 17.5685 13.0589 17.5685C13.3291 17.5685 13.5502 17.348 13.5502 17.0784C13.5502 16.8089 13.3291 16.5884 13.0589 16.5884Z" fill-opacity="0.8"/>
        <path d="M13.0099 14.0647C12.6415 14.0647 12.3468 14.3587 12.3468 14.7263C12.3468 15.0938 12.6415 15.3878 13.0099 15.3878C13.3783 15.3878 13.673 15.0938 13.673 14.7263C13.673 14.3587 13.3783 14.0647 13.0099 14.0647Z" fill-opacity="0.8"/>
        <path d="M14.3116 11.3447C13.7713 11.3447 13.3292 11.7858 13.3292 12.3248C13.3292 12.8639 13.7713 13.3049 14.3116 13.3049C14.8519 13.3049 15.294 12.8639 15.294 12.3248C15.294 11.7858 14.8519 11.3447 14.3116 11.3447Z" fill-opacity="0.8"/>
        <path d="M16.8413 9.92358C16.2765 9.92358 15.8098 10.3891 15.8098 10.9527C15.8098 11.5162 16.2765 11.9818 16.8413 11.9818C17.4062 11.9818 17.8729 11.5162 17.8729 10.9527C17.8729 10.3891 17.4062 9.92358 16.8413 9.92358Z" fill-opacity="0.8"/>
        <path d="M19.8376 10.2422C19.4938 10.2422 19.1991 10.4137 19.0271 10.6832C18.8552 10.9773 18.8552 11.3203 19.0271 11.6143C19.1991 11.9083 19.5183 12.0799 19.8376 12.0554C20.3288 12.0309 20.7218 11.6388 20.7218 11.1488C20.7218 10.6587 20.3288 10.2667 19.8376 10.2422Z" fill-opacity="0.8"/>
        <path d="M22.0235 12.2024C21.6551 12.2024 21.3604 12.4964 21.3604 12.864C21.3604 13.2315 21.6551 13.5255 22.0235 13.5255C22.3919 13.5255 22.6866 13.2315 22.6866 12.864C22.7112 12.4964 22.4164 12.2024 22.0235 12.2024Z" fill-opacity="0.8"/>
        <path d="M22.9567 14.53C22.6865 14.53 22.4655 14.7505 22.4655 15.0201C22.4655 15.2896 22.6865 15.5101 22.9567 15.5101C23.2268 15.5101 23.4479 15.2896 23.4479 15.0201C23.4479 14.7505 23.2268 14.53 22.9567 14.53Z" fill-opacity="0.8"/>
        <path d="M26.3214 15.2898C25.8548 15.2898 25.4618 15.6818 25.4618 16.1474C25.4618 16.6129 25.8548 17.005 26.3214 17.005C26.788 17.005 27.181 16.6129 27.181 16.1474C27.181 15.6818 26.788 15.2898 26.3214 15.2898Z" fill-opacity="0.8"/>
        <path d="M29.8826 16.3433C29.3668 16.3433 28.9739 16.7598 28.9739 17.2498C28.9739 17.7644 29.3914 18.1564 29.8826 18.1564C30.3984 18.1564 30.7913 17.7399 30.7913 17.2498C30.7913 16.7598 30.3984 16.3433 29.8826 16.3433Z" fill-opacity="0.8"/>
        <path d="M28.9739 19.553C28.5072 19.553 28.1143 19.945 28.1143 20.4106C28.1143 20.8761 28.5072 21.2681 28.9739 21.2681C29.4405 21.2681 29.8335 20.8761 29.8335 20.4106C29.8335 19.945 29.4651 19.553 28.9739 19.553Z" fill-opacity="0.8"/>
        <path d="M27.4266 22.2483C27.0337 22.2483 26.6898 22.5668 26.6898 22.9834C26.6898 23.3754 27.0091 23.7184 27.4266 23.7184C27.8196 23.7184 28.1389 23.3754 28.1389 22.9834C28.1389 22.5913 27.8196 22.2728 27.4266 22.2483Z" fill-opacity="0.8"/>
        <path d="M25.5601 24.2576C25.339 24.2576 25.118 24.3801 24.9952 24.5761C24.8724 24.7721 24.8724 25.0171 24.9952 25.2132C25.118 25.4092 25.3145 25.5317 25.5601 25.5317C25.9039 25.5317 26.1986 25.2622 26.1986 24.8946C26.1986 24.5516 25.9039 24.2576 25.5601 24.2576Z" fill-opacity="0.8"/>
        <path d="M23.5953 25.7275C23.3005 25.7275 23.0549 25.9726 23.0549 26.2666C23.0549 26.5606 23.3005 26.8056 23.5953 26.8056C23.89 26.8056 24.1356 26.5606 24.1356 26.2666C24.1356 25.9726 23.89 25.7275 23.5953 25.7275Z" fill-opacity="0.8"/>
        <path d="M21.3604 26.5608C21.0165 26.5608 20.7218 26.8303 20.7218 27.1979C20.7218 27.5409 20.992 27.8349 21.3604 27.8349C21.7042 27.8349 21.9989 27.5654 21.9989 27.1979C21.9744 26.8303 21.7042 26.5608 21.3604 26.5608Z" fill-opacity="0.8"/>
        <path d="M18.7324 26.9771C18.3394 26.9771 17.9956 27.2956 17.9956 27.7121C17.9956 28.1042 18.3149 28.4472 18.7324 28.4472C19.1254 28.4472 19.4692 28.1287 19.4692 27.7121C19.4446 27.2956 19.1254 26.9771 18.7324 26.9771Z" fill-opacity="0.8"/>
        <path d="M15.736 26.6833C15.2203 26.6833 14.8027 27.0999 14.8027 27.6144C14.8027 28.129 15.2203 28.5455 15.736 28.5455C16.2518 28.5455 16.6693 28.129 16.6693 27.6144C16.6693 27.0999 16.2518 26.6833 15.736 26.6833Z" fill-opacity="0.8"/>
        <path d="M12.5677 25.5562C11.9537 25.5562 11.4625 26.0462 11.4625 26.6588C11.4625 27.2713 11.9537 27.7614 12.5677 27.7614C13.1817 27.7614 13.6729 27.2713 13.6729 26.6588C13.6975 26.0462 13.1817 25.5562 12.5677 25.5562Z" fill-opacity="0.8"/>
        <path d="M9.7925 23.449C9.32586 23.449 8.88378 23.694 8.63818 24.086C8.39258 24.5026 8.39258 24.9926 8.63818 25.4092C8.88378 25.8257 9.32586 26.0707 9.7925 26.0462C10.5047 26.0217 11.0696 25.4582 11.0696 24.7476C11.0696 24.0615 10.5047 23.4735 9.7925 23.449Z" fill-opacity="0.8"/>
        <path d="M7.45927 20.3127C6.67335 20.3127 6.03479 20.9498 6.03479 21.7339C6.03479 22.5179 6.67335 23.155 7.45927 23.155C8.24519 23.155 8.88376 22.5179 8.88376 21.7339C8.88376 20.9253 8.24519 20.3127 7.45927 20.3127Z" fill-opacity="0.8"/>
        <path d="M7.27012 18.2242C7.31435 17.6033 6.84566 17.0642 6.22327 17.02C5.60088 16.9759 5.06047 17.4435 5.01624 18.0644C4.97201 18.6854 5.4407 19.2245 6.06309 19.2686C6.68549 19.3127 7.22589 18.8452 7.27012 18.2242Z" fill-opacity="0.8"/>
        <path d="M6.98057 14.8056C7.00832 14.3057 6.62458 13.878 6.12346 13.8503C5.62234 13.8226 5.19361 14.2054 5.16585 14.7054C5.1381 15.2053 5.52184 15.633 6.02296 15.6607C6.52408 15.6884 6.95282 15.3056 6.98057 14.8056Z" fill-opacity="0.8"/>
        <path d="M6.99266 10.7322C6.52602 10.7322 6.13306 11.1242 6.13306 11.5898C6.13306 12.0553 6.52602 12.4473 6.99266 12.4473C7.4593 12.4473 7.85226 12.0553 7.85226 11.5898C7.85226 11.1242 7.4593 10.7322 6.99266 10.7322Z" fill-opacity="0.8"/>
        <path d="M8.53999 8.30664C8.26983 8.30664 8.02423 8.42915 7.90143 8.67418C7.77863 8.8947 7.77863 9.18872 7.90143 9.40924C8.02423 9.62976 8.29439 9.77678 8.53999 9.77678C8.93295 9.77678 9.25223 9.43375 9.25223 9.04171C9.25223 8.62517 8.93295 8.30664 8.53999 8.30664Z" fill-opacity="0.8"/>
        <path d="M10.4065 6.49341C10.0627 6.49341 9.76794 6.76293 9.76794 7.13047C9.76794 7.4735 10.0381 7.76753 10.4065 7.76753C10.7749 7.76753 11.0451 7.498 11.0451 7.13047C11.0451 6.78744 10.7503 6.49341 10.4065 6.49341Z" fill-opacity="0.8"/>
        <path d="M12.3713 5.21924C12.0765 5.21924 11.8309 5.46426 11.8309 5.75829C11.8309 6.05232 12.0765 6.29734 12.3713 6.29734C12.666 6.29734 12.9116 6.05232 12.9116 5.75829C12.9116 5.43976 12.666 5.21924 12.3713 5.21924Z" fill-opacity="0.8"/>
        <path d="M14.6063 4.2146C14.2625 4.2146 13.9678 4.48412 13.9678 4.85166C13.9678 5.19469 14.2379 5.48872 14.6063 5.48872C14.9502 5.48872 15.2449 5.21919 15.2449 4.85166C15.2449 4.48412 14.9502 4.2146 14.6063 4.2146Z" fill-opacity="0.8"/>
        <path d="M17.2342 3.57739C16.964 3.57739 16.7184 3.6999 16.5956 3.94493C16.4728 4.16545 16.4728 4.45948 16.5956 4.68C16.7184 4.90052 16.9886 5.04753 17.2342 5.04753C17.6272 5.04753 17.9464 4.7045 17.9464 4.31246C17.9464 3.92042 17.6272 3.60189 17.2342 3.57739Z" fill-opacity="0.8"/>
        <path d="M20.2306 3.45483C19.8867 3.45483 19.5675 3.62635 19.3955 3.92038C19.2236 4.21441 19.2236 4.58194 19.3955 4.87597C19.5675 5.16999 19.8867 5.34151 20.2306 5.34151C20.7463 5.34151 21.1639 4.90047 21.1639 4.38592C21.1639 3.87137 20.7463 3.45483 20.2306 3.45483Z" fill-opacity="0.8"/>
        <path d="M23.3005 4.16553C22.6865 4.16553 22.1708 4.65557 22.1708 5.29263C22.1708 5.90519 22.662 6.41974 23.3005 6.41974C23.9145 6.41974 24.4303 5.92969 24.4303 5.29263C24.4303 4.68008 23.9145 4.16553 23.3005 4.16553Z" fill-opacity="0.8"/>
        <path d="M26.1987 5.92969C25.4619 5.92969 24.897 6.51774 24.897 7.22831C24.897 7.93888 25.4864 8.52693 26.1987 8.52693C26.9355 8.52693 27.5003 7.93888 27.5003 7.22831C27.5003 6.51774 26.9109 5.92969 26.1987 5.92969Z" fill-opacity="0.8"/>
        <path d="M28.5073 8.87012C27.9915 8.87012 27.5249 9.13964 27.2547 9.58068C26.9846 10.0217 26.9846 10.5608 27.2547 11.0018C27.5249 11.4429 27.9915 11.7124 28.5073 11.7124C29.2932 11.6879 29.9072 11.0753 29.9072 10.2913C29.8827 9.53168 29.2687 8.89462 28.5073 8.87012Z" fill-opacity="0.8"/>
        <path d="M29.809 12.7659C29.416 12.7659 29.023 12.9619 28.8266 13.3049C28.6301 13.648 28.6301 14.089 28.8266 14.432C29.023 14.7751 29.416 14.9956 29.809 14.9711C30.423 14.9466 30.8896 14.4565 30.8896 13.8685C30.8896 13.2804 30.423 12.7904 29.809 12.7659Z" fill-opacity="0.8"/>
        <path d="M35.5315 16.0004C35.5315 17.0295 34.6964 17.8625 33.6649 17.8625C32.6334 17.8625 31.7983 17.0295 31.7983 16.0004C31.7983 14.9713 32.6334 14.1382 33.6649 14.1382C34.6964 14.1627 35.5315 14.9958 35.5315 16.0004Z" fill-opacity="0.8"/>
        <path d="M127.435 18.8669C127.435 17.1027 126.428 16.1716 124.856 15.5346C123.628 15.0445 122.548 14.628 121.713 14.2849C120.902 13.9664 120.19 13.4029 120.19 12.7903C120.19 11.9572 121.222 11.4672 122.597 11.4672C124.218 11.4672 125.495 11.6877 126.698 11.8102H126.748C126.944 11.8102 127.067 11.6632 127.067 11.4672V10.095C127.067 9.92353 126.919 9.77651 126.723 9.75201C126.084 9.605 124.463 9.26196 122.695 9.26196C119.257 9.26196 117.611 10.7321 117.611 12.7903C117.611 14.0889 118.176 15.363 119.797 16.0246C121.418 16.6862 124.734 17.4702 124.734 18.8424C124.734 19.9205 124.242 20.5085 122.572 20.5085C120.853 20.5085 119.109 20.2635 118.373 20.1655H118.323C118.127 20.1655 117.98 20.3125 117.98 20.5085V21.8316C117.98 22.0277 118.152 22.1747 118.323 22.1992C119.208 22.3952 120.878 22.6892 122.523 22.6892C126.281 22.7382 127.435 20.729 127.435 18.8669Z" fill-opacity="0.8"/>
        <path d="M91.0863 11.5654H87.3777V22.1994C87.3777 22.3954 87.2058 22.5669 87.0093 22.5669H85.1673C84.9708 22.5669 84.7989 22.3954 84.7989 22.1994V11.5654H81.0903C80.8938 11.5654 80.7219 11.4429 80.7219 11.2223V9.75221C80.7219 9.55619 80.8938 9.40918 81.0903 9.40918H91.0863C91.2827 9.40918 91.4547 9.55619 91.4547 9.75221V11.2223C91.4547 11.4429 91.2827 11.5654 91.0863 11.5654Z" fill-opacity="0.8"/>
        <path d="M79.101 17.4949V9.77663C79.101 9.58061 78.9291 9.43359 78.7326 9.43359H76.8906C76.6941 9.43359 76.5222 9.58061 76.5222 9.77663V17.4703C76.5222 19.5775 75.5398 20.5821 73.5505 20.5821C71.5611 20.5821 70.5787 19.5775 70.5787 17.4703V9.77663C70.5787 9.58061 70.4068 9.43359 70.2103 9.43359H68.3683C68.1718 9.43359 67.9999 9.58061 67.9999 9.77663V17.4703C67.9999 21.4152 70.5787 22.7138 73.5505 22.7138C76.5222 22.7138 79.101 21.4397 79.101 17.4949Z" fill-opacity="0.8"/>
        <path d="M95.7282 16.8578H101.672C101.868 16.8578 102.04 16.6863 102.04 16.4903V15.1427C102.04 14.9467 101.868 14.7751 101.672 14.7751H95.7282V13.0845C95.7282 11.5408 95.7773 11.4918 97.2018 11.4918H101.893C102.089 11.4918 102.261 11.3203 102.261 11.1243V9.94819C102.261 9.67866 102.163 9.60515 101.893 9.55615C101.303 9.45814 100.1 9.28663 97.8895 9.28663C94.8195 9.28663 93.174 9.26212 93.174 13.0845V18.9405C93.174 22.7629 94.8195 22.7384 97.8895 22.7384C100.1 22.7384 101.303 22.5669 101.893 22.4689C102.163 22.4444 102.261 22.3463 102.261 22.0768V20.9007C102.261 20.7047 102.089 20.5332 101.893 20.5332H97.2018C95.8019 20.5332 95.7282 20.4842 95.7282 18.9405V16.8578Z" fill-opacity="0.8"/>
        <path d="M59.06 16.8578H65.0035C65.2 16.8578 65.3719 16.6863 65.3719 16.4903V15.1427C65.3719 14.9467 65.2 14.7751 65.0035 14.7751H59.06V13.0845C59.06 11.5408 59.1091 11.4918 60.5336 11.4918H65.2246C65.421 11.4918 65.593 11.3203 65.593 11.1243V9.94819C65.593 9.67866 65.4947 9.60515 65.2246 9.55615C64.6351 9.45814 63.4317 9.28663 61.2213 9.28663C58.1513 9.28663 56.5057 9.26212 56.5057 13.0845V18.9405C56.5057 22.7629 58.1513 22.7384 61.2213 22.7384C63.4317 22.7384 64.6351 22.5669 65.2246 22.4689C65.4947 22.4444 65.593 22.3463 65.593 22.0768V20.9007C65.593 20.7047 65.421 20.5332 65.2246 20.5332H60.5336C59.1337 20.5332 59.06 20.4842 59.06 18.9405V16.8578Z" fill-opacity="0.8"/>
        <path d="M116.064 22.1993L113.166 17.2499C114.688 16.6618 115.671 15.5837 115.671 13.6235V13.4765C115.671 10.3157 113.043 9.28662 110.169 9.28662C108.819 9.28662 106.731 9.38463 105.773 9.53164C105.405 9.58065 105.184 9.72766 105.184 10.0952V22.2238C105.184 22.4199 105.356 22.5914 105.552 22.5914H107.419C107.615 22.5914 107.763 22.4199 107.763 22.2238V17.6419C108.18 17.6664 109.678 17.7154 110.169 17.7154H110.587L113.264 22.1993C113.362 22.3708 113.436 22.5669 113.632 22.5669H115.892C116.039 22.5669 116.113 22.4689 116.113 22.3463C116.113 22.2973 116.088 22.2483 116.064 22.1993ZM113.092 13.6235C113.092 15.2407 112.061 15.6082 110.145 15.6082C109.826 15.6082 108.033 15.5592 107.738 15.5592V11.5653C108.057 11.5163 109.752 11.4918 110.145 11.4918C112.011 11.4918 113.092 12.0799 113.092 13.4765V13.6235Z" fill-opacity="0.8"/>
        <path d="M54.4918 22.1993L51.5692 17.2499C53.0919 16.6618 54.0743 15.5837 54.0743 13.6235V13.4765C54.0743 10.3157 51.4464 9.28662 48.5728 9.28662C47.222 9.28662 45.1344 9.38463 44.1766 9.53164C43.8082 9.58065 43.5872 9.72766 43.5872 10.0952V22.2238C43.5872 22.4199 43.7591 22.5914 43.9556 22.5914H45.8221C46.0186 22.5914 46.166 22.4199 46.166 22.2238V17.6419C46.5835 17.6664 48.0816 17.7154 48.5728 17.7154H48.9904L51.6674 22.1993C51.7657 22.3708 51.8393 22.5669 52.0358 22.5669H54.2953C54.4427 22.5669 54.5164 22.4689 54.5164 22.3463C54.5164 22.2973 54.5164 22.2483 54.4918 22.1993ZM51.5201 13.6235C51.5201 15.2407 50.4885 15.6082 48.5974 15.6082C48.2781 15.6082 46.4852 15.5592 46.1905 15.5592V11.5653C46.5098 11.5163 48.2044 11.4918 48.5974 11.4918C50.464 11.4918 51.5201 12.0799 51.5201 13.4765V13.6235Z" fill-opacity="0.8"/>
    </g>
    <defs>
        <clipPath id="hclip0_2015_394">
            <rect width="127" height="32" transform="translate(0.435059)"/>
        </clipPath>
    </defs>
</symbol><symbol viewBox="0 0 190 32" id="brand_verge" xmlns="http://www.w3.org/2000/svg">
    <path d="M156.417 31.828C150.908 30.8619 146.337 27.1838 144.266 22.0507C143.198 19.4066 142.837 14.8744 143.476 12.1544C144.387 8.28125 146.838 4.73914 150.024 2.68708C152.854 0.867026 155.092 0.352011 161.011 0.167005L166.313 0V11.1373L164.274 10.3033C162.934 9.75629 161.395 9.42328 159.787 9.33328C157.503 9.20528 157.238 9.26228 155.806 10.1873C153.753 11.5133 152.807 13.3404 152.787 16.0125C152.775 17.7445 152.913 18.2295 153.764 19.4456C155.087 21.3326 156.888 22.3297 158.972 22.3297C161.137 22.3307 161.487 22.0637 161.36 20.5076L161.256 19.2316L158.727 19.2476L156.199 19.2646V12.0304L163.05 12.1244L169.902 12.2194V18.8666C169.902 22.9067 170.046 25.9248 170.266 26.5608C170.723 27.8768 170.295 28.4109 167.645 29.8269C164.452 31.534 159.637 32.393 156.417 31.828ZM6.31452 30.6049C6.46599 30.2899 6.6364 25.2668 6.6932 19.4436L6.79385 8.85527L3.83218 8.97027L0.869507 9.08527L0.959194 4.66714L1.04988 0.249008L8.63643 0.160005L16.222 0.0720022V31.1769H11.1297C6.39225 31.1769 6.05742 31.1379 6.31452 30.6049ZM18.1792 15.6305V0.0850026H31.5565V9.14028L29.7628 8.99027L27.968 8.84127V12.1954H33.5147V0.0850026H43.3036V31.1779H32.8779L33.1968 30.3379C33.3722 29.8759 33.5157 27.2988 33.5157 24.6107V19.7226H27.9371L28.0368 24.8778C28.0906 27.7118 28.26 30.2899 28.4125 30.6049C28.6716 31.1379 28.3288 31.1779 23.4348 31.1779H18.1792V15.6305ZM44.6499 30.6359C45.3305 29.8139 45.4869 3.3701 44.8232 1.43704L44.3579 0.0850026H63.2062V9.15328L61.4931 8.70326C60.5265 8.44925 58.6431 8.29125 57.1702 8.34125L54.5593 8.43125L54.4606 10.3543L54.361 12.2784L57.1523 12.1324L59.9435 11.9854V19.6436L58.4996 19.3336C57.7063 19.1636 56.4946 19.0716 55.8079 19.1286L54.5603 19.2316L54.4606 20.9856L54.36 22.7397L58.0491 22.5777C60.0781 22.4897 62.0681 22.3077 62.4727 22.1767L63.2062 21.9367V31.1769H53.7053C44.906 31.1769 44.2363 31.1369 44.6508 30.6369L44.6499 30.6359ZM81.6967 30.1129C77.1824 19.2776 69.4125 1.71705 68.8216 1.01203L68.0423 0.0840025H79.0021C85.0301 0.0840025 89.9619 0.194006 89.9609 0.33001C89.9609 0.464014 89.3201 2.26907 88.5378 4.33913L87.1188 8.10324L84.6255 8.19925C83.2552 8.25125 82.1332 8.35025 82.1332 8.41825C82.1332 8.72826 85.1895 16.9695 85.3888 17.1965C85.5124 17.3375 87.054 13.5464 88.8149 8.76926L92.0147 0.0850026H117.37V4.86515C117.37 9.30128 117.33 9.62729 116.799 9.38228C116.485 9.23728 114.503 9.06227 112.395 8.99327L108.561 8.86727V12.2774L111.334 12.1314L114.108 11.9854V19.6436L112.664 19.3336C111.87 19.1636 110.659 19.0716 109.973 19.1286L108.724 19.2316L108.627 21.1136L108.528 22.9957H111.44C113.194 22.9957 114.903 22.7997 115.739 22.5047C116.502 22.2347 117.182 22.0137 117.249 22.0137C117.315 22.0137 117.37 24.0757 117.37 26.5958V31.1779H107.868C100.085 31.1779 98.4303 31.0999 98.7203 30.7499C99.109 30.2799 99.4279 7.61223 99.0452 7.61223C98.9256 7.61223 96.5808 12.9144 93.8334 19.3956L88.8368 31.1779H82.1401L81.6977 30.1139L81.6967 30.1129ZM118.314 0.00700021L124.292 0.0170005C133.068 0.0210006 135.971 0.67402 138.523 3.2411C141.658 6.39519 142.083 12.4714 139.419 16.1045L138.624 17.1825L140.022 18.2606C142.129 19.8786 143.454 22.6547 144.194 27.0178C144.53 28.9979 144.878 30.7549 144.98 30.9179C145.087 31.0929 142.847 31.2169 139.583 31.2169H134.002L134.381 30.5179C134.965 29.4179 134.566 26.8058 133.584 25.3128C132.715 23.9897 130.918 22.6007 129.545 22.1927C128.811 21.9737 128.81 21.9807 128.81 25.9598C128.81 28.1518 128.961 30.2299 129.147 30.5799C129.476 31.1969 129.315 31.2169 123.884 31.2169C118.665 31.2169 118.307 31.1769 118.568 30.6419C118.926 29.9079 118.935 1.73305 118.578 0.746022L118.314 0.00600018V0.00700021ZM129.525 8.23025C128.833 8.18725 128.81 8.91827 128.81 11.1763V14.1334H129.81C130.486 14.1334 131.128 13.8234 131.769 13.1784C133.28 11.6584 132.887 9.52029 130.942 8.70226C130.294 8.42925 129.839 8.25025 129.525 8.23025ZM171.127 30.6459C171.486 29.9099 171.496 1.73505 171.139 0.745022L170.87 0L180.279 0.0870026L189.687 0.175005L189.778 4.71714L189.87 9.25928L189.125 9.01927C187.316 8.43525 185.928 8.23925 183.566 8.23125L181.036 8.22425V12.2484L183.812 12.1024L186.586 11.9554V15.8745C186.586 19.4726 186.539 19.7746 186.015 19.5696C185.7 19.4466 184.467 19.2636 183.275 19.1616L181.105 18.9766L180.989 20.7056C180.909 21.9137 181.001 22.4847 181.299 22.5997C181.853 22.8137 188.16 22.4697 189.115 22.1737L189.851 21.9467V31.2209H180.349C171.41 31.2209 170.864 31.1859 171.127 30.6459Z" fill-opacity="0.8"/>
</symbol></svg>