<svg width="136" height="25" viewBox="0 0 136 25" fill="none" xmlns="http://www.w3.org/2000/svg">
<path d="M35.5974 10.5721H31.1437C31.1122 10.2094 31.0279 9.88029 30.8911 9.58489C30.7594 9.28949 30.5752 9.03555 30.3383 8.82307C30.1067 8.60541 29.825 8.43957 29.4934 8.32556C29.1617 8.20636 28.7853 8.14676 28.3642 8.14676C27.6272 8.14676 27.0034 8.32297 26.4927 8.67537C25.9873 9.02778 25.603 9.53306 25.3398 10.1912C25.0819 10.8494 24.9529 11.6397 24.9529 12.5622C24.9529 13.5365 25.0845 14.3527 25.3477 15.0109C25.6162 15.6639 26.0031 16.1562 26.5085 16.4879C27.0139 16.8144 27.6219 16.9776 28.3326 16.9776C28.7379 16.9776 29.1012 16.9284 29.4223 16.8299C29.7434 16.7263 30.0224 16.5786 30.2593 16.3868C30.4962 16.1951 30.6884 15.9644 30.8358 15.695C30.9884 15.4203 31.0911 15.1119 31.1437 14.7699L35.5974 14.801C35.5447 15.4747 35.3526 16.1614 35.0209 16.861C34.6893 17.5555 34.2181 18.1981 33.6074 18.7889C33.002 19.3745 32.2519 19.8461 31.3569 20.2037C30.462 20.5613 29.4223 20.74 28.2378 20.74C26.7533 20.74 25.4214 20.4265 24.2422 19.7994C23.0683 19.1724 22.1391 18.2499 21.4548 17.032C20.7757 15.8142 20.4361 14.3242 20.4361 12.5622C20.4361 10.7898 20.7836 9.29726 21.4784 8.08458C22.1733 6.86671 23.1104 5.94683 24.2896 5.32494C25.4688 4.69786 26.7849 4.38433 28.2378 4.38433C29.2591 4.38433 30.1988 4.52166 31.0569 4.79633C31.915 5.071 32.6678 5.47264 33.3153 6.00124C33.9628 6.52467 34.484 7.16988 34.8788 7.93688C35.2736 8.70388 35.5131 9.5823 35.5974 10.5721Z" fill="white"/>
<path d="M40.7428 4.60199V20.5224H36.8814V4.60199H40.7428Z" fill="white"/>
<path d="M45.8882 20.7478C45.1144 20.7478 44.4247 20.6157 43.8193 20.3514C43.2139 20.0819 42.7349 19.6854 42.3822 19.162C42.0347 18.6334 41.861 17.9752 41.861 17.1875C41.861 16.5241 41.9847 15.967 42.2321 15.5162C42.4796 15.0653 42.8165 14.7025 43.2429 14.4279C43.6693 14.1532 44.1536 13.9459 44.6959 13.806C45.2433 13.666 45.8172 13.5676 46.4173 13.5106C47.1227 13.438 47.6913 13.3706 48.1229 13.3085C48.5546 13.2411 48.8678 13.1426 49.0626 13.0131C49.2574 12.8835 49.3548 12.6917 49.3548 12.4378V12.3912C49.3548 11.8988 49.1968 11.5179 48.881 11.2484C48.5704 10.979 48.1282 10.8442 47.5544 10.8442C46.949 10.8442 46.4673 10.9764 46.1093 11.2407C45.7513 11.4998 45.5145 11.8263 45.3986 12.2201L42.2874 11.9714C42.4454 11.2459 42.7559 10.6188 43.2192 10.0902C43.6825 9.55638 44.28 9.14697 45.0117 8.86194C45.7487 8.57172 46.6015 8.42662 47.5702 8.42662C48.244 8.42662 48.8889 8.50435 49.5048 8.65982C50.126 8.8153 50.6761 9.05628 51.1552 9.38277C51.6395 9.70926 52.0212 10.129 52.3002 10.6421C52.5792 11.15 52.7187 11.7589 52.7187 12.4689V20.5224H49.5285V18.8666H49.4337C49.239 19.2397 48.9784 19.5688 48.652 19.8539C48.3256 20.1337 47.9334 20.354 47.4754 20.5146C47.0174 20.6701 46.4884 20.7478 45.8882 20.7478ZM46.8516 18.4624C47.3464 18.4624 47.7834 18.3665 48.1624 18.1748C48.5414 17.9778 48.8389 17.7135 49.0547 17.3818C49.2705 17.0502 49.3785 16.6744 49.3785 16.2547V14.9876C49.2732 15.0549 49.1284 15.1171 48.9442 15.1741C48.7652 15.226 48.5625 15.2752 48.3361 15.3218C48.1098 15.3633 47.8834 15.4022 47.657 15.4384C47.4307 15.4695 47.2254 15.498 47.0411 15.5239C46.6463 15.5809 46.3015 15.6716 46.0067 15.796C45.7119 15.9204 45.4829 16.0888 45.3197 16.3013C45.1565 16.5086 45.0749 16.7677 45.0749 17.0787C45.0749 17.5295 45.2407 17.8742 45.5724 18.1126C45.9093 18.3458 46.3357 18.4624 46.8516 18.4624Z" fill="white"/>
<path d="M54.5654 20.5224V8.58209H57.337V10.5721H57.4634C57.6845 9.88288 58.0635 9.35168 58.6005 8.97854C59.1427 8.60023 59.7612 8.41107 60.4561 8.41107C60.6141 8.41107 60.7904 8.41884 60.9852 8.43439C61.1852 8.44475 61.3511 8.46289 61.4827 8.4888V11.0774C61.3616 11.036 61.1694 10.9997 60.9062 10.9686C60.6483 10.9323 60.3982 10.9142 60.1561 10.9142C59.6349 10.9142 59.1664 11.0256 58.7505 11.2484C58.3399 11.4661 58.0161 11.7693 57.7792 12.158C57.5423 12.5466 57.4239 12.9949 57.4239 13.5028V20.5224H54.5654Z" fill="white"/>
<path d="M62.6108 20.5224V8.58209H64.9718V20.5224H62.6108ZM63.8031 6.73974C63.3925 6.73974 63.0398 6.60499 62.745 6.33551C62.4555 6.06084 62.3107 5.73435 62.3107 5.35603C62.3107 4.97253 62.4555 4.64604 62.745 4.37655C63.0398 4.10189 63.3925 3.96455 63.8031 3.96455C64.2138 3.96455 64.5638 4.10189 64.8534 4.37655C65.1482 4.64604 65.2956 4.97253 65.2956 5.35603C65.2956 5.73435 65.1482 6.06084 64.8534 6.33551C64.5638 6.60499 64.2138 6.73974 63.8031 6.73974Z" fill="white"/>
<path d="M72.9205 8.58209V10.4478H66.2953V8.58209H72.9205ZM68.0721 5.72139H70.4331V17.0165C70.4331 17.4674 70.5015 17.8068 70.6384 18.0348C70.7753 18.2577 70.9516 18.4106 71.1675 18.4935C71.3886 18.5712 71.6281 18.6101 71.8861 18.6101C72.0756 18.6101 72.2414 18.5971 72.3835 18.5712C72.5257 18.5453 72.6362 18.5246 72.7152 18.509L73.1416 20.4291C73.0047 20.4809 72.81 20.5328 72.5573 20.5846C72.3046 20.6416 71.9887 20.6727 71.6097 20.6779C70.9885 20.6882 70.4094 20.5794 69.8725 20.3514C69.3355 20.1233 68.9012 19.7709 68.5695 19.2942C68.2379 18.8174 68.0721 18.2188 68.0721 17.4984V5.72139Z" fill="white"/>
<path d="M76.1352 25C75.7825 25 75.4614 24.9715 75.1719 24.9145C74.8823 24.8627 74.6665 24.8057 74.5244 24.7435L75.0929 22.8389C75.5246 22.9529 75.9089 23.0022 76.2458 22.9866C76.5827 22.9711 76.8801 22.8467 77.1381 22.6135C77.4013 22.3803 77.6329 21.9994 77.833 21.4708L78.1252 20.6779L73.6873 8.58209H76.2142L79.2859 17.8483H79.4123L82.484 8.58209H85.0188L80.0203 22.116C79.7887 22.7379 79.4939 23.2639 79.1359 23.694C78.7779 24.1294 78.3515 24.4558 77.8567 24.6735C77.3618 24.8912 76.788 25 76.1352 25Z" fill="white"/>
<path d="M85.3612 8.08458V4.60199H99.4169V8.08458H94.5527V20.5224H90.2254V8.08458H85.3612Z" fill="white"/>
<path d="M106.031 20.7478C104.762 20.7478 103.667 20.5017 102.746 20.0093C101.83 19.5118 101.125 18.8044 100.63 17.8871C100.14 16.9647 99.8955 15.8686 99.8955 14.5989C99.8955 13.3655 100.143 12.2875 100.638 11.365C101.133 10.4374 101.83 9.71704 102.73 9.20398C103.631 8.68574 104.691 8.42662 105.913 8.42662C106.776 8.42662 107.566 8.55877 108.282 8.82307C108.998 9.08737 109.616 9.47865 110.137 9.99689C110.658 10.5151 111.064 11.1552 111.353 11.917C111.643 12.6736 111.788 13.5417 111.788 14.5211V15.4695H101.246V13.2618H108.195C108.189 12.8576 108.092 12.4974 107.903 12.1813C107.713 11.8652 107.452 11.619 107.121 11.4428C106.794 11.2614 106.418 11.1707 105.992 11.1707C105.56 11.1707 105.173 11.2666 104.831 11.4583C104.489 11.6449 104.218 11.9014 104.017 12.2279C103.817 12.5492 103.712 12.9146 103.702 13.324V15.5706C103.702 16.0577 103.799 16.4853 103.994 16.8532C104.189 17.216 104.465 17.4984 104.823 17.7006C105.181 17.9027 105.607 18.0037 106.102 18.0037C106.444 18.0037 106.755 17.9571 107.034 17.8638C107.313 17.7705 107.552 17.6332 107.753 17.4518C107.953 17.2704 108.103 17.0476 108.203 16.7833L111.748 16.8843C111.601 17.6669 111.277 18.3484 110.777 18.9288C110.282 19.504 109.632 19.9523 108.826 20.2736C108.021 20.5898 107.089 20.7478 106.031 20.7478Z" fill="white"/>
<path d="M118.469 20.7556C117.227 20.7556 116.158 20.4965 115.263 19.9782C114.373 19.4548 113.689 18.7293 113.21 17.8016C112.736 16.874 112.499 15.8064 112.499 14.5989C112.499 13.3758 112.739 12.3031 113.218 11.3806C113.702 10.4529 114.389 9.72999 115.279 9.21175C116.168 8.68833 117.227 8.42662 118.453 8.42662C119.511 8.42662 120.438 8.61577 121.233 8.99409C122.028 9.37241 122.657 9.90361 123.12 10.5877C123.583 11.2718 123.839 12.075 123.886 12.9975H120.712C120.622 12.4015 120.385 11.9222 120.001 11.5594C119.622 11.1914 119.124 11.0075 118.508 11.0075C117.987 11.0075 117.532 11.1474 117.142 11.4272C116.758 11.7019 116.458 12.1035 116.242 12.6322C116.026 13.1608 115.918 13.8008 115.918 14.5522C115.918 15.3141 116.024 15.9619 116.234 16.4956C116.45 17.0294 116.753 17.4363 117.142 17.7161C117.532 17.996 117.987 18.1359 118.508 18.1359C118.893 18.1359 119.238 18.0581 119.543 17.9027C119.853 17.7472 120.109 17.5218 120.309 17.2264C120.514 16.9258 120.648 16.5656 120.712 16.1458H123.886C123.833 17.0579 123.581 17.8612 123.128 18.5557C122.68 19.2449 122.062 19.7839 121.272 20.1726C120.483 20.5613 119.548 20.7556 118.469 20.7556Z" fill="white"/>
<path d="M128.135 13.5261V20.5224H125.277V4.60199H128.072V10.611H128.214C128.498 9.93729 128.938 9.40609 129.533 9.01741C130.133 8.62355 130.896 8.42662 131.823 8.42662C132.665 8.42662 133.399 8.60023 134.026 8.94745C134.652 9.29467 135.137 9.80255 135.479 10.4711C135.826 11.1396 136 11.9558 136 12.9198V20.5224H133.141V13.3551C133.141 12.5518 132.931 11.9273 132.51 11.4817C132.094 11.0308 131.51 10.8053 130.757 10.8053C130.251 10.8053 129.799 10.9142 129.399 11.1318C129.004 11.3443 128.693 11.6527 128.467 12.0569C128.246 12.4611 128.135 12.9509 128.135 13.5261Z" fill="white"/>
<path d="M3.47445 18.6064C4.40525 18.6064 5.32757 18.4267 6.18751 18.076C7.04727 17.7253 7.82858 17.2114 8.48663 16.5635C9.14467 15.9157 9.66679 15.1466 10.023 14.3002C10.3792 13.4536 10.5618 12.5457 10.5618 11.6294C10.5618 10.713 10.3792 9.80507 10.023 8.9585C9.66679 8.11213 9.14467 7.34297 8.48662 6.69516C7.82858 6.04735 7.04726 5.53336 6.18751 5.1827C5.32757 4.83205 4.40525 4.65228 3.47445 4.65228L3.47445 0C5.02578 -2.00278e-07 6.56208 0.3014 7.99532 0.885829C9.42841 1.47026 10.7312 2.32591 11.8281 3.4057C12.9249 4.4855 13.7941 5.76803 14.3878 7.17883C14.9814 8.58977 15.2876 10.1022 15.2876 11.6294C15.2876 13.1565 14.9814 14.6689 14.3878 16.0799C13.7941 17.4907 12.9249 18.7732 11.8281 19.853C10.7312 20.9328 9.42841 21.7885 7.99532 22.3729C6.56208 22.9573 5.02578 23.2587 3.47445 23.2587L3.47445 18.6064Z" fill="white"/>
<path d="M3.47445 15.0498C3.01818 15.0498 2.56593 14.9611 2.14439 14.7892C1.72303 14.6173 1.34043 14.3652 1.01791 14.0477C0.695388 13.7302 0.439259 13.3535 0.264656 12.9387C0.0900482 12.5237 1.25089e-07 12.0785 0 11.6294C-1.45033e-08 11.1802 0.0900479 10.735 0.264656 10.32C0.439259 9.90517 0.695387 9.52853 1.01791 9.21103C1.34043 8.89352 1.72303 8.64138 2.14439 8.46949C2.56593 8.2976 3.01818 8.20896 3.47445 8.20896L3.47445 15.0498Z" fill="white"/>
</svg>
