<?xml version="1.0" encoding="utf-8"?><svg viewBox="0 0 244 32" xmlns="http://www.w3.org/2000/svg" xmlns:xlink="http://www.w3.org/1999/xlink"><style>:root>svg{display:none}:root>svg:target{display:block}</style><svg fill="none" viewBox="0 0 102 32" id="brand_bi" xmlns="http://www.w3.org/2000/svg">
    <path d="M33.368 22.555c0-2.186 1.91-3.375 4.196-3.375 1.4 0 2.676.364 3.673 1.008v2.168c-1.037-.791-2.17-1.336-3.629-1.336-1.255 0-2.192.484-2.192 1.492 0 .912.589 1.276 1.625 1.643l2.006.727c1.944.705 2.837 1.8 2.837 3.6 0 2.266-1.93 3.517-4.462 3.517-1.663 0-3.079-.48-3.95-1.087v-2.21c1.133.911 2.493 1.438 3.95 1.438 1.42 0 2.416-.505 2.416-1.62 0-.97-.635-1.35-1.748-1.776l-1.8-.647c-1.66-.609-2.922-1.498-2.922-3.542Zm13.987 9.254V19.392h2.112v12.417h-2.112Zm-38.069 0V19.392h2.115v12.417H9.286Zm46.356-12.417h4.771c3.672 0 6.046 2.426 6.046 6.205 0 3.784-2.374 6.212-6.046 6.212h-4.77V19.392Zm2.109 1.86v8.678h2.583c2.612 0 4.01-1.68 4.01-4.333 0-2.671-1.398-4.345-4.01-4.345H57.75Zm13.171-1.86h7.545v1.86h-5.478v2.987h4.913v1.839h-4.913v3.852h5.478v1.879h-7.545V19.392Zm13.855 0h4.51c2.573 0 4.236 1.291 4.236 3.722 0 2.079-.923 3.273-2.89 3.578l4.475 5.116h-2.395l-4.333-5.037h-1.498v5.037h-2.105V19.392Zm2.105 1.821v3.802h2.365c1.4 0 2.19-.75 2.19-1.9 0-1.152-.79-1.902-2.19-1.902h-2.365ZM29.433 3.44c0-2.22 1.92-3.432 4.23-3.432 1.41 0 2.696.37 3.697 1.028v2.199c-1.042-.802-2.185-1.356-3.656-1.356-1.267 0-2.207.493-2.207 1.52 0 .925.592 1.295 1.635 1.665l2.022.74c1.961.72 2.86 1.829 2.86 3.658 0 2.301-1.94 3.575-4.495 3.575-1.675 0-3.105-.493-3.983-1.11v-2.24c1.143.925 2.512 1.46 3.983 1.46 1.43 0 2.431-.514 2.431-1.645 0-.986-.633-1.376-1.756-1.808l-1.819-.657c-1.675-.617-2.942-1.52-2.942-3.597Zm63.855-.008c0-2.22 1.92-3.432 4.23-3.432 1.41 0 2.696.37 3.698 1.028v2.198c-1.042-.801-2.186-1.356-3.658-1.356-1.266 0-2.206.493-2.206 1.52 0 .926.592 1.295 1.635 1.666l2.022.739c1.961.72 2.861 1.83 2.861 3.658 0 2.301-1.942 3.576-4.495 3.576-1.676 0-3.106-.494-3.984-1.11v-2.24c1.144.925 2.513 1.459 3.984 1.459 1.43 0 2.43-.514 2.43-1.644 0-.986-.633-1.377-1.756-1.808l-1.819-.658c-1.675-.616-2.942-1.521-2.942-3.596Zm-12.832 0c0-2.22 1.92-3.432 4.23-3.432 1.409 0 2.696.37 3.697 1.028v2.198c-1.042-.801-2.186-1.356-3.658-1.356-1.266 0-2.205.493-2.205 1.52 0 .926.592 1.295 1.634 1.666l2.023.739c1.96.72 2.86 1.83 2.86 3.658 0 2.301-1.94 3.576-4.495 3.576-1.675 0-3.106-.494-3.984-1.11v-2.24c1.144.925 2.513 1.459 3.984 1.459 1.43 0 2.431-.514 2.431-1.644 0-.986-.633-1.377-1.757-1.808l-1.818-.658c-1.676-.616-2.942-1.521-2.942-3.596ZM68.012.214h7.599v1.89h-5.517V5.14h4.948v1.868h-4.948v3.915h5.517v1.908h-7.599V.214ZM.87.214h4.392c2.615 0 4.25 1.172 4.25 3.432 0 1.356-.715 2.342-1.635 2.672 1.186.39 2.044 1.561 2.044 2.897 0 2.363-1.635 3.617-4.25 3.617H.87V.214Zm2.063 1.85v3.452h2.309c1.45 0 2.227-.555 2.227-1.747 0-1.192-.776-1.705-2.227-1.705H2.933Zm0 5.219v3.699H5.63c1.43 0 2.206-.72 2.206-1.85 0-1.15-.776-1.849-2.206-1.849H2.933Zm40.55 5.548V.214h2.124V12.83h-2.125ZM22.406.214h2.125v7.603c0 3.452-2.023 5.22-5.026 5.22-2.983 0-5.026-1.768-5.026-5.24V.214h2.125V7.57c0 2.425 1.021 3.556 2.9 3.556 1.88 0 2.902-1.13 2.902-3.556V.214Zm37.885 0h2.042v12.814l-8.618-8.404v8.207H51.67V.017l8.623 8.264V.214ZM17.456 31.808V19.199l8.56 8.13v-7.938h2.026V32l-8.554-8.268v8.076h-2.032Z" fill="#2C0546" fill-opacity=".8"/>
</svg><svg fill="none" viewBox="0 0 160 32" id="brand_bloomberg" xmlns="http://www.w3.org/2000/svg">
    <g clip-path="url(#ba)">
        <path d="M5.055 4.135H8.51c3.159 0 4.55.996 4.55 3.02 0 1.76-1.391 2.954-4.185 2.954h-3.82V4.135ZM.87 24.037h8.469c4.45 0 8.902-1.588 8.902-6.698 0-3.021-2.122-5.34-5.077-5.676v-.07c2.418-.723 4.086-2.481 4.086-5.136 0-4.28-3.659-5.904-7.213-5.904H.87v23.484Zm4.185-10.349h4.018c3.388 0 4.988.864 4.988 3.32 0 3.08-2.997 3.448-5.155 3.448H5.055v-6.768Z" fill="#2C0546" fill-opacity=".8"/>
        <path d="M22.973 24.038V0" stroke="#2C0546" stroke-opacity=".8" stroke-width="4" stroke-miterlimit="10"/>
        <path d="M31.615 16.078c0-2.488 1.762-4.774 4.686-4.774 2.923 0 4.68 2.287 4.68 4.774s-1.757 4.775-4.68 4.775c-2.925 0-4.686-2.287-4.686-4.775Zm-3.987 0c0 5.009 3.851 8.355 8.672 8.355 4.816 0 8.673-3.346 8.673-8.355 0-5.01-3.856-8.36-8.672-8.36-4.822 0-8.673 3.351-8.673 8.36ZM50.758 16.078c0-2.488 1.762-4.774 4.686-4.774s4.68 2.287 4.68 4.774-1.756 4.775-4.68 4.775c-2.924 0-4.686-2.287-4.686-4.775Zm-3.987 0c0 5.009 3.852 8.355 8.673 8.355 4.815 0 8.672-3.346 8.672-8.355 0-5.01-3.856-8.36-8.672-8.36-4.822 0-8.673 3.351-8.673 8.36ZM66.545 8.116h3.789v2.49h.062c.699-1.493 2.226-2.89 4.884-2.89 2.46 0 4.16.96 4.987 2.952 1.163-2.019 2.857-2.953 5.244-2.953 4.252 0 5.749 3.023 5.749 6.838v9.485h-3.987v-9.022c0-1.988-.594-3.713-2.955-3.713-2.491 0-3.425 2.055-3.425 4.109v8.626h-3.981v-9.485c0-1.962-.798-3.25-2.726-3.25-2.622 0-3.654 1.918-3.654 4.044v8.69h-3.987V8.117ZM107.714 16.078c0 2.49-1.756 4.775-4.686 4.775-2.924 0-4.685-2.285-4.685-4.775 0-2.488 1.761-4.78 4.685-4.78 2.93 0 4.686 2.292 4.686 4.78Zm-13.223 7.96h3.79V21.65h.062c1.167 1.918 3.257 2.782 5.487 2.782 4.91 0 7.871-3.648 7.871-8.355 0-4.71-3.159-8.36-7.708-8.36-2.988 0-4.587 1.389-5.416 2.425h-.099V0h-3.987v24.038ZM117.491 14.486c.298-2.293 1.762-3.784 4.118-3.784 2.491 0 4.018 1.46 4.055 3.784h-8.173Zm12.16 2.984v-1.092c0-5.543-3.023-8.66-7.474-8.66-4.826 0-8.673 3.351-8.673 8.36 0 5.009 3.847 8.355 8.673 8.355 2.518 0 4.883-.894 6.739-3.18l-2.856-2.151c-.996 1.22-2.294 2.152-4.285 2.152-2.225 0-4.023-1.429-4.284-3.784h12.16ZM132.246 8.116h3.988v2.521h.067c.865-1.824 2.622-2.922 4.717-2.922.5 0 .964.102 1.428.237v3.846c-.662-.164-1.298-.297-1.929-.297-3.752 0-4.284 3.153-4.284 4.018v8.52h-3.987V8.115ZM151.364 11.303c2.888 0 4.717 1.918 4.717 4.678 0 2.65-1.793 4.673-4.749 4.673-2.689 0-4.685-2.089-4.685-4.61 0-2.823 1.923-4.741 4.717-4.741Zm4.717-3.187v2.389h-.063c-1.167-1.926-3.262-2.79-5.487-2.79-4.915 0-7.871 3.65-7.871 8.363 0 4.507 3.158 8.158 7.938 8.158 1.996 0 4.055-.76 5.223-2.319h.057v1.163c0 3.149-1.189 5.34-5.045 5.34-2.226 0-3.889-.833-5.484-2.3l-2.387 3.257c2.252 1.998 4.946 2.623 7.907 2.623 6.213 0 9.001-3.653 9.001-9.389V8.116h-3.789Z" fill="#2C0546" fill-opacity=".8"/>
    </g>
    <defs>
        <clipPath id="ba">
            <path fill="#fff" transform="translate(.87)" d="M0 0h159v32H0z"/>
        </clipPath>
    </defs>
</svg><svg fill="none" viewBox="0 0 178 32" id="brand_cnbc" xmlns="http://www.w3.org/2000/svg">
    <path d="M0 15.862C0 21.584 4.68 32 22.55 32c16.476 0 21.68-7.556 21.68-11.021H31.474s-.606 4.577-7.8 4.577c-7.2 0-9.148-6.007-9.148-9.48 0-3.46 1.947-9.143 9.147-9.143 7.195 0 7.801 3.986 7.801 3.986H44.23C44.23 7.449 40.41 0 22.55 0 4.68 0 0 11.093 0 15.862ZM133.77 15.862c0 5.722 4.685 16.138 22.55 16.138C172.794 32 178 24.444 178 20.979h-12.746s-.609 4.577-7.806 4.577c-7.201 0-9.15-6.007-9.15-9.48 0-3.46 1.949-9.143 9.15-9.143 7.197 0 7.806 3.986 7.806 3.986H178C178 7.449 174.186 0 156.32 0c-17.865 0-22.55 11.093-22.55 15.862ZM79.09.535v19.371L64.246.536h-16.7v30.681h11.449V11.624l14.584 19.593h16.96V.535H79.09ZM115.775 23.887v.04h-9.539v-5.633h9.539v.018c2.037 0 3.683 1.251 3.683 2.792 0 1.537-1.646 2.783-3.683 2.783Zm-9.451-17.384h9.191v.013c1.557 0 2.82 1.024 2.82 2.284 0 1.265-1.263 2.28-2.82 2.28v.014h-9.191V6.503Zm18.819 8.402c2.084 0 6.442-2.418 6.442-7.102 0-6.671-12.428-7.268-14.334-7.268H94.353v30.682h22.898c11.013 0 15.437-3.477 15.437-9.285 0-5.807-7.545-7.027-7.545-7.027Z" fill="#2C0546" fill-opacity=".8"/>
</svg><svg fill="none" viewBox="0 0 104 32" id="brand_financialtimes" xmlns="http://www.w3.org/2000/svg">
    <path d="M3.924 10.403c0 1.256.337 1.395 1.761 1.453v.448H.014v-.448c1.178-.058 1.515-.197 1.515-1.453V2.197C1.529.936 1.192.797.045.744v-.46h10.013l.068 2.651h-.493c-.423-1.343-.88-1.767-3.224-1.767H4.593c-.545 0-.67.122-.67.622v3.801H5.97c1.868 0 2.272-.337 2.501-1.592h.459v4.248h-.459c-.247-1.418-.952-1.773-2.5-1.773H3.923v3.93Zm11.808 0c0 1.256.332 1.395 1.762 1.453v.448H11.57v-.448c1.431-.058 1.761-.197 1.761-1.453V2.197c0-1.261-.33-1.4-1.761-1.453v-.46h5.923v.46c-1.43.052-1.762.192-1.762 1.453v8.206Zm14.115-7.869c0-1.168-.319-1.645-1.624-1.79v-.46h4.23v.46c-1.303.145-1.62.622-1.62 1.79V12.6h-.6L22.06 3.115v6.951c0 1.168.315 1.645 1.62 1.79v.448h-4.232v-.448c1.305-.145 1.622-.622 1.622-1.79V1.97c-.405-.715-.882-1.052-1.622-1.226v-.46h3.261l7.14 8.283V2.534Zm6.395 5.463 1.798-4.76 1.782 4.76h-3.58Zm8.582 4.307v-.448c-.898.018-1.126-.372-1.585-1.505L39.026 0h-.58l-4.388 10.723c-.3.744-.706.97-1.463 1.133v.448H36.4v-.448c-.828 0-1.233-.18-1.233-.761 0-.494.548-1.825.685-2.214h4.338c.14.389.72 1.72.72 2.214 0 .581-.438.761-1.267.761v.448h5.18Zm11.614-9.77c0-1.168-.317-1.645-1.62-1.79v-.46h4.23v.46c-1.306.145-1.624.622-1.624 1.79V12.6h-.597l-8.178-9.485v6.951c0 1.168.317 1.645 1.622 1.79v.448H46.04v-.448c1.304-.145 1.623-.622 1.623-1.79V1.97C47.258 1.255 46.78.918 46.04.744v-.46h3.26l7.137 8.283V2.534Zm15.13 6.945c-1.253 2.145-2.892 3.121-5.377 3.121-3.895 0-6.203-2.569-6.203-6.41 0-2.738 2.15-6.19 6.327-6.19 1.25 0 3.028.709 3.295.709.35 0 .456-.192.742-.709h.597l.248 4.016h-.53C69.96 2.156 68.713.814 66.615.814c-2.82 0-4.052 3.063-4.052 5.376 0 3.243 1.39 5.416 4.37 5.416 2.325 0 3.612-1.732 4.159-2.493l.477.366Zm5.803.924c0 1.256.337 1.395 1.763 1.453v.448h-5.922v-.448c1.43-.058 1.764-.197 1.764-1.453V2.197c0-1.261-.335-1.4-1.764-1.453v-.46h5.922v.46c-1.426.052-1.763.192-1.763 1.453v8.206Zm6.67-2.406 1.798-4.76 1.78 4.76h-3.578Zm8.584 4.307v-.448c-.9.018-1.128-.372-1.585-1.505L86.827 0h-.58l-4.39 10.723c-.3.744-.705.97-1.463 1.133v.448h3.805v-.448c-.827 0-1.231-.18-1.231-.761 0-.494.547-1.825.687-2.214h4.335c.14.389.72 1.72.72 2.214 0 .581-.44.761-1.267.761v.448h5.182Zm1.047 0v-.448c1.147-.052 1.481-.197 1.481-1.453V2.197c0-1.261-.334-1.4-1.48-1.453v-.46h5.533v.46c-1.32.052-1.658.192-1.658 1.453v8.439c0 .726.213.97 1.552.97 2.15 0 3.419-.39 4.441-2.51H104l-.81 3.208h-9.517ZM2.642 31.262c1.36-.058 1.693-.198 1.693-1.453v-9.235H2.856c-1.393 0-1.94.564-2.327 2.191H0l.282-3.075h10.502l.283 3.075h-.532c-.384-1.627-.931-2.191-2.322-2.191H6.732v9.235c0 1.255.335 1.395 1.69 1.453v.447h-5.78v-.447Zm13.816-1.453c0 1.255.337 1.395 1.764 1.447v.453h-5.923v-.453c1.432-.052 1.764-.192 1.764-1.447v-8.212c0-1.256-.332-1.395-1.764-1.447v-.465h5.923v.465c-1.427.052-1.764.191-1.764 1.447v8.212ZM30.8 19.69h4.125v.46c-1.146.052-1.479.191-1.479 1.447v8.212c0 1.255.333 1.395 1.479 1.453v.447h-5.393v-.447c1.18-.058 1.517-.198 1.517-1.453v-8.456h-.036l-4 10.507h-.548l-3.91-10.507h-.035v8.119c0 1.168.316 1.645 1.62 1.79v.447h-4.228v-.447c1.303-.145 1.62-.622 1.62-1.79V21.3c0-.83-.351-1.15-1.62-1.15v-.46h4.353l3.189 8.346L30.8 19.69Zm5.826 12.02v-.448c1.143-.058 1.478-.198 1.478-1.453v-8.212c0-1.256-.334-1.395-1.478-1.447v-.46h10.008l.07 2.65h-.491c-.425-1.342-.884-1.766-3.227-1.766h-1.813c-.55 0-.67.122-.67.616v3.807h2.042c1.868 0 2.273-.337 2.504-1.593h.458v4.243h-.458c-.25-1.412-.953-1.767-2.504-1.767h-2.041v4.161c0 .721.21.971 2.325.971 2.147 0 3.418-.39 4.44-2.517h.457l-.81 3.214h-10.29Zm12.658-3.778h.462c.508 1.592 2.026 3.254 3.79 3.254 1.512 0 2.06-1.057 2.06-1.999 0-2.76-6.203-3.272-6.203-6.701 0-1.662 1.603-3.08 3.435-3.08 1.797 0 2.43.633 3.227.633.334 0 .545-.261.633-.633h.46v3.818h-.46c-.493-1.732-1.725-3.005-3.35-3.005-1.336 0-1.833.866-1.833 1.686 0 2.452 6.206 2.528 6.206 6.753 0 1.889-1.55 3.342-3.703 3.342-2.114 0-2.66-.738-3.49-.738-.314 0-.528.21-.597.598h-.637v-3.928Z" fill="#2C0546" fill-opacity=".8"/>
</svg><svg fill="none" viewBox="0 0 118 30" id="brand_forbes" xmlns="http://www.w3.org/2000/svg">
    <path d="M66.819 9.6c0-3.437.059-6.637.237-9.6l-9.103 1.719v.83l.892.118c.655.059 1.072.296 1.31.652.237.414.416 1.007.535 1.896.119 1.718.238 5.63.178 11.792 0 6.104-.059 9.956-.178 11.437 3.273.712 5.831 1.008 7.735 1.008 3.57 0 6.367-1.008 8.39-3.082 2.023-2.014 3.094-4.859 3.094-8.355 0-2.785-.774-5.097-2.321-6.934-1.547-1.837-3.51-2.725-5.831-2.725-1.547 0-3.154.414-4.939 1.244Zm.178 18.252c-.119-1.896-.238-7.585-.238-16.889.535-.178 1.25-.296 2.142-.296 1.428 0 2.559.71 3.392 2.192.832 1.482 1.249 3.26 1.249 5.511 0 2.786-.476 5.037-1.428 6.934-.952 1.837-2.142 2.785-3.63 2.785-.475-.119-.951-.178-1.487-.237ZM23.8.592H0v1.186l1.25.118c.951.178 1.606.534 2.022 1.067.417.593.655 1.54.715 2.844.476 6.4.476 12.386 0 17.897-.12 1.303-.357 2.252-.715 2.844-.416.593-1.07.948-2.022 1.067L0 27.793v1.185h15.351v-1.185l-1.607-.119a2.924 2.924 0 0 1-2.022-1.067c-.417-.592-.655-1.54-.714-2.844-.179-2.37-.298-5.096-.298-8.119l3.213.06c1.726.059 2.915 1.363 3.51 3.97h1.19v-9.66h-1.19c-.595 2.549-1.725 3.853-3.51 3.912l-3.213.06c0-5.334.119-9.127.297-11.438h4.701c3.332 0 5.593 2.133 6.902 6.4l1.428-.415L23.8.593Zm-2.797 18.252c0 3.082.893 5.63 2.619 7.645 1.725 2.015 4.284 2.963 7.497 2.963 3.212 0 5.83-1.008 7.734-3.082 1.904-2.014 2.797-4.563 2.797-7.644 0-3.082-.892-5.63-2.618-7.644-1.725-2.015-4.284-2.963-7.497-2.963S25.704 9.126 23.8 11.2c-1.904 2.015-2.797 4.563-2.797 7.644Zm13.269-6.755c.714 1.718 1.011 3.97 1.011 6.696 0 6.282-1.309 9.363-3.867 9.363-1.309 0-2.32-.889-3.035-2.666-.713-1.778-1.011-4.03-1.011-6.697 0-6.222 1.309-9.304 3.867-9.304 1.31-.059 2.321.83 3.035 2.608Zm50.277 14.4c1.964 1.955 4.463 2.963 7.438 2.963 1.845 0 3.451-.356 4.879-1.126 1.428-.711 2.558-1.6 3.332-2.667l-.595-.71c-1.309 1.007-2.796 1.48-4.522 1.48-2.38 0-4.225-.77-5.474-2.37-1.309-1.6-1.904-3.615-1.785-6.222h12.733c0-2.844-.714-5.155-2.202-6.993-1.487-1.777-3.57-2.666-6.247-2.666-3.332 0-5.89 1.066-7.735 3.14-1.844 2.075-2.737 4.623-2.737 7.645 0 3.081.952 5.57 2.915 7.526Zm4.403-14.874c.655-1.422 1.488-2.134 2.618-2.134 1.786 0 2.678 2.252 2.678 6.815l-6.307.119c.06-1.778.357-3.378 1.011-4.8Zm27.609-2.37c-1.607-.712-3.63-1.126-6.069-1.126-2.499 0-4.463.651-5.95 1.896-1.488 1.244-2.261 2.785-2.261 4.622 0 1.6.476 2.845 1.368 3.733.893.89 2.321 1.66 4.165 2.311 1.666.593 2.856 1.186 3.451 1.719.595.593.952 1.244.952 2.133 0 .83-.297 1.6-.952 2.193-.595.652-1.428.948-2.499.948-2.618 0-4.581-1.896-5.95-5.689l-1.011.297.238 5.925c2.142.83 4.522 1.245 7.14 1.245 2.737 0 4.819-.593 6.366-1.837 1.547-1.185 2.321-2.904 2.321-5.037 0-1.422-.357-2.608-1.131-3.497-.773-.888-2.023-1.659-3.808-2.37-1.963-.711-3.332-1.363-4.046-1.955-.714-.593-1.071-1.304-1.071-2.193s.238-1.6.774-2.193c.535-.592 1.19-.83 2.023-.83 2.38 0 4.105 1.72 5.176 5.097l1.012-.296-.238-5.097Zm-57.24-.534c-.832-.415-1.725-.592-2.736-.592-1.012 0-2.023.414-3.154 1.244-1.13.83-1.963 1.956-2.618 3.496l.06-4.74-9.044 1.777v.83l.892.06c1.13.118 1.785 1.007 1.904 2.607.357 3.674.357 7.585 0 11.733-.119 1.6-.773 2.43-1.904 2.607l-.892.119v1.126h12.614v-1.126l-1.607-.119c-1.13-.118-1.785-1.007-1.904-2.607a60.293 60.293 0 0 1-.119-10.904c.357-.592 1.13-.948 2.32-1.066 1.19-.119 2.559.237 3.987 1.066l2.202-5.51Z" fill="#2C0546" fill-opacity=".8"/>
</svg><svg fill="none" viewBox="0 0 131 32" id="brand_lifehacker" xmlns="http://www.w3.org/2000/svg">
    <path d="M5.855 31.642H.87V.318l4.985.318v31.006Zm8.163 0H9.03V9.302l4.987.278v22.062ZM11.524 2.504c1.569 0 2.856 1.272 2.856 2.823 0 1.55-1.287 2.822-2.856 2.822-1.568 0-2.854-1.272-2.854-2.822s1.286-2.823 2.854-2.823Zm14.395 11.29v4.929h-3.74V31.62h-4.986V7.115C17.194 3.38 20.33 0 24.03 0c1.246 0 2.251.358 2.493.517l-.202 4.73H24.03c-1.005 0-1.85.835-1.85 1.868v6.679h3.74Zm2.017 1.987c0-3.736 3.056-6.797 6.876-6.797 3.779 0 6.836 3.06 6.836 6.797v4.77c0 1.392-1.127 2.465-2.494 2.465H32.92v2.147c0 1.033.845 1.868 1.89 1.868h4.786l.16 4.174-4.503.676c-4.343.715-7.318-2.982-7.318-6.718V15.78v.001ZM45.91 31.642V.517h3.218v9.46c.884-.278 2.291-.397 3.256-.397 3.418 0 6.072 3.061 6.072 6.52v15.542H55.32V16.1c0-1.709-1.407-3.06-3.136-3.06h-3.055v18.603l-3.218-.001Zm24.314-16.06c0-1.788-.844-3.22-3.137-2.98h.04c-1.286.039-2.934.198-4.301.277-.04-1.152-.08-1.59-.12-2.464 1.085-.398 2.652-.795 3.98-.835 4.02-.08 6.675 3.14 6.675 6.599v9.46c0 3.42-2.775 6.242-6.234 6.242-3.458 0-6.312-2.823-6.312-6.241v-1.948c0-3.419 2.372-6.003 6.312-6.003 1.489 0 2.253.16 3.098.398v-2.504l-.001-.001ZM82.369 9.58c3.458 0 6.312 2.783 6.312 6.241v.398c-1.246.04-2.251.04-3.176.08v-.478c0-1.67-1.407-3.06-3.136-3.06a3.07 3.07 0 0 0-3.056 3.06v9.938a3.012 3.012 0 0 0 1.879 2.835c.373.153.773.23 1.177.225 1.689 0 3.096-1.271 3.137-2.94 1.567.119 3.055.198 3.175.198-.16 3.3-2.975 5.923-6.312 5.923-3.458 0-6.273-2.783-6.273-6.241v-9.938c0-3.458 2.815-6.24 6.273-6.24V9.58Zm18.985 22.062-6.11-10.534c-.604-1.033-.604-1.153.12-2.385l5.388-8.825h3.658l-6.07 10.177 6.554 11.567h-3.54ZM94.438.596v31.046h-3.216V.596h3.216Zm11.133 15.265c0-3.459 2.815-6.28 6.313-6.28 3.458 0 6.272 2.821 6.272 6.28v4.89c0 .914-.724 1.59-1.609 1.59h-7.759v3.378c0 1.71 1.367 3.1 3.096 3.1h4.061c.04 1.034.08 1.75.16 2.465l-3.859.597c-3.941.675-6.676-2.703-6.676-6.162l.001-9.858Zm18.623 15.781h-3.217V16.14c0-3.458 2.735-6.678 6.755-6.599 1.367.04 2.212.358 3.138.795-.041.954-.081 1.75-.121 2.465l-3.498-.08c-1.69 0-3.057 1.79-3.057 3.42v15.501ZM32.921 18.087h3.74V15.78a1.868 1.868 0 0 0-3.593-.718 1.87 1.87 0 0 0-.146.718v2.307Zm37.303 7.553v-5.367h-3.097c-1.728 0-3.095 1.352-3.095 3.061v2.306c0 1.709 1.367 3.1 3.095 3.1a3.098 3.098 0 0 0 2.196-.907 3.086 3.086 0 0 0 .9-2.193Zm38.564-6.44h6.192v-3.34c0-1.708-1.407-3.1-3.097-3.1a3.096 3.096 0 0 0-2.864 1.914c-.155.376-.233.78-.231 1.186v3.34Z" fill="#2C0546" fill-opacity=".8"/>
</svg><svg fill="none" viewBox="0 0 244 32" id="brand_modern-retail" xmlns="http://www.w3.org/2000/svg">
    <g clip-path="url(#ga)">
        <path fill-rule="evenodd" clip-rule="evenodd" d="M16.907.344 1.214 8.183V27.78l7.846 3.919V19.94l7.847 3.919 7.846-3.92V31.7l7.847-3.92V8.184L16.907.343ZM58.746 14.45c-.395 1.477-1.315 5.348-1.315 5.348h-.066s-.92-3.871-1.348-5.347L53.158 4.182h-7.823V27.64h5.226V15.862c0-.951-.098-4.724-.098-4.724h.065s.822 3.543 1.085 4.396l3.353 12.106h4.799L63.15 15.5c.263-.852 1.085-4.362 1.085-4.362h.066s-.099 3.74-.099 4.691v11.81h5.325V4.183h-7.889l-2.892 10.269ZM80.635 24.359c-2.334 0-3.55-2.034-3.55-5.085 0-3.052 1.216-5.118 3.55-5.118 2.333 0 3.583 2.066 3.583 5.118 0 3.05-1.25 5.085-3.583 5.085Zm.033-13.976c-5.391 0-9.007 3.838-9.007 8.89 0 5.053 3.616 8.892 9.007 8.892 5.423 0 8.973-3.84 8.973-8.891 0-5.053-3.55-8.89-8.973-8.89ZM99.434 23.933c-2.071 0-3.32-1.838-3.32-4.758 0-2.821 1.249-4.79 3.386-4.79 2.334 0 3.484 2.035 3.484 4.856 0 2.756-1.315 4.692-3.55 4.692Zm3.419-11.188h-.099c-.987-1.41-2.334-2.395-4.7-2.395-4.34 0-7.363 3.642-7.363 8.891 0 5.61 3.057 8.924 7.363 8.924 2.202 0 3.944-1.05 4.963-2.789h.066v2.264h5.127V4.183h-5.357v8.562ZM115.308 17.436c.362-2 1.414-3.28 3.452-3.28 1.742 0 2.991 1.28 3.188 3.28h-6.64Zm9.106-4.986c-1.447-1.313-3.353-2.1-5.753-2.1-5.127 0-8.645 3.839-8.645 8.858 0 5.085 3.419 8.924 8.974 8.924 2.136 0 3.845-.558 5.259-1.542 1.479-1.017 2.465-2.46 2.827-3.97h-5.226c-.461 1.05-1.381 1.673-2.795 1.673-2.201 0-3.451-1.41-3.78-3.674h12.097c.033-3.412-.954-6.332-2.958-8.17ZM134.404 13.467h-.099v-2.625h-5.127V27.64h5.358v-7.546c0-3.642 2.103-5.25 5.39-4.79h.132V10.71c-.231-.098-.559-.13-1.052-.13-2.038 0-3.419.885-4.602 2.886ZM152.219 10.35c-2.335 0-3.945.985-5.194 2.789h-.099v-2.297h-5.16V27.64h5.357v-9.285c0-2.067 1.184-3.543 2.959-3.543 1.742 0 2.629 1.214 2.629 2.985v9.843h5.358V16.715c0-3.74-2.169-6.365-5.85-6.365ZM171.018 14.55h-4.372V8.776h4.503c2.235 0 3.353 1.213 3.353 2.92 0 1.771-1.183 2.854-3.484 2.854Zm8.612 6.463c-.329-2.33-1.381-3.61-3.419-4.298v-.099c2.729-.95 4.076-2.952 4.076-5.675 0-4.364-3.55-6.758-8.217-6.758h-11.242V27.64h5.818v-8.793h3.517c2.499 0 3.616 1.181 3.911 3.347.362 2.33.264 5.085.888 5.446h5.653v-.296c-.821-.295-.492-3.248-.985-6.331ZM186.924 17.436c.362-2 1.414-3.28 3.452-3.28 1.742 0 2.991 1.28 3.188 3.28h-6.64Zm9.106-4.986c-1.447-1.313-3.353-2.1-5.753-2.1-5.128 0-8.645 3.839-8.645 8.858 0 5.085 3.419 8.924 8.974 8.924 2.136 0 3.845-.558 5.259-1.542 1.479-1.017 2.465-2.46 2.827-3.97h-5.226c-.461 1.05-1.381 1.673-2.795 1.673-2.201 0-3.451-1.41-3.78-3.674h12.097c.033-3.412-.954-6.332-2.958-8.17ZM207.007 5.527h-5.227v5.315h-2.235v3.347h2.235v9.022c0 3.609 2.236 4.625 5.358 4.625 1.446 0 2.465-.13 2.925-.262V23.67c-.196 0-.723.032-1.183.032-1.151 0-1.873-.327-1.873-1.64V14.19h3.056v-3.347h-3.056V5.527ZM222.388 21.636c0 1.804-1.38 3.018-3.385 3.018-1.315 0-2.301-.524-2.301-1.87 0-1.28.854-1.804 2.925-2.264 1.085-.262 2.071-.525 2.761-.885v2.001Zm5.128 3.38V16.55c0-2.1-.69-3.74-2.137-4.79-1.215-.919-2.925-1.378-5.456-1.378-5.095 0-7.494 2.658-7.626 5.774h4.931c.164-1.41 1.018-2.165 2.728-2.165 1.611 0 2.301.722 2.301 1.804 0 1.149-1.118 1.476-4.273 1.87-3.484.46-6.442 1.575-6.442 5.282 0 3.314 2.399 5.118 5.752 5.118 2.531 0 4.01-.885 4.996-2.296h.065c.132.853.296 1.51.559 1.87h5.193v-.23c-.46-.295-.591-1.05-.591-2.395Z" fill="#2C0546" fill-opacity=".8"/>
        <mask id="gb" style="mask-type:luminance" maskUnits="userSpaceOnUse" x="1" y="0" width="243" height="32">
            <path d="M1.212 31.48h242.276V.342H1.212V31.48Z" fill="#fff"/>
        </mask>
        <g mask="url(#gb)">
            <path fill-rule="evenodd" clip-rule="evenodd" d="M230.111 27.64h5.357V10.842h-5.357V27.64Z" fill="#2C0546" fill-opacity=".8"/>
        </g>
        <mask id="gc" style="mask-type:luminance" maskUnits="userSpaceOnUse" x="1" y="0" width="243" height="32">
            <path d="M1.212 31.48h242.276V.342H1.212V31.48Z" fill="#fff"/>
        </mask>
        <g mask="url(#gc)">
            <path fill-rule="evenodd" clip-rule="evenodd" d="M230.111 8.513h5.357v-4.33h-5.357v4.33Z" fill="#2C0546" fill-opacity=".8"/>
        </g>
        <mask id="gd" style="mask-type:luminance" maskUnits="userSpaceOnUse" x="1" y="0" width="243" height="32">
            <path d="M1.212 31.48h242.276V.342H1.212V31.48Z" fill="#fff"/>
        </mask>
        <g mask="url(#gd)">
            <path fill-rule="evenodd" clip-rule="evenodd" d="M238.065 27.64h5.423V4.182h-5.423V27.64Z" fill="#2C0546" fill-opacity=".8"/>
        </g>
    </g>
    <defs>
        <clipPath id="ga">
            <path fill="#fff" transform="translate(.87)" d="M0 0h243v32H0z"/>
        </clipPath>
    </defs>
</svg><svg fill="none" viewBox="0 0 128 32" id="brand_reuters" xmlns="http://www.w3.org/2000/svg">
    <g clip-path="url(#ha)" fill="#2C0546" fill-opacity=".8">
        <path d="M32.928 19.357c-.59 0-1.13.294-1.424.784a1.59 1.59 0 0 0 0 1.617c.294.49.835.809 1.424.784A1.602 1.602 0 0 0 34.5 20.95c.025-.858-.688-1.569-1.572-1.593ZM30.89 23.523c-.762 0-1.376.612-1.376 1.347 0 .76.614 1.372 1.376 1.372.76 0 1.375-.612 1.375-1.372 0-.735-.614-1.348-1.375-1.348ZM27.907 29.131a1.177 1.177 0 1 0-.079-2.35 1.177 1.177 0 1 0 .079 2.35ZM24.455 28.986a.943.943 0 0 0-.958.956c0 .539.418.956.958.956s.958-.417.958-.956a.943.943 0 0 0-.958-.956ZM21.115 30.138a.817.817 0 0 0-.81.808c0 .442.368.81.81.81.442 0 .81-.368.81-.81.025-.44-.344-.808-.81-.808ZM17.996 30.604a.712.712 0 0 0-.713.71.712.712 0 0 0 1.425 0c-.025-.392-.344-.71-.712-.71ZM14.852 30.138a.817.817 0 0 0-.81.808c0 .442.368.81.81.81.442 0 .81-.368.81-.81a.817.817 0 0 0-.81-.808ZM11.512 28.962a.958.958 0 0 0-.835.465.95.95 0 0 0 0 .956.958.958 0 0 0 .835.466.958.958 0 0 0 .958-.956c-.025-.49-.443-.907-.958-.931ZM8.098 26.781c-.418 0-.81.22-1.032.588a1.126 1.126 0 0 0 0 1.176c.221.368.59.588 1.032.588.638 0 1.179-.514 1.179-1.176 0-.637-.516-1.176-1.18-1.176ZM5.077 23.523a1.371 1.371 0 1 0 0 2.744c.761 0 1.375-.613 1.375-1.372-.024-.76-.614-1.372-1.375-1.372ZM3.038 19.357a1.598 1.598 0 0 0-1.424.784 1.59 1.59 0 0 0 0 1.617c.295.49.835.809 1.424.784A1.602 1.602 0 0 0 4.61 20.95c0-.857-.712-1.568-1.572-1.592ZM2.302 14.163a1.864 1.864 0 0 0-1.867 1.862c0 1.029.835 1.862 1.867 1.862a1.863 1.863 0 0 0 1.866-1.862c-.024-1.03-.835-1.862-1.866-1.862ZM3.038 9.458c-.589 0-1.13.294-1.424.784a1.59 1.59 0 0 0 0 1.617c.295.49.835.809 1.424.784a1.602 1.602 0 0 0 1.572-1.592c0-.858-.712-1.568-1.572-1.593ZM5.077 5.758c-.491 0-.958.245-1.203.686a1.37 1.37 0 0 0 0 1.372c.245.417.712.687 1.203.687.737-.025 1.35-.613 1.35-1.373-.024-.735-.613-1.347-1.35-1.372ZM8.098 2.867c-.639 0-1.18.514-1.18 1.176 0 .637.517 1.176 1.18 1.176.638 0 1.179-.514 1.179-1.176 0-.637-.516-1.176-1.18-1.176ZM11.512 1.127a.958.958 0 0 0-.958.956.958.958 0 0 0 1.915 0c-.024-.515-.442-.956-.957-.956ZM14.852.245a.827.827 0 0 0-.835.833c0 .466.368.833.835.833.442 0 .81-.367.81-.808-.024-.49-.368-.858-.81-.858ZM17.971 0a.712.712 0 0 0-.712.71.712.712 0 0 0 1.424 0c0-.391-.319-.71-.712-.71ZM21.115.245a.817.817 0 0 0-.81.809c0 .44.368.808.81.808.442 0 .81-.367.81-.808.025-.441-.344-.809-.81-.809ZM24.455 1.127a.958.958 0 0 0-.835.466.95.95 0 0 0 0 .955.958.958 0 0 0 .835.466.958.958 0 0 0 .958-.956c0-.539-.418-.93-.958-.93ZM27.869 2.891c-.639 0-1.18.515-1.18 1.176 0 .638.517 1.177 1.18 1.177.638 0 1.179-.515 1.179-1.177 0-.661-.54-1.176-1.18-1.176ZM30.89 5.758a1.371 1.371 0 1 0 0 2.745 1.372 1.372 0 1 0 0-2.745ZM32.928 9.458c-.59 0-1.13.294-1.424.784a1.59 1.59 0 0 0 0 1.617c.294.49.835.809 1.424.784a1.602 1.602 0 0 0 1.572-1.592c0-.882-.688-1.593-1.572-1.593ZM25.56 18.45c-.27 0-.516.123-.639.344a.78.78 0 0 0 0 .735c.123.22.369.367.639.343a.723.723 0 0 0 .688-.711c.024-.367-.295-.686-.688-.71ZM23.767 21.121c-.27 0-.516.123-.638.343a.78.78 0 0 0 0 .735.69.69 0 0 0 .638.343.723.723 0 0 0 .688-.71.723.723 0 0 0-.688-.71ZM21.09 22.836c-.27 0-.54.147-.688.393a.75.75 0 0 0 0 .784.784.784 0 0 0 .688.392.775.775 0 0 0 .786-.785.775.775 0 0 0-.786-.784ZM17.947 23.302c-.59 0-1.057.465-1.057 1.053 0 .588.467 1.054 1.056 1.054.59 0 1.056-.466 1.056-1.054-.024-.588-.49-1.053-1.055-1.053ZM14.778 22.665c-.663 0-1.203.539-1.203 1.2a1.204 1.204 0 0 0 2.407 0c0-.661-.54-1.2-1.204-1.2ZM11.93 20.655a1.32 1.32 0 0 0-1.327 1.324c0 .735.59 1.323 1.326 1.323a1.32 1.32 0 0 0 1.326-1.323 1.32 1.32 0 0 0-1.326-1.323ZM10.038 17.96a1.1 1.1 0 0 0-1.105 1.103 1.1 1.1 0 0 0 1.105 1.103 1.1 1.1 0 0 0 1.105-1.103c.025-.588-.49-1.103-1.105-1.103ZM9.596 15.02a.87.87 0 0 0-.86.858.87.87 0 0 0 .86.857.87.87 0 0 0 .86-.857.838.838 0 0 0-.86-.858ZM10.357 12.129a.712.712 0 0 0-.712.71.712.712 0 0 0 1.425 0c.024-.392-.32-.71-.713-.71ZM12.175 9.483c-.27 0-.516.122-.639.343a.78.78 0 0 0 0 .735.69.69 0 0 0 .639.343.712.712 0 0 0 .712-.71c-.024-.393-.344-.711-.712-.711ZM14.827 7.62a.775.775 0 0 0-.786.784c0 .441.344.785.786.785a.775.775 0 0 0 .786-.785.79.79 0 0 0-.786-.784ZM19.046 7.697a1.055 1.055 0 0 0-2.11-.08 1.055 1.055 0 0 0 2.11.08ZM21.14 6.959c-.664 0-1.204.539-1.204 1.2a1.204 1.204 0 0 0 2.407 0c0-.661-.54-1.2-1.204-1.2ZM23.988 8.723a1.32 1.32 0 0 0-1.326 1.323c0 .735.59 1.323 1.326 1.323a1.32 1.32 0 0 0 1.326-1.323 1.32 1.32 0 0 0-1.326-1.323ZM25.88 11.835a1.1 1.1 0 0 0-1.106 1.102 1.1 1.1 0 0 0 1.105 1.103 1.1 1.1 0 0 0 1.106-1.103 1.1 1.1 0 0 0-1.106-1.102ZM22.981 18.034a.662.662 0 1 0 .002-1.325.662.662 0 0 0-.002 1.325ZM21.68 18.769a.984.984 0 0 0-.983.98c0 .539.442.98.983.98.54 0 .982-.441.982-.98.024-.54-.418-.98-.982-.98ZM19.15 20.092c-.565 0-1.032.466-1.032 1.03 0 .563.467 1.028 1.032 1.028s1.032-.465 1.032-1.029c0-.563-.467-1.029-1.032-1.029ZM16.154 20.019a.88.88 0 0 0-.786.465.861.861 0 0 0 0 .907.909.909 0 0 0 .786.465.905.905 0 0 0 .908-.906.896.896 0 0 0-.909-.931ZM13.943 18.524a.66.66 0 0 0-.663.662.66.66 0 0 0 .663.661.66.66 0 0 0 .663-.662c.025-.342-.294-.661-.663-.661ZM13.059 16.588c-.27 0-.491.22-.491.49a.492.492 0 0 0 .982 0c0-.27-.22-.49-.491-.49ZM13.01 14.065a.66.66 0 0 0-.663.661.66.66 0 0 0 .663.662.66.66 0 0 0 .663-.662.66.66 0 0 0-.663-.661ZM14.312 11.345a.984.984 0 0 0-.983.98c0 .539.442.98.983.98.54 0 .982-.441.982-.98a.984.984 0 0 0-.982-.98ZM16.841 9.924c-.565 0-1.031.465-1.031 1.029 0 .563.466 1.029 1.031 1.029s1.032-.466 1.032-1.03c0-.563-.467-1.028-1.032-1.028ZM19.838 10.242a.95.95 0 0 0-.81.441.905.905 0 0 0 0 .931.876.876 0 0 0 .81.441.917.917 0 0 0 .884-.906.917.917 0 0 0-.884-.907ZM22.023 12.202a.66.66 0 0 0-.663.662.66.66 0 0 0 .663.661.66.66 0 0 0 .664-.661c.024-.368-.27-.662-.664-.662ZM22.957 14.53c-.27 0-.492.22-.492.49a.492.492 0 0 0 .983 0c0-.27-.221-.49-.491-.49ZM26.321 15.29a.87.87 0 0 0-.86.857.87.87 0 0 0 .86.858.87.87 0 0 0 .86-.858.87.87 0 0 0-.86-.857ZM29.883 16.343a.905.905 0 1 0 0 1.813.905.905 0 1 0 0-1.813ZM28.974 19.553a.87.87 0 0 0-.86.858.87.87 0 0 0 .86.857.87.87 0 0 0 .86-.857.853.853 0 0 0-.86-.858ZM27.427 22.248a.738.738 0 0 0-.737.735c0 .392.32.735.737.735.393 0 .712-.343.712-.735a.75.75 0 0 0-.712-.735ZM25.56 24.258a.681.681 0 0 0-.565.318.597.597 0 0 0 0 .637.65.65 0 0 0 .565.319c.344 0 .639-.27.639-.637a.65.65 0 0 0-.639-.637ZM23.595 25.727a.545.545 0 0 0-.54.54c0 .294.245.539.54.539.295 0 .54-.245.54-.54a.545.545 0 0 0-.54-.538ZM21.36 26.56a.633.633 0 0 0-.638.638c0 .343.27.637.638.637.344 0 .639-.27.639-.637-.025-.368-.295-.637-.639-.637ZM18.732 26.977a.738.738 0 0 0-.736.735.738.738 0 0 0 1.473 0c-.024-.416-.344-.735-.737-.735ZM15.736 26.683a.932.932 0 1 0 0 1.863.932.932 0 1 0 0-1.863ZM12.568 25.556a1.1 1.1 0 0 0-1.105 1.103 1.1 1.1 0 0 0 1.105 1.102 1.1 1.1 0 0 0 1.105-1.102c.024-.613-.491-1.103-1.105-1.103ZM9.793 23.449c-.467 0-.91.245-1.155.637a1.28 1.28 0 0 0 0 1.323c.246.417.688.662 1.155.637a1.304 1.304 0 0 0 1.277-1.298c0-.687-.565-1.274-1.277-1.299ZM7.46 20.313c-.787 0-1.425.637-1.425 1.42a1.424 1.424 0 0 0 2.849 0c0-.808-.639-1.42-1.425-1.42ZM7.27 18.224a1.129 1.129 0 0 0-2.254-.16 1.129 1.129 0 0 0 2.254.16ZM6.98 14.806a.908.908 0 0 0-1.815-.1c-.027.5.357.927.858.955a.908.908 0 0 0 .958-.855ZM6.993 10.732a.87.87 0 0 0-.86.858.87.87 0 0 0 .86.857.87.87 0 0 0 .86-.857.87.87 0 0 0-.86-.858ZM8.54 8.307c-.27 0-.516.122-.639.367a.78.78 0 0 0 0 .735c.123.22.393.368.639.368.393 0 .712-.343.712-.735a.718.718 0 0 0-.712-.735ZM10.406 6.493a.633.633 0 0 0-.638.637c0 .343.27.638.638.638.369 0 .64-.27.64-.638a.65.65 0 0 0-.64-.637ZM12.371 5.22a.544.544 0 0 0-.54.538c0 .294.245.54.54.54.295 0 .54-.246.54-.54a.529.529 0 0 0-.54-.539ZM14.606 4.215a.633.633 0 0 0-.638.637c0 .343.27.637.638.637.344 0 .639-.27.639-.637a.633.633 0 0 0-.639-.637ZM17.234 3.577c-.27 0-.516.123-.638.368a.78.78 0 0 0 0 .735c.122.22.393.368.638.368.393 0 .712-.343.712-.736a.75.75 0 0 0-.712-.735ZM20.23 3.455a.959.959 0 0 0-.835.465.95.95 0 0 0 0 .956.959.959 0 0 0 .836.466c.515 0 .933-.442.933-.956a.932.932 0 0 0-.933-.931ZM23.3 4.166c-.614 0-1.13.49-1.13 1.127 0 .612.492 1.127 1.13 1.127.614 0 1.13-.49 1.13-1.127 0-.613-.515-1.127-1.13-1.127ZM26.199 5.93c-.737 0-1.302.588-1.302 1.298 0 .71.59 1.299 1.302 1.299.736 0 1.301-.588 1.301-1.299 0-.71-.59-1.298-1.301-1.298ZM28.507 8.87c-.516 0-.982.27-1.252.71-.27.442-.27.98 0 1.422.27.44.736.71 1.252.71.786-.024 1.4-.637 1.4-1.42-.024-.76-.638-1.397-1.4-1.422ZM29.809 12.766c-.393 0-.786.196-.982.539a1.151 1.151 0 0 0 0 1.127c.196.343.589.564.982.54a1.11 1.11 0 0 0 1.08-1.104 1.11 1.11 0 0 0-1.08-1.102ZM35.532 16c0 1.03-.836 1.863-1.867 1.863A1.864 1.864 0 0 1 31.798 16c0-1.029.835-1.862 1.867-1.862 1.031.025 1.867.858 1.867 1.862ZM127.435 18.867c0-1.764-1.007-2.695-2.579-3.332-1.228-.49-2.308-.907-3.143-1.25-.811-.319-1.523-.882-1.523-1.495 0-.833 1.032-1.323 2.407-1.323 1.621 0 2.898.22 4.101.343h.05c.196 0 .319-.147.319-.343v-1.372c0-.171-.148-.318-.344-.343-.639-.147-2.26-.49-4.028-.49-3.438 0-5.084 1.47-5.084 3.528 0 1.299.565 2.573 2.186 3.235 1.621.661 4.937 1.445 4.937 2.817 0 1.079-.492 1.667-2.162 1.667-1.719 0-3.463-.245-4.199-.343h-.05a.335.335 0 0 0-.343.343v1.323c0 .196.172.343.343.367.885.196 2.555.49 4.2.49 3.758.05 4.912-1.96 4.912-3.822ZM91.086 11.565h-3.708V22.2a.377.377 0 0 1-.369.368h-1.842a.377.377 0 0 1-.368-.368V11.565H81.09c-.196 0-.368-.122-.368-.343v-1.47c0-.196.172-.343.368-.343h9.996c.197 0 .369.147.369.343v1.47c0 .22-.172.343-.369.343ZM79.101 17.495V9.777c0-.196-.172-.343-.368-.343H76.89c-.197 0-.369.147-.369.343v7.693c0 2.108-.982 3.112-2.972 3.112-1.989 0-2.971-1.005-2.971-3.112V9.777c0-.196-.172-.343-.369-.343h-1.842c-.196 0-.368.147-.368.343v7.693c0 3.945 2.579 5.244 5.55 5.244 2.972 0 5.551-1.274 5.551-5.22ZM95.728 16.858h5.944a.377.377 0 0 0 .368-.368v-1.347a.377.377 0 0 0-.368-.368h-5.944v-1.69c0-1.544.05-1.593 1.474-1.593h4.691a.377.377 0 0 0 .368-.368V9.948c0-.27-.098-.343-.368-.392-.59-.098-1.793-.27-4.004-.27-3.07 0-4.715-.024-4.715 3.799v5.855c0 3.823 1.645 3.798 4.715 3.798 2.211 0 3.414-.171 4.004-.27.27-.024.368-.122.368-.391V20.9a.377.377 0 0 0-.368-.368h-4.691c-1.4 0-1.474-.049-1.474-1.593v-2.082ZM59.06 16.858h5.944a.377.377 0 0 0 .368-.368v-1.347a.377.377 0 0 0-.368-.368H59.06v-1.69c0-1.544.05-1.593 1.474-1.593h4.69a.377.377 0 0 0 .369-.368V9.948c0-.27-.098-.343-.368-.392-.59-.098-1.793-.27-4.004-.27-3.07 0-4.715-.024-4.715 3.799v5.855c0 3.823 1.645 3.798 4.715 3.798 2.21 0 3.414-.171 4.004-.27.27-.024.368-.122.368-.391V20.9a.377.377 0 0 0-.368-.368h-4.691c-1.4 0-1.474-.049-1.474-1.593v-2.082ZM116.064 22.2l-2.898-4.95c1.522-.588 2.505-1.666 2.505-3.627v-.146c0-3.161-2.628-4.19-5.502-4.19-1.35 0-3.438.098-4.396.245-.368.049-.589.196-.589.563v12.129c0 .196.172.367.368.367h1.867c.196 0 .344-.171.344-.367v-4.582c.417.024 1.915.073 2.406.073h.418l2.677 4.484c.098.172.172.368.368.368h2.26c.147 0 .221-.098.221-.22 0-.05-.025-.099-.049-.148Zm-2.972-8.576c0 1.617-1.031 1.984-2.947 1.984-.319 0-2.112-.049-2.407-.049v-3.994c.319-.049 2.014-.073 2.407-.073 1.866 0 2.947.588 2.947 1.984v.147ZM54.492 22.2l-2.923-4.95c1.523-.588 2.505-1.666 2.505-3.627v-.146c0-3.161-2.628-4.19-5.501-4.19-1.351 0-3.439.098-4.396.245-.369.049-.59.196-.59.563v12.129c0 .196.172.367.369.367h1.866c.197 0 .344-.171.344-.367v-4.582a72.25 72.25 0 0 0 2.407.073h.417l2.677 4.484c.099.172.172.368.369.368h2.26c.147 0 .22-.098.22-.22 0-.05 0-.099-.024-.148Zm-2.972-8.576c0 1.617-1.032 1.984-2.923 1.984-.319 0-2.112-.049-2.407-.049v-3.994c.32-.049 2.014-.073 2.407-.073 1.867 0 2.923.588 2.923 1.984v.147Z"/>
    </g>
    <defs>
        <clipPath id="ha">
            <path fill="#fff" transform="translate(.435)" d="M0 0h127v32H0z"/>
        </clipPath>
    </defs>
</svg><svg fill="none" viewBox="0 0 190 32" id="brand_verge" xmlns="http://www.w3.org/2000/svg">
    <path d="M156.417 31.828c-5.509-.966-10.08-4.644-12.151-9.777-1.068-2.644-1.429-7.177-.79-9.897.911-3.873 3.362-7.415 6.548-9.467 2.83-1.82 5.068-2.335 10.987-2.52L166.313 0v11.137l-2.039-.834c-1.34-.547-2.879-.88-4.487-.97-2.284-.128-2.549-.07-3.981.854-2.053 1.326-2.999 3.153-3.019 5.825-.012 1.732.126 2.218.977 3.434 1.323 1.887 3.124 2.884 5.208 2.884 2.165 0 2.515-.266 2.388-1.822l-.104-1.276-2.529.016-2.528.017V12.03l6.851.094 6.852.095v6.648c0 4.04.144 7.058.364 7.694.457 1.316.029 1.85-2.621 3.266-3.193 1.707-8.008 2.566-11.228 2.001ZM6.315 30.605c.151-.315.321-5.338.378-11.161l.1-10.589-2.96.115-2.963.115.09-4.418L1.05.25 8.636.16l7.586-.088v31.105H11.13c-4.738 0-5.073-.04-4.815-.572ZM18.179 15.63V.085h13.378V9.14l-1.794-.15-1.795-.149v3.354h5.547V.085h9.789v31.093H32.878l.319-.84c.175-.462.319-3.04.319-5.727v-4.888h-5.579l.1 5.155c.054 2.834.223 5.412.376 5.727.259.533-.084.573-4.978.573h-5.256V15.63Zm26.47 15.006c.681-.822.838-27.266.174-29.199L44.358.085h18.848v9.068l-1.713-.45c-.967-.254-2.85-.412-4.323-.362l-2.61.09-.1 1.923-.099 1.924 2.791-.146 2.791-.147v7.659l-1.443-.31c-.794-.17-2.005-.262-2.692-.205l-1.248.103-.1 1.754-.1 1.754 3.69-.162c2.028-.088 4.018-.27 4.423-.401l.733-.24v9.24h-9.5c-8.8 0-9.47-.04-9.055-.54l-.001-.001Zm37.048-.523C77.182 19.278 69.412 1.717 68.822 1.012l-.78-.928h10.96c6.028 0 10.96.11 10.959.246 0 .134-.64 1.94-1.423 4.01l-1.42 3.763-2.492.096c-1.37.052-2.493.151-2.493.22 0 .31 3.056 8.55 3.256 8.777.123.141 1.665-3.65 3.426-8.427l3.2-8.684h25.355v4.78c0 4.436-.04 4.762-.571 4.517-.314-.145-2.296-.32-4.404-.389l-3.834-.126v3.41l2.773-.146 2.774-.146v7.659l-1.444-.31c-.794-.17-2.005-.262-2.691-.205l-1.249.103-.097 1.882-.099 1.882h2.912c1.754 0 3.463-.196 4.299-.491.763-.27 1.443-.491 1.51-.491.066 0 .121 2.062.121 4.582v4.582h-9.502c-7.783 0-9.438-.078-9.148-.428.389-.47.708-23.138.325-23.138-.12 0-2.464 5.302-5.212 11.784l-4.996 11.782H82.14l-.442-1.064-.001-.001ZM118.314.007l5.978.01c8.776.004 11.679.657 14.231 3.224 3.135 3.154 3.56 9.23.896 12.864l-.795 1.078 1.398 1.078c2.107 1.618 3.432 4.394 4.172 8.757.336 1.98.684 3.737.786 3.9.107.175-2.133.299-5.397.299h-5.581l.379-.7c.584-1.1.185-3.711-.797-5.204-.869-1.323-2.666-2.712-4.039-3.12-.734-.22-.735-.212-.735 3.767 0 2.192.151 4.27.337 4.62.329.617.168.637-5.263.637-5.219 0-5.577-.04-5.316-.575.358-.734.367-28.909.01-29.896l-.264-.74v.001Zm11.211 8.223c-.692-.043-.715.688-.715 2.946v2.957h1c.676 0 1.318-.31 1.959-.955 1.511-1.52 1.118-3.658-.827-4.476-.648-.273-1.103-.452-1.417-.472Zm41.602 22.416c.359-.736.369-28.91.012-29.901L170.87 0l9.409.087 9.408.088.091 4.542.092 4.542-.745-.24c-1.809-.584-3.197-.78-5.559-.788l-2.53-.007v4.024l2.776-.146 2.774-.147v3.92c0 3.598-.047 3.9-.571 3.695-.315-.123-1.548-.306-2.74-.408l-2.17-.185-.116 1.729c-.08 1.208.012 1.779.31 1.894.554.214 6.861-.13 7.816-.426l.736-.227v9.274h-9.502c-8.939 0-9.485-.035-9.222-.575Z" fill="#2C0546" fill-opacity=".8"/>
</svg></svg>