<svg width="104" height="32" viewBox="0 0 104 32" fill="none" xmlns="http://www.w3.org/2000/svg">
<path d="M3.92374 10.4032C3.92374 11.6586 4.26066 11.798 5.68531 11.8562V12.3037H0.0138947V11.8562C1.19194 11.798 1.52886 11.6586 1.52886 10.4032V2.19689C1.52886 0.935724 1.19194 0.79624 0.0451554 0.743933V0.284794H10.0583L10.126 2.93499H9.63337C9.2102 1.59245 8.75345 1.16819 6.40893 1.16819H4.59294C4.04762 1.16819 3.92374 1.29024 3.92374 1.79006V5.59101H5.97013C7.83764 5.59101 8.24229 5.25391 8.47095 3.99855H8.93002V8.247H8.47095C8.22435 6.82891 7.51867 6.4744 5.97013 6.4744H3.92374V10.4032ZM15.732 10.4032C15.732 11.6586 16.0643 11.798 17.4936 11.8562V12.3037H11.5709V11.8562C13.0025 11.798 13.3325 11.6586 13.3325 10.4032V2.19689C13.3325 0.935724 13.0025 0.79624 11.5709 0.743933V0.284794H17.4936V0.743933C16.0643 0.79624 15.732 0.935724 15.732 2.19689V10.4032ZM29.8472 2.53397C29.8472 1.36579 29.5282 0.889229 28.2234 0.743933V0.284794H32.4522V0.743933C31.1497 0.889229 30.833 1.36579 30.833 2.53397V12.6001H30.2339L22.0593 3.11516V10.0661C22.0593 11.2343 22.3737 11.7109 23.6785 11.8562V12.3037H19.4474V11.8562C20.7522 11.7109 21.0688 11.2343 21.0688 10.0661V1.97022C20.6642 1.25537 20.1866 0.918287 19.4474 0.743933V0.284794H22.7083L29.8472 8.56666V2.53397ZM36.2422 7.9971L38.0397 3.2372L39.8215 7.9971H36.2422ZM44.8237 12.3037V11.8562C43.9259 11.8736 43.6978 11.4842 43.239 10.3509L39.0258 0H38.4469L34.0578 10.7229C33.7573 11.4668 33.3521 11.6934 32.5949 11.8562V12.3037H36.4005V11.8562C35.5727 11.8562 35.1681 11.676 35.1681 11.0948C35.1681 10.6008 35.7157 9.2699 35.8535 8.88051H40.1906C40.3307 9.2699 40.9119 10.6008 40.9119 11.0948C40.9119 11.676 40.4731 11.8562 39.6435 11.8562V12.3037H44.8237ZM56.4375 2.53397C56.4375 1.36579 56.1214 0.889229 54.8186 0.743933V0.284794H59.0472V0.743933C57.7423 0.889229 57.4239 1.36579 57.4239 2.53397V12.6001H56.8265L48.6491 3.11516L48.6494 10.0661C48.6494 11.2343 48.966 11.7109 50.2708 11.8562V12.3037H46.0397V11.8562C47.3445 11.7109 47.6635 11.2343 47.6635 10.0661V1.97022C47.2565 1.25537 46.7795 0.918287 46.0397 0.743933V0.284794H49.3006L56.4372 8.56666L56.4375 2.53397ZM71.568 9.47913C70.3153 11.6237 68.6759 12.6001 66.1907 12.6001C62.2965 12.6001 59.9879 10.0312 59.9879 6.18962C59.9879 3.45225 62.1385 0 66.3152 0C67.5656 0 69.3428 0.709045 69.6097 0.709045C69.9605 0.709045 70.0664 0.517254 70.3518 0H70.9486L71.197 4.01598H70.6679C69.9605 2.15619 68.7124 0.813673 66.6139 0.813673C63.7935 0.813673 62.5616 3.87651 62.5616 6.18962C62.5616 9.43263 63.9521 11.6062 66.9323 11.6062C69.2571 11.6062 70.544 9.87433 71.091 9.11298L71.568 9.47913ZM77.3709 10.4032C77.3709 11.6586 77.7078 11.798 79.1342 11.8562V12.3037H73.2121V11.8562C74.6414 11.798 74.976 11.6586 74.976 10.4032V2.19689C74.976 0.935724 74.6414 0.79624 73.2121 0.743933V0.284794H79.1342V0.743933C77.7078 0.79624 77.3709 0.935724 77.3709 2.19689V10.4032ZM84.0415 7.9971L85.8389 3.2372L87.619 7.9971H84.0415ZM92.6253 12.3037V11.8562C91.7251 11.8736 91.497 11.4842 91.0403 10.3509L86.8271 0H86.2465L81.8573 10.7229C81.5563 11.4668 81.1516 11.6934 80.3939 11.8562V12.3037H84.1995V11.8562C83.3723 11.8562 82.9676 11.676 82.9676 11.0948C82.9676 10.6008 83.5147 9.2699 83.6548 8.88051H87.9895C88.1296 9.2699 88.7108 10.6008 88.7108 11.0948C88.7108 11.676 88.2703 11.8562 87.4425 11.8562V12.3037H92.6253ZM93.6725 12.3037V11.8562C94.8187 11.8039 95.1533 11.6586 95.1533 10.4032V2.19689C95.1533 0.935724 94.8187 0.79624 93.6725 0.743933V0.284794H99.2056V0.743933C97.8851 0.79624 97.5482 0.935724 97.5482 2.19689V10.6357C97.5482 11.3622 97.7607 11.6062 99.0997 11.6062C101.25 11.6062 102.519 11.2169 103.541 9.09554H104L103.19 12.3037H93.6725ZM2.64149 31.2619C4.00247 31.2038 4.33476 31.0643 4.33476 29.8089V20.5739H2.85626C1.46344 20.5739 0.915811 21.1377 0.52911 22.765H0L0.2825 19.6905H10.7842L11.0667 22.765H10.5353C10.1509 21.1377 9.60385 20.5739 8.21335 20.5739H6.73195V29.8089C6.73195 31.0643 7.06655 31.2038 8.42117 31.2619V31.7094H2.64149V31.2619ZM16.4579 29.8089C16.4579 31.0643 16.7949 31.2038 18.2218 31.2561V31.7094H12.2992V31.2561C13.7308 31.2038 14.0631 31.0643 14.0631 29.8089V21.5968C14.0631 20.3414 13.7308 20.202 12.2992 20.1497V19.6847H18.2218V20.1497C16.7949 20.202 16.4579 20.3414 16.4579 21.5968V29.8089ZM30.8012 19.6905H34.9258V20.1497C33.7796 20.202 33.4473 20.3414 33.4473 21.5968V29.8089C33.4473 31.0643 33.7796 31.2038 34.9258 31.2619V31.7094H29.5328V31.2619C30.7132 31.2038 31.0501 31.0643 31.0501 29.8089V21.3527H31.0137L27.0135 31.8605H26.4664L22.5566 21.3527H22.5207V29.4718C22.5207 30.64 22.8368 31.1166 24.1416 31.2619V31.7094H19.9134V31.2619C21.2159 31.1166 21.5325 30.64 21.5325 29.4718V21.3004C21.5325 20.4693 21.1817 20.1497 19.9134 20.1497V19.6905H24.2661L27.4546 28.0363L30.8012 19.6905ZM36.6266 31.7094V31.2619C37.7705 31.2038 38.1051 31.0643 38.1051 29.8089V21.5968C38.1051 20.3414 37.7705 20.202 36.6266 20.1497V19.6905H46.6345L46.7049 22.3407H46.214C45.789 20.9982 45.33 20.5739 42.9875 20.5739H41.1738C40.6244 20.5739 40.5046 20.696 40.5046 21.19V24.9967H42.5464C44.4142 24.9967 44.8188 24.6596 45.0498 23.4043H45.5083V27.6469H45.0498C44.8009 26.2346 44.0975 25.8801 42.5464 25.8801H40.5046V30.0414C40.5046 30.7621 40.7148 31.012 42.8295 31.012C44.9774 31.012 46.2481 30.6226 47.2699 28.4955H47.7272L46.9173 31.7094H36.6266ZM49.2853 27.9317H49.7467C50.2555 29.5242 51.7728 31.1863 53.5367 31.1863C55.0493 31.1863 55.5967 30.1286 55.5967 29.1871C55.5967 26.4264 49.3938 25.915 49.3938 22.486C49.3935 20.8238 50.9971 19.4057 52.8287 19.4057C54.6262 19.4057 55.2598 20.0392 56.0557 20.0392C56.3903 20.0392 56.601 19.7777 56.689 19.4057H57.1481V23.2241H56.689C56.1958 21.4922 54.9636 20.2194 53.3398 20.2194C52.0032 20.2194 51.5059 21.0854 51.5059 21.9048C51.5059 24.3574 57.7117 24.433 57.7117 28.6582C57.7111 30.547 56.162 32 54.0088 32C51.8946 32 51.3493 31.2619 50.5198 31.2619C50.2054 31.2619 49.9907 31.4711 49.9224 31.8605H49.285L49.2853 27.9317Z" fill="#2C0546" fill-opacity="0.8"/>
</svg>
