<svg width="128" height="32" viewBox="0 0 128 32" fill="none" xmlns="http://www.w3.org/2000/svg">
<g clip-path="url(#clip0_2015_394)">
<path d="M32.9281 19.3569C32.3387 19.3569 31.7984 19.651 31.5036 20.141C31.2089 20.6311 31.2089 21.2681 31.5036 21.7582C31.7984 22.2482 32.3387 22.5667 32.9281 22.5422C33.8123 22.5177 34.5 21.8072 34.5 20.9496C34.5245 20.092 33.8123 19.3814 32.9281 19.3569Z" fill="#2C0546" fill-opacity="0.8"/>
<path d="M30.8895 23.5225C30.1282 23.5225 29.5142 24.135 29.5142 24.8701C29.5142 25.6297 30.1282 26.2422 30.8895 26.2422C31.6509 26.2422 32.2649 25.6297 32.2649 24.8701C32.2649 24.135 31.6509 23.5225 30.8895 23.5225Z" fill="#2C0546" fill-opacity="0.8"/>
<path d="M27.9067 29.131C28.5573 29.1094 29.0673 28.5656 29.0456 27.9165C29.0239 27.2673 28.4789 26.7586 27.8282 26.7802C27.1775 26.8018 26.6676 27.3456 26.6893 27.9947C26.7109 28.6439 27.256 29.1526 27.9067 29.131Z" fill="#2C0546" fill-opacity="0.8"/>
<path d="M24.4548 28.9863C23.9145 28.9863 23.4969 29.4029 23.4969 29.9419C23.4969 30.481 23.9145 30.8975 24.4548 30.8975C24.9951 30.8975 25.4126 30.481 25.4126 29.9419C25.4126 29.4029 24.9951 28.9863 24.4548 28.9863Z" fill="#2C0546" fill-opacity="0.8"/>
<path d="M21.1147 30.1379C20.6726 30.1379 20.3042 30.5055 20.3042 30.9465C20.3042 31.3876 20.6726 31.7551 21.1147 31.7551C21.5568 31.7551 21.9252 31.3876 21.9252 30.9465C21.9497 30.5055 21.5813 30.1379 21.1147 30.1379Z" fill="#2C0546" fill-opacity="0.8"/>
<path d="M17.9956 30.6038C17.6026 30.6038 17.2833 30.9223 17.2833 31.3143C17.2833 31.7064 17.6026 32.0249 17.9956 32.0249C18.3885 32.0249 18.7078 31.7064 18.7078 31.3143C18.6832 30.9223 18.364 30.6038 17.9956 30.6038Z" fill="#2C0546" fill-opacity="0.8"/>
<path d="M14.8519 30.1379C14.4098 30.1379 14.0414 30.5055 14.0414 30.9465C14.0414 31.3876 14.4098 31.7551 14.8519 31.7551C15.2939 31.7551 15.6623 31.3876 15.6623 30.9465C15.6623 30.5055 15.2939 30.1379 14.8519 30.1379Z" fill="#2C0546" fill-opacity="0.8"/>
<path d="M11.5117 28.9619C11.1679 28.9619 10.8486 29.1334 10.6767 29.4275C10.5047 29.7215 10.5047 30.089 10.6767 30.383C10.8486 30.6771 11.1679 30.8486 11.5117 30.8486C12.0275 30.8486 12.4696 30.4321 12.4696 29.893C12.445 29.403 12.0275 28.9864 11.5117 28.9619Z" fill="#2C0546" fill-opacity="0.8"/>
<path d="M8.09782 26.7812C7.68029 26.7812 7.28733 27.0018 7.06629 27.3693C6.84525 27.7368 6.84525 28.1779 7.06629 28.5454C7.28733 28.9129 7.65573 29.1335 8.09782 29.1335C8.73638 29.1335 9.2767 28.6189 9.2767 27.9574C9.2767 27.3203 8.76094 26.7812 8.09782 26.7812Z" fill="#2C0546" fill-opacity="0.8"/>
<path d="M5.07702 23.5225C4.31566 23.5225 3.70166 24.135 3.70166 24.8946C3.70166 25.6542 4.31566 26.2667 5.07702 26.2667C5.83838 26.2667 6.45239 25.6542 6.45239 24.8946C6.42783 24.135 5.83838 23.5225 5.07702 23.5225Z" fill="#2C0546" fill-opacity="0.8"/>
<path d="M3.03847 19.3568C2.44903 19.3323 1.90871 19.6508 1.61398 20.1409C1.31926 20.6309 1.31926 21.268 1.61398 21.758C1.90871 22.2481 2.44903 22.5666 3.03847 22.5421C3.92263 22.5176 4.61031 21.807 4.61031 20.9494C4.61031 20.0919 3.89807 19.3813 3.03847 19.3568Z" fill="#2C0546" fill-opacity="0.8"/>
<path d="M2.30174 14.1626C1.27022 14.1626 0.435181 14.9957 0.435181 16.0248C0.435181 17.0539 1.27022 17.8869 2.30174 17.8869C3.33327 17.8869 4.16831 17.0539 4.16831 16.0248C4.14375 14.9957 3.33327 14.1626 2.30174 14.1626Z" fill="#2C0546" fill-opacity="0.8"/>
<path d="M3.03847 9.45801C2.44903 9.45801 1.90871 9.75204 1.61398 10.2421C1.31926 10.7321 1.31926 11.3692 1.61398 11.8592C1.90871 12.3493 2.44903 12.6678 3.03847 12.6433C3.92263 12.6188 4.61031 11.9082 4.61031 11.0507C4.61031 10.1931 3.89807 9.48251 3.03847 9.45801Z" fill="#2C0546" fill-opacity="0.8"/>
<path d="M5.07697 5.7583C4.58577 5.7583 4.11913 6.00332 3.87353 6.44436C3.62793 6.8609 3.62793 7.39995 3.87353 7.81649C4.11913 8.23303 4.58577 8.50256 5.07697 8.50256C5.81378 8.47806 6.42778 7.89 6.42778 7.13043C6.40322 6.39536 5.81378 5.7828 5.07697 5.7583Z" fill="#2C0546" fill-opacity="0.8"/>
<path d="M8.09783 2.86694C7.45927 2.86694 6.91895 3.38149 6.91895 4.04305C6.91895 4.68011 7.43471 5.21916 8.09783 5.21916C8.73639 5.21916 9.27671 4.70462 9.27671 4.04305C9.27671 3.40599 8.76095 2.86694 8.09783 2.86694Z" fill="#2C0546" fill-opacity="0.8"/>
<path d="M11.5117 1.1272C10.9959 1.1272 10.5538 1.54374 10.5538 2.08279C10.5538 2.59734 10.9714 3.03838 11.5117 3.03838C12.0274 3.03838 12.4695 2.62184 12.4695 2.08279C12.445 1.56824 12.0274 1.1272 11.5117 1.1272Z" fill="#2C0546" fill-opacity="0.8"/>
<path d="M14.8519 0.245117C14.3852 0.245117 14.0168 0.612652 14.0168 1.0782C14.0168 1.54374 14.3852 1.91127 14.8519 1.91127C15.294 1.91127 15.6624 1.54374 15.6624 1.1027C15.6378 0.612652 15.294 0.245117 14.8519 0.245117Z" fill="#2C0546" fill-opacity="0.8"/>
<path d="M17.971 0.000244141C17.5781 0.000244141 17.2588 0.318774 17.2588 0.710811C17.2588 1.10285 17.5781 1.42138 17.971 1.42138C18.364 1.42138 18.6833 1.10285 18.6833 0.710811C18.6833 0.318774 18.364 0.000244141 17.971 0.000244141Z" fill="#2C0546" fill-opacity="0.8"/>
<path d="M21.1147 0.245117C20.6726 0.245117 20.3042 0.612652 20.3042 1.05369C20.3042 1.49473 20.6726 1.86227 21.1147 1.86227C21.5568 1.86227 21.9252 1.49473 21.9252 1.05369C21.9497 0.612652 21.5813 0.245117 21.1147 0.245117Z" fill="#2C0546" fill-opacity="0.8"/>
<path d="M24.4548 1.1272C24.111 1.1272 23.7917 1.29871 23.6198 1.59274C23.4479 1.88677 23.4479 2.2543 23.6198 2.54833C23.7917 2.84236 24.111 3.01387 24.4548 3.01387C24.9706 3.01387 25.4127 2.59733 25.4127 2.05828C25.4127 1.51923 24.9951 1.1272 24.4548 1.1272Z" fill="#2C0546" fill-opacity="0.8"/>
<path d="M27.8687 2.89136C27.2301 2.89136 26.6898 3.40591 26.6898 4.06747C26.6898 4.70453 27.2056 5.24358 27.8687 5.24358C28.5073 5.24358 29.0476 4.72903 29.0476 4.06747C29.0476 3.40591 28.5073 2.89136 27.8687 2.89136Z" fill="#2C0546" fill-opacity="0.8"/>
<path d="M30.8895 5.7583C30.1282 5.7583 29.5142 6.37086 29.5142 7.13043C29.5142 7.89 30.1282 8.50256 30.8895 8.50256C31.6509 8.50256 32.2649 7.89 32.2649 7.13043C32.2649 6.37086 31.6509 5.7583 30.8895 5.7583Z" fill="#2C0546" fill-opacity="0.8"/>
<path d="M32.9281 9.45801C32.3387 9.45801 31.7984 9.75204 31.5036 10.2421C31.2089 10.7321 31.2089 11.3692 31.5036 11.8592C31.7984 12.3493 32.3387 12.6678 32.9281 12.6433C33.8123 12.6188 34.5 11.9082 34.5 11.0507C34.5 10.1686 33.8123 9.45801 32.9281 9.45801Z" fill="#2C0546" fill-opacity="0.8"/>
<path d="M25.56 18.4504C25.2898 18.4504 25.0442 18.5729 24.9214 18.7935C24.7986 19.014 24.7986 19.308 24.9214 19.5285C25.0442 19.7491 25.2898 19.8961 25.56 19.8716C25.953 19.8471 26.2477 19.5285 26.2477 19.161C26.2722 18.7935 25.953 18.4749 25.56 18.4504Z" fill="#2C0546" fill-opacity="0.8"/>
<path d="M23.7672 21.1213C23.497 21.1213 23.2514 21.2438 23.1286 21.4644C23.0058 21.6849 23.0058 21.9789 23.1286 22.1994C23.2514 22.42 23.5216 22.567 23.7672 22.5425C24.1601 22.518 24.4548 22.1994 24.4548 21.8319C24.4548 21.4644 24.1601 21.1458 23.7672 21.1213Z" fill="#2C0546" fill-opacity="0.8"/>
<path d="M21.0902 22.8364C20.82 22.8364 20.5499 22.9834 20.4025 23.2285C20.2552 23.4735 20.2552 23.7675 20.4025 24.0125C20.5499 24.2576 20.7955 24.4046 21.0902 24.4046C21.5323 24.4046 21.8761 24.0615 21.8761 23.6205C21.8761 23.1795 21.5323 22.8364 21.0902 22.8364Z" fill="#2C0546" fill-opacity="0.8"/>
<path d="M17.9465 23.3018C17.357 23.3018 16.8904 23.7673 16.8904 24.3554C16.8904 24.9434 17.357 25.409 17.9465 25.409C18.5359 25.409 19.0025 24.9434 19.0025 24.3554C18.978 23.7673 18.5113 23.3018 17.9465 23.3018Z" fill="#2C0546" fill-opacity="0.8"/>
<path d="M14.7783 22.6648C14.1152 22.6648 13.5748 23.2038 13.5748 23.8654C13.5748 24.527 14.1152 25.066 14.7783 25.066C15.4414 25.066 15.9817 24.527 15.9817 23.8654C15.9817 23.2038 15.4414 22.6648 14.7783 22.6648Z" fill="#2C0546" fill-opacity="0.8"/>
<path d="M11.9293 20.6555C11.1925 20.6555 10.603 21.2436 10.603 21.9786C10.603 22.7137 11.1925 23.3018 11.9293 23.3018C12.6661 23.3018 13.2555 22.7137 13.2555 21.9786C13.2555 21.2436 12.6661 20.6555 11.9293 20.6555Z" fill="#2C0546" fill-opacity="0.8"/>
<path d="M10.0382 17.9604C9.42418 17.9604 8.93298 18.4505 8.93298 19.0631C8.93298 19.6756 9.42418 20.1657 10.0382 20.1657C10.6522 20.1657 11.1434 19.6756 11.1434 19.0631C11.1679 18.475 10.6522 17.9604 10.0382 17.9604Z" fill="#2C0546" fill-opacity="0.8"/>
<path d="M9.59605 15.02C9.12941 15.02 8.73645 15.4121 8.73645 15.8776C8.73645 16.3431 9.12941 16.7352 9.59605 16.7352C10.0627 16.7352 10.4557 16.3431 10.4557 15.8776C10.4557 15.3876 10.0873 15.02 9.59605 15.02Z" fill="#2C0546" fill-opacity="0.8"/>
<path d="M10.3574 12.1289C9.96442 12.1289 9.64514 12.4474 9.64514 12.8395C9.64514 13.2315 9.96442 13.55 10.3574 13.55C10.7503 13.55 11.0696 13.2315 11.0696 12.8395C11.0942 12.4474 10.7503 12.1289 10.3574 12.1289Z" fill="#2C0546" fill-opacity="0.8"/>
<path d="M12.1749 9.48267C11.9047 9.48267 11.6591 9.60518 11.5363 9.8257C11.4135 10.0462 11.4135 10.3402 11.5363 10.5608C11.6591 10.7813 11.9293 10.9283 12.1749 10.9038C12.5678 10.9038 12.8871 10.5853 12.8871 10.1932C12.8626 9.8012 12.5433 9.48267 12.1749 9.48267Z" fill="#2C0546" fill-opacity="0.8"/>
<path d="M14.8273 7.62036C14.3852 7.62036 14.0414 7.96339 14.0414 8.40443C14.0414 8.84548 14.3852 9.18851 14.8273 9.18851C15.2694 9.18851 15.6132 8.84548 15.6132 8.40443C15.6132 7.9879 15.2694 7.62036 14.8273 7.62036Z" fill="#2C0546" fill-opacity="0.8"/>
<path d="M19.0461 7.6972C19.0685 7.11572 18.6141 6.62623 18.0313 6.6039C17.4484 6.58157 16.9578 7.03485 16.9354 7.61633C16.913 8.19781 17.3674 8.68729 17.9502 8.70962C18.5331 8.73195 19.0237 8.27867 19.0461 7.6972Z" fill="#2C0546" fill-opacity="0.8"/>
<path d="M21.1392 6.95898C20.4761 6.95898 19.9358 7.49803 19.9358 8.1596C19.9358 8.82116 20.4761 9.36021 21.1392 9.36021C21.8024 9.36021 22.3427 8.82116 22.3427 8.1596C22.3427 7.49803 21.8024 6.95898 21.1392 6.95898Z" fill="#2C0546" fill-opacity="0.8"/>
<path d="M23.9882 8.7229C23.2514 8.7229 22.662 9.31096 22.662 10.046C22.662 10.7811 23.2514 11.3691 23.9882 11.3691C24.725 11.3691 25.3145 10.7811 25.3145 10.046C25.3145 9.31096 24.725 8.7229 23.9882 8.7229Z" fill="#2C0546" fill-opacity="0.8"/>
<path d="M25.8794 11.8347C25.2654 11.8347 24.7742 12.3248 24.7742 12.9373C24.7742 13.5499 25.2654 14.0399 25.8794 14.0399C26.4934 14.0399 26.9846 13.5499 26.9846 12.9373C26.9846 12.3248 26.4934 11.8347 25.8794 11.8347Z" fill="#2C0546" fill-opacity="0.8"/>
<path d="M22.9812 18.0338C23.3475 18.0338 23.6444 17.7376 23.6444 17.3723C23.6444 17.0069 23.3475 16.7107 22.9812 16.7107C22.615 16.7107 22.3181 17.0069 22.3181 17.3723C22.3181 17.7376 22.615 18.0338 22.9812 18.0338Z" fill="#2C0546" fill-opacity="0.8"/>
<path d="M21.6795 18.7688C21.1392 18.7688 20.6971 19.2098 20.6971 19.7489C20.6971 20.2879 21.1392 20.729 21.6795 20.729C22.2199 20.729 22.6619 20.2879 22.6619 19.7489C22.6865 19.2098 22.2444 18.7688 21.6795 18.7688Z" fill="#2C0546" fill-opacity="0.8"/>
<path d="M19.1499 20.092C18.585 20.092 18.1184 20.5576 18.1184 21.1211C18.1184 21.6847 18.585 22.1502 19.1499 22.1502C19.7148 22.1502 20.1815 21.6847 20.1815 21.1211C20.1815 20.5576 19.7148 20.092 19.1499 20.092Z" fill="#2C0546" fill-opacity="0.8"/>
<path d="M16.1535 20.0186C15.8342 20.0186 15.5149 20.1901 15.3676 20.4841C15.1957 20.7781 15.1957 21.1212 15.3676 21.3907C15.5395 21.6847 15.8342 21.8562 16.1535 21.8562C16.6693 21.8562 17.0622 21.4397 17.0622 20.9496C17.0868 20.4351 16.6693 20.0186 16.1535 20.0186Z" fill="#2C0546" fill-opacity="0.8"/>
<path d="M13.9432 18.5239C13.5748 18.5239 13.28 18.818 13.28 19.1855C13.28 19.553 13.5748 19.8471 13.9432 19.8471C14.3116 19.8471 14.6063 19.553 14.6063 19.1855C14.6308 18.8425 14.3116 18.5239 13.9432 18.5239Z" fill="#2C0546" fill-opacity="0.8"/>
<path d="M13.0589 16.5884C12.7888 16.5884 12.5677 16.8089 12.5677 17.0784C12.5677 17.348 12.7888 17.5685 13.0589 17.5685C13.3291 17.5685 13.5502 17.348 13.5502 17.0784C13.5502 16.8089 13.3291 16.5884 13.0589 16.5884Z" fill="#2C0546" fill-opacity="0.8"/>
<path d="M13.0099 14.0647C12.6415 14.0647 12.3468 14.3587 12.3468 14.7263C12.3468 15.0938 12.6415 15.3878 13.0099 15.3878C13.3783 15.3878 13.673 15.0938 13.673 14.7263C13.673 14.3587 13.3783 14.0647 13.0099 14.0647Z" fill="#2C0546" fill-opacity="0.8"/>
<path d="M14.3116 11.3447C13.7713 11.3447 13.3292 11.7858 13.3292 12.3248C13.3292 12.8639 13.7713 13.3049 14.3116 13.3049C14.8519 13.3049 15.294 12.8639 15.294 12.3248C15.294 11.7858 14.8519 11.3447 14.3116 11.3447Z" fill="#2C0546" fill-opacity="0.8"/>
<path d="M16.8413 9.92358C16.2765 9.92358 15.8098 10.3891 15.8098 10.9527C15.8098 11.5162 16.2765 11.9818 16.8413 11.9818C17.4062 11.9818 17.8729 11.5162 17.8729 10.9527C17.8729 10.3891 17.4062 9.92358 16.8413 9.92358Z" fill="#2C0546" fill-opacity="0.8"/>
<path d="M19.8376 10.2422C19.4938 10.2422 19.1991 10.4137 19.0271 10.6832C18.8552 10.9773 18.8552 11.3203 19.0271 11.6143C19.1991 11.9083 19.5183 12.0799 19.8376 12.0554C20.3288 12.0309 20.7218 11.6388 20.7218 11.1488C20.7218 10.6587 20.3288 10.2667 19.8376 10.2422Z" fill="#2C0546" fill-opacity="0.8"/>
<path d="M22.0235 12.2024C21.6551 12.2024 21.3604 12.4964 21.3604 12.864C21.3604 13.2315 21.6551 13.5255 22.0235 13.5255C22.3919 13.5255 22.6866 13.2315 22.6866 12.864C22.7112 12.4964 22.4164 12.2024 22.0235 12.2024Z" fill="#2C0546" fill-opacity="0.8"/>
<path d="M22.9567 14.53C22.6865 14.53 22.4655 14.7505 22.4655 15.0201C22.4655 15.2896 22.6865 15.5101 22.9567 15.5101C23.2268 15.5101 23.4479 15.2896 23.4479 15.0201C23.4479 14.7505 23.2268 14.53 22.9567 14.53Z" fill="#2C0546" fill-opacity="0.8"/>
<path d="M26.3214 15.2898C25.8548 15.2898 25.4618 15.6818 25.4618 16.1474C25.4618 16.6129 25.8548 17.005 26.3214 17.005C26.788 17.005 27.181 16.6129 27.181 16.1474C27.181 15.6818 26.788 15.2898 26.3214 15.2898Z" fill="#2C0546" fill-opacity="0.8"/>
<path d="M29.8826 16.3433C29.3668 16.3433 28.9739 16.7598 28.9739 17.2498C28.9739 17.7644 29.3914 18.1564 29.8826 18.1564C30.3984 18.1564 30.7913 17.7399 30.7913 17.2498C30.7913 16.7598 30.3984 16.3433 29.8826 16.3433Z" fill="#2C0546" fill-opacity="0.8"/>
<path d="M28.9739 19.553C28.5072 19.553 28.1143 19.945 28.1143 20.4106C28.1143 20.8761 28.5072 21.2681 28.9739 21.2681C29.4405 21.2681 29.8335 20.8761 29.8335 20.4106C29.8335 19.945 29.4651 19.553 28.9739 19.553Z" fill="#2C0546" fill-opacity="0.8"/>
<path d="M27.4266 22.2483C27.0337 22.2483 26.6898 22.5668 26.6898 22.9834C26.6898 23.3754 27.0091 23.7184 27.4266 23.7184C27.8196 23.7184 28.1389 23.3754 28.1389 22.9834C28.1389 22.5913 27.8196 22.2728 27.4266 22.2483Z" fill="#2C0546" fill-opacity="0.8"/>
<path d="M25.5601 24.2576C25.339 24.2576 25.118 24.3801 24.9952 24.5761C24.8724 24.7721 24.8724 25.0171 24.9952 25.2132C25.118 25.4092 25.3145 25.5317 25.5601 25.5317C25.9039 25.5317 26.1986 25.2622 26.1986 24.8946C26.1986 24.5516 25.9039 24.2576 25.5601 24.2576Z" fill="#2C0546" fill-opacity="0.8"/>
<path d="M23.5953 25.7275C23.3005 25.7275 23.0549 25.9726 23.0549 26.2666C23.0549 26.5606 23.3005 26.8056 23.5953 26.8056C23.89 26.8056 24.1356 26.5606 24.1356 26.2666C24.1356 25.9726 23.89 25.7275 23.5953 25.7275Z" fill="#2C0546" fill-opacity="0.8"/>
<path d="M21.3604 26.5608C21.0165 26.5608 20.7218 26.8303 20.7218 27.1979C20.7218 27.5409 20.992 27.8349 21.3604 27.8349C21.7042 27.8349 21.9989 27.5654 21.9989 27.1979C21.9744 26.8303 21.7042 26.5608 21.3604 26.5608Z" fill="#2C0546" fill-opacity="0.8"/>
<path d="M18.7324 26.9771C18.3394 26.9771 17.9956 27.2956 17.9956 27.7121C17.9956 28.1042 18.3149 28.4472 18.7324 28.4472C19.1254 28.4472 19.4692 28.1287 19.4692 27.7121C19.4446 27.2956 19.1254 26.9771 18.7324 26.9771Z" fill="#2C0546" fill-opacity="0.8"/>
<path d="M15.736 26.6833C15.2203 26.6833 14.8027 27.0999 14.8027 27.6144C14.8027 28.129 15.2203 28.5455 15.736 28.5455C16.2518 28.5455 16.6693 28.129 16.6693 27.6144C16.6693 27.0999 16.2518 26.6833 15.736 26.6833Z" fill="#2C0546" fill-opacity="0.8"/>
<path d="M12.5677 25.5562C11.9537 25.5562 11.4625 26.0462 11.4625 26.6588C11.4625 27.2713 11.9537 27.7614 12.5677 27.7614C13.1817 27.7614 13.6729 27.2713 13.6729 26.6588C13.6975 26.0462 13.1817 25.5562 12.5677 25.5562Z" fill="#2C0546" fill-opacity="0.8"/>
<path d="M9.7925 23.449C9.32586 23.449 8.88378 23.694 8.63818 24.086C8.39258 24.5026 8.39258 24.9926 8.63818 25.4092C8.88378 25.8257 9.32586 26.0707 9.7925 26.0462C10.5047 26.0217 11.0696 25.4582 11.0696 24.7476C11.0696 24.0615 10.5047 23.4735 9.7925 23.449Z" fill="#2C0546" fill-opacity="0.8"/>
<path d="M7.45927 20.3127C6.67335 20.3127 6.03479 20.9498 6.03479 21.7339C6.03479 22.5179 6.67335 23.155 7.45927 23.155C8.24519 23.155 8.88376 22.5179 8.88376 21.7339C8.88376 20.9253 8.24519 20.3127 7.45927 20.3127Z" fill="#2C0546" fill-opacity="0.8"/>
<path d="M7.27012 18.2242C7.31435 17.6033 6.84566 17.0642 6.22327 17.02C5.60088 16.9759 5.06047 17.4435 5.01624 18.0644C4.97201 18.6854 5.4407 19.2245 6.06309 19.2686C6.68549 19.3127 7.22589 18.8452 7.27012 18.2242Z" fill="#2C0546" fill-opacity="0.8"/>
<path d="M6.98057 14.8056C7.00832 14.3057 6.62458 13.878 6.12346 13.8503C5.62234 13.8226 5.19361 14.2054 5.16585 14.7054C5.1381 15.2053 5.52184 15.633 6.02296 15.6607C6.52408 15.6884 6.95282 15.3056 6.98057 14.8056Z" fill="#2C0546" fill-opacity="0.8"/>
<path d="M6.99266 10.7322C6.52602 10.7322 6.13306 11.1242 6.13306 11.5898C6.13306 12.0553 6.52602 12.4473 6.99266 12.4473C7.4593 12.4473 7.85226 12.0553 7.85226 11.5898C7.85226 11.1242 7.4593 10.7322 6.99266 10.7322Z" fill="#2C0546" fill-opacity="0.8"/>
<path d="M8.53999 8.30664C8.26983 8.30664 8.02423 8.42915 7.90143 8.67418C7.77863 8.8947 7.77863 9.18872 7.90143 9.40924C8.02423 9.62976 8.29439 9.77678 8.53999 9.77678C8.93295 9.77678 9.25223 9.43375 9.25223 9.04171C9.25223 8.62517 8.93295 8.30664 8.53999 8.30664Z" fill="#2C0546" fill-opacity="0.8"/>
<path d="M10.4065 6.49341C10.0627 6.49341 9.76794 6.76293 9.76794 7.13047C9.76794 7.4735 10.0381 7.76753 10.4065 7.76753C10.7749 7.76753 11.0451 7.498 11.0451 7.13047C11.0451 6.78744 10.7503 6.49341 10.4065 6.49341Z" fill="#2C0546" fill-opacity="0.8"/>
<path d="M12.3713 5.21924C12.0765 5.21924 11.8309 5.46426 11.8309 5.75829C11.8309 6.05232 12.0765 6.29734 12.3713 6.29734C12.666 6.29734 12.9116 6.05232 12.9116 5.75829C12.9116 5.43976 12.666 5.21924 12.3713 5.21924Z" fill="#2C0546" fill-opacity="0.8"/>
<path d="M14.6063 4.2146C14.2625 4.2146 13.9678 4.48412 13.9678 4.85166C13.9678 5.19469 14.2379 5.48872 14.6063 5.48872C14.9502 5.48872 15.2449 5.21919 15.2449 4.85166C15.2449 4.48412 14.9502 4.2146 14.6063 4.2146Z" fill="#2C0546" fill-opacity="0.8"/>
<path d="M17.2342 3.57739C16.964 3.57739 16.7184 3.6999 16.5956 3.94493C16.4728 4.16545 16.4728 4.45948 16.5956 4.68C16.7184 4.90052 16.9886 5.04753 17.2342 5.04753C17.6272 5.04753 17.9464 4.7045 17.9464 4.31246C17.9464 3.92042 17.6272 3.60189 17.2342 3.57739Z" fill="#2C0546" fill-opacity="0.8"/>
<path d="M20.2306 3.45483C19.8867 3.45483 19.5675 3.62635 19.3955 3.92038C19.2236 4.21441 19.2236 4.58194 19.3955 4.87597C19.5675 5.16999 19.8867 5.34151 20.2306 5.34151C20.7463 5.34151 21.1639 4.90047 21.1639 4.38592C21.1639 3.87137 20.7463 3.45483 20.2306 3.45483Z" fill="#2C0546" fill-opacity="0.8"/>
<path d="M23.3005 4.16553C22.6865 4.16553 22.1708 4.65557 22.1708 5.29263C22.1708 5.90519 22.662 6.41974 23.3005 6.41974C23.9145 6.41974 24.4303 5.92969 24.4303 5.29263C24.4303 4.68008 23.9145 4.16553 23.3005 4.16553Z" fill="#2C0546" fill-opacity="0.8"/>
<path d="M26.1987 5.92969C25.4619 5.92969 24.897 6.51774 24.897 7.22831C24.897 7.93888 25.4864 8.52693 26.1987 8.52693C26.9355 8.52693 27.5003 7.93888 27.5003 7.22831C27.5003 6.51774 26.9109 5.92969 26.1987 5.92969Z" fill="#2C0546" fill-opacity="0.8"/>
<path d="M28.5073 8.87012C27.9915 8.87012 27.5249 9.13964 27.2547 9.58068C26.9846 10.0217 26.9846 10.5608 27.2547 11.0018C27.5249 11.4429 27.9915 11.7124 28.5073 11.7124C29.2932 11.6879 29.9072 11.0753 29.9072 10.2913C29.8827 9.53168 29.2687 8.89462 28.5073 8.87012Z" fill="#2C0546" fill-opacity="0.8"/>
<path d="M29.809 12.7659C29.416 12.7659 29.023 12.9619 28.8266 13.3049C28.6301 13.648 28.6301 14.089 28.8266 14.432C29.023 14.7751 29.416 14.9956 29.809 14.9711C30.423 14.9466 30.8896 14.4565 30.8896 13.8685C30.8896 13.2804 30.423 12.7904 29.809 12.7659Z" fill="#2C0546" fill-opacity="0.8"/>
<path d="M35.5315 16.0004C35.5315 17.0295 34.6964 17.8625 33.6649 17.8625C32.6334 17.8625 31.7983 17.0295 31.7983 16.0004C31.7983 14.9713 32.6334 14.1382 33.6649 14.1382C34.6964 14.1627 35.5315 14.9958 35.5315 16.0004Z" fill="#2C0546" fill-opacity="0.8"/>
<path d="M127.435 18.8669C127.435 17.1027 126.428 16.1716 124.856 15.5346C123.628 15.0445 122.548 14.628 121.713 14.2849C120.902 13.9664 120.19 13.4029 120.19 12.7903C120.19 11.9572 121.222 11.4672 122.597 11.4672C124.218 11.4672 125.495 11.6877 126.698 11.8102H126.748C126.944 11.8102 127.067 11.6632 127.067 11.4672V10.095C127.067 9.92353 126.919 9.77651 126.723 9.75201C126.084 9.605 124.463 9.26196 122.695 9.26196C119.257 9.26196 117.611 10.7321 117.611 12.7903C117.611 14.0889 118.176 15.363 119.797 16.0246C121.418 16.6862 124.734 17.4702 124.734 18.8424C124.734 19.9205 124.242 20.5085 122.572 20.5085C120.853 20.5085 119.109 20.2635 118.373 20.1655H118.323C118.127 20.1655 117.98 20.3125 117.98 20.5085V21.8316C117.98 22.0277 118.152 22.1747 118.323 22.1992C119.208 22.3952 120.878 22.6892 122.523 22.6892C126.281 22.7382 127.435 20.729 127.435 18.8669Z" fill="#2C0546" fill-opacity="0.8"/>
<path d="M91.0863 11.5654H87.3777V22.1994C87.3777 22.3954 87.2058 22.5669 87.0093 22.5669H85.1673C84.9708 22.5669 84.7989 22.3954 84.7989 22.1994V11.5654H81.0903C80.8938 11.5654 80.7219 11.4429 80.7219 11.2223V9.75221C80.7219 9.55619 80.8938 9.40918 81.0903 9.40918H91.0863C91.2827 9.40918 91.4547 9.55619 91.4547 9.75221V11.2223C91.4547 11.4429 91.2827 11.5654 91.0863 11.5654Z" fill="#2C0546" fill-opacity="0.8"/>
<path d="M79.101 17.4949V9.77663C79.101 9.58061 78.9291 9.43359 78.7326 9.43359H76.8906C76.6941 9.43359 76.5222 9.58061 76.5222 9.77663V17.4703C76.5222 19.5775 75.5398 20.5821 73.5505 20.5821C71.5611 20.5821 70.5787 19.5775 70.5787 17.4703V9.77663C70.5787 9.58061 70.4068 9.43359 70.2103 9.43359H68.3683C68.1718 9.43359 67.9999 9.58061 67.9999 9.77663V17.4703C67.9999 21.4152 70.5787 22.7138 73.5505 22.7138C76.5222 22.7138 79.101 21.4397 79.101 17.4949Z" fill="#2C0546" fill-opacity="0.8"/>
<path d="M95.7282 16.8578H101.672C101.868 16.8578 102.04 16.6863 102.04 16.4903V15.1427C102.04 14.9467 101.868 14.7751 101.672 14.7751H95.7282V13.0845C95.7282 11.5408 95.7773 11.4918 97.2018 11.4918H101.893C102.089 11.4918 102.261 11.3203 102.261 11.1243V9.94819C102.261 9.67866 102.163 9.60515 101.893 9.55615C101.303 9.45814 100.1 9.28663 97.8895 9.28663C94.8195 9.28663 93.174 9.26212 93.174 13.0845V18.9405C93.174 22.7629 94.8195 22.7384 97.8895 22.7384C100.1 22.7384 101.303 22.5669 101.893 22.4689C102.163 22.4444 102.261 22.3463 102.261 22.0768V20.9007C102.261 20.7047 102.089 20.5332 101.893 20.5332H97.2018C95.8019 20.5332 95.7282 20.4842 95.7282 18.9405V16.8578Z" fill="#2C0546" fill-opacity="0.8"/>
<path d="M59.06 16.8578H65.0035C65.2 16.8578 65.3719 16.6863 65.3719 16.4903V15.1427C65.3719 14.9467 65.2 14.7751 65.0035 14.7751H59.06V13.0845C59.06 11.5408 59.1091 11.4918 60.5336 11.4918H65.2246C65.421 11.4918 65.593 11.3203 65.593 11.1243V9.94819C65.593 9.67866 65.4947 9.60515 65.2246 9.55615C64.6351 9.45814 63.4317 9.28663 61.2213 9.28663C58.1513 9.28663 56.5057 9.26212 56.5057 13.0845V18.9405C56.5057 22.7629 58.1513 22.7384 61.2213 22.7384C63.4317 22.7384 64.6351 22.5669 65.2246 22.4689C65.4947 22.4444 65.593 22.3463 65.593 22.0768V20.9007C65.593 20.7047 65.421 20.5332 65.2246 20.5332H60.5336C59.1337 20.5332 59.06 20.4842 59.06 18.9405V16.8578Z" fill="#2C0546" fill-opacity="0.8"/>
<path d="M116.064 22.1993L113.166 17.2499C114.688 16.6618 115.671 15.5837 115.671 13.6235V13.4765C115.671 10.3157 113.043 9.28662 110.169 9.28662C108.819 9.28662 106.731 9.38463 105.773 9.53164C105.405 9.58065 105.184 9.72766 105.184 10.0952V22.2238C105.184 22.4199 105.356 22.5914 105.552 22.5914H107.419C107.615 22.5914 107.763 22.4199 107.763 22.2238V17.6419C108.18 17.6664 109.678 17.7154 110.169 17.7154H110.587L113.264 22.1993C113.362 22.3708 113.436 22.5669 113.632 22.5669H115.892C116.039 22.5669 116.113 22.4689 116.113 22.3463C116.113 22.2973 116.088 22.2483 116.064 22.1993ZM113.092 13.6235C113.092 15.2407 112.061 15.6082 110.145 15.6082C109.826 15.6082 108.033 15.5592 107.738 15.5592V11.5653C108.057 11.5163 109.752 11.4918 110.145 11.4918C112.011 11.4918 113.092 12.0799 113.092 13.4765V13.6235Z" fill="#2C0546" fill-opacity="0.8"/>
<path d="M54.4918 22.1993L51.5692 17.2499C53.0919 16.6618 54.0743 15.5837 54.0743 13.6235V13.4765C54.0743 10.3157 51.4464 9.28662 48.5728 9.28662C47.222 9.28662 45.1344 9.38463 44.1766 9.53164C43.8082 9.58065 43.5872 9.72766 43.5872 10.0952V22.2238C43.5872 22.4199 43.7591 22.5914 43.9556 22.5914H45.8221C46.0186 22.5914 46.166 22.4199 46.166 22.2238V17.6419C46.5835 17.6664 48.0816 17.7154 48.5728 17.7154H48.9904L51.6674 22.1993C51.7657 22.3708 51.8393 22.5669 52.0358 22.5669H54.2953C54.4427 22.5669 54.5164 22.4689 54.5164 22.3463C54.5164 22.2973 54.5164 22.2483 54.4918 22.1993ZM51.5201 13.6235C51.5201 15.2407 50.4885 15.6082 48.5974 15.6082C48.2781 15.6082 46.4852 15.5592 46.1905 15.5592V11.5653C46.5098 11.5163 48.2044 11.4918 48.5974 11.4918C50.464 11.4918 51.5201 12.0799 51.5201 13.4765V13.6235Z" fill="#2C0546" fill-opacity="0.8"/>
</g>
<defs>
<clipPath id="clip0_2015_394">
<rect width="127" height="32" fill="white" transform="translate(0.435059)"/>
</clipPath>
</defs>
</svg>
