<svg width="102" height="32" viewBox="0 0 102 32" fill="none" xmlns="http://www.w3.org/2000/svg">
<path d="M33.3677 22.5554C33.3677 20.3688 35.2788 19.1803 37.5639 19.1803C38.9638 19.1803 40.2397 19.5435 41.2367 20.188V22.3558C40.2004 21.5646 39.0663 21.0199 37.6083 21.0199C36.3533 21.0199 35.4155 21.5037 35.4155 22.512C35.4155 23.4242 36.0046 23.7881 37.0408 24.1546L39.0474 24.8818C40.9914 25.5872 41.8841 26.6826 41.8841 28.4825C41.8841 30.7479 39.9544 31.9989 37.4218 31.9989C35.7588 31.9989 34.3434 31.5183 33.4727 30.9118V28.7024C34.6049 29.6134 35.9651 30.1395 37.4218 30.1395C38.8412 30.1395 39.8378 29.6352 39.8378 28.5208C39.8378 27.5504 39.203 27.1694 38.0899 26.7435L36.2894 26.0966C34.6292 25.4882 33.3677 24.599 33.3677 22.5554ZM47.3551 31.8092V19.3919H49.4671V31.8092H47.3551ZM9.28644 31.8088V19.3919H11.4009V31.8088H9.28644ZM55.6425 19.3918H60.413C64.0851 19.3918 66.4592 21.818 66.4592 25.597C66.4592 29.381 64.0851 31.8086 60.413 31.8086H55.6425V19.3918ZM57.7509 21.2518V29.9299H60.3339C62.9462 29.9299 64.3433 28.2493 64.3433 25.597C64.3433 22.9259 62.9462 21.2518 60.3339 21.2518H57.7509ZM70.922 19.3917H78.4667V21.2513H72.9889V24.2393H77.9019V26.0779H72.9889V29.9298H78.4667V31.8086H70.922V19.3917ZM84.777 19.3918H89.2877C91.8599 19.3918 93.5232 20.6831 93.5232 23.1142C93.5232 25.1929 92.6002 26.3868 90.6324 26.6925L95.1083 31.8084H92.7134L88.3801 26.7707H86.8817V31.8084H84.777V19.3918ZM86.8817 21.2133V25.0147H89.2473C90.6479 25.0147 91.4376 24.265 91.4376 23.1142C91.4376 21.9626 90.6479 21.2133 89.2473 21.2133H86.8817ZM29.433 3.44037C29.433 1.22082 31.3535 0.00834125 33.6624 0.00834125C35.0721 0.00834125 36.3594 0.378484 37.3604 1.03614V3.23471C36.3183 2.43291 35.1746 1.87887 33.7036 1.87887C32.4367 1.87887 31.4966 2.37165 31.4966 3.39945C31.4966 4.32402 32.0893 4.69404 33.1315 5.06379L35.1539 5.80368C37.1155 6.52325 38.0144 7.6325 38.0144 9.46158C38.0144 11.763 36.0737 13.037 33.5192 13.037C31.844 13.037 30.4138 12.5438 29.5359 11.9271V9.68758C30.6793 10.6122 32.0483 11.1463 33.5192 11.1463C34.9499 11.1463 35.9504 10.6327 35.9504 9.50211C35.9504 8.51602 35.3174 8.12568 34.1937 7.69402L32.3754 7.03676C30.6998 6.42002 29.433 5.51617 29.433 3.44037ZM93.2884 3.43203C93.2884 1.21248 95.2088 0 97.5178 0C98.9275 0 100.214 0.369752 101.216 1.0278V3.22637C100.174 2.42496 99.0296 1.87013 97.5578 1.87013C96.2921 1.87013 95.352 2.36331 95.352 3.39072C95.352 4.31568 95.9443 4.68544 96.9865 5.05558L99.0089 5.79495C100.97 6.51412 101.87 7.62416 101.87 9.45298C101.87 11.7543 99.9284 13.0286 97.3746 13.0286C95.6987 13.0286 94.2692 12.5351 93.3905 11.9187V9.67885C94.5347 10.6038 95.9036 11.1379 97.3746 11.1379C98.8049 11.1379 99.8058 10.624 99.8058 9.4939C99.8058 8.50807 99.1724 8.11695 98.0488 7.68568L96.2304 7.02841C94.5552 6.41168 93.2884 5.50705 93.2884 3.43203ZM80.4557 3.43203C80.4557 1.21248 82.3765 0 84.6857 0C86.0948 0 87.3821 0.369752 88.3834 1.0278V3.22637C87.3413 2.42496 86.1972 1.87013 84.7254 1.87013C83.4593 1.87013 82.5201 2.36331 82.5201 3.39072C82.5201 4.31568 83.1119 4.68544 84.1537 5.05558L86.1766 5.79495C88.1374 6.51412 89.037 7.62416 89.037 9.45298C89.037 11.7543 87.0961 13.0286 84.5423 13.0286C82.8667 13.0286 81.4361 12.5351 80.5581 11.9187V9.67885C81.7023 10.6038 83.0711 11.1379 84.5423 11.1379C85.9717 11.1379 86.9734 10.624 86.9734 9.4939C86.9734 8.50807 86.34 8.11695 85.2163 7.68568L83.398 7.02841C81.7224 6.41168 80.4557 5.50705 80.4557 3.43203ZM68.0121 0.214149H75.611V2.10383H70.0941V5.13992H75.0421V7.00823H70.0941V10.9226H75.611V12.8313H68.0121V0.214149ZM0.869507 0.214083H5.26196C7.87744 0.214083 9.51187 1.38564 9.51187 3.64572C9.51187 5.00183 8.79695 5.98831 7.87744 6.31753C9.06282 6.70788 9.92054 7.87917 9.92054 9.21507C9.92054 11.5779 8.28611 12.8317 5.67102 12.8317H0.869507V0.214083ZM2.93312 2.06428V5.51612H5.24171C6.69257 5.51612 7.46916 4.96091 7.46916 3.76915C7.46916 2.57739 6.69257 2.06428 5.24171 2.06428H2.93312ZM2.93312 7.28303V10.9819H5.62987C7.06048 10.9819 7.83642 10.2627 7.83642 9.13244C7.83642 7.982 7.06048 7.28303 5.62987 7.28303H2.93312ZM43.4821 12.8313V0.213679H45.6068V12.8313H43.4821ZM22.407 0.213758H24.5321V7.81707C24.5321 11.2694 22.5091 13.037 19.5058 13.037C16.5227 13.037 14.4796 11.2694 14.4796 7.79726V0.213758H16.6046V7.57048C16.6046 9.99543 17.6262 11.1257 19.5058 11.1257C21.3855 11.1257 22.407 9.99543 22.407 7.57048V0.213758ZM60.2923 0.213705H62.3336V13.0279L53.7162 4.62414V12.8314H51.669V0.0174254L60.2923 8.281V0.213705ZM17.456 31.8076V19.1991L26.0154 27.3292V19.391H28.0422V32L19.488 23.7316V31.8076H17.456Z" fill="#2C0546" fill-opacity="0.8"/>
</svg>
