<svg width="178" height="32" viewBox="0 0 178 32" fill="none" xmlns="http://www.w3.org/2000/svg">
<path d="M0 15.8621C0 21.5843 4.68005 32 22.5501 32C39.0259 32 44.2295 24.4436 44.2295 20.9788H31.4742C31.4742 20.9788 30.8684 25.5563 23.6731 25.5563C16.4732 25.5563 14.526 19.5495 14.526 16.0761C14.526 12.6159 16.4732 6.93339 23.6731 6.93339C30.8684 6.93339 31.4742 10.9187 31.4742 10.9187H44.2295C44.2295 7.44984 40.4115 0 22.5501 0C4.68005 0 0 11.0927 0 15.8621Z" fill="#2C0546" fill-opacity="0.8"/>
<path d="M133.77 15.8621C133.77 21.5843 138.455 32 156.32 32C172.794 32 178 24.4436 178 20.9788H165.254C165.254 20.9788 164.645 25.5563 157.448 25.5563C150.247 25.5563 148.298 19.5495 148.298 16.0761C148.298 12.6159 150.247 6.93339 157.448 6.93339C164.645 6.93339 165.254 10.9187 165.254 10.9187H178C178 7.44984 174.186 0 156.32 0C138.455 0 133.77 11.0927 133.77 15.8621Z" fill="#2C0546" fill-opacity="0.8"/>
<path d="M79.0901 0.535156V19.9061L64.2456 0.535156H47.5469V31.2171H58.9949V11.6236L73.5795 31.2171H90.5388V0.535156H79.0901Z" fill="#2C0546" fill-opacity="0.8"/>
<path d="M115.775 23.8871V23.9275H106.236V18.2939H115.775V18.3122C117.812 18.3122 119.458 19.5634 119.458 21.1041C119.458 22.641 117.812 23.8871 115.775 23.8871ZM106.324 6.50257H115.515V6.51554C117.072 6.51554 118.335 7.53954 118.335 8.79988C118.335 10.065 117.072 11.0801 115.515 11.0801V11.0939H106.324V6.50257ZM125.143 14.9054C127.227 14.9054 131.585 12.4873 131.585 7.80259C131.585 1.13175 119.157 0.535156 117.251 0.535156H94.3525V31.2171H117.251C128.264 31.2171 132.688 27.7396 132.688 21.9324C132.688 16.1253 125.143 14.9054 125.143 14.9054Z" fill="#2C0546" fill-opacity="0.8"/>
</svg>
