<svg width="131" height="32" viewBox="0 0 131 32" fill="none" xmlns="http://www.w3.org/2000/svg">
<path d="M5.85501 31.642H0.869507V0.318L5.85501 0.636V31.642ZM14.0178 31.642H9.03134V9.302L14.0178 9.58V31.642ZM11.5241 2.504C13.0927 2.504 14.3797 3.776 14.3797 5.327C14.3797 6.877 13.0927 8.149 11.5241 8.149C9.95648 8.149 8.66951 6.877 8.66951 5.327C8.66951 3.777 9.95648 2.504 11.5241 2.504ZM25.9193 13.794V18.723H22.1787V31.62H17.1932V7.115C17.1942 3.38 20.3304 0 24.03 0C25.2758 0 26.2811 0.358 26.5227 0.517L26.3212 5.247H24.029C23.0236 5.247 22.1797 6.082 22.1797 7.115V13.794H25.9183H25.9193ZM27.936 15.781C27.936 12.045 30.992 8.984 34.8118 8.984C38.5906 8.984 41.6476 12.044 41.6476 15.781V20.551C41.6476 21.943 40.521 23.016 39.1539 23.016H32.9215V25.163C32.9215 26.196 33.7664 27.031 34.8118 27.031H39.5969L39.7572 31.205L35.2539 31.881C30.9108 32.596 27.936 28.899 27.936 25.163V15.78V15.781ZM45.9104 31.642V0.517H49.1279V9.977C50.0119 9.699 51.4192 9.58 52.3844 9.58C55.8023 9.58 58.4564 12.641 58.4564 16.1V31.642H55.3192V16.1C55.3192 14.391 53.9119 13.04 52.1829 13.04H49.1279V31.643L45.9104 31.642ZM70.2236 15.582C70.2236 13.794 69.3796 12.362 67.0873 12.602H67.1274C65.8414 12.641 64.1926 12.8 62.8255 12.879C62.7854 11.727 62.7453 11.289 62.7052 10.415C63.7907 10.017 65.3583 9.62 66.6854 9.58C70.7067 9.5 73.3608 12.72 73.3608 16.179V25.639C73.3608 29.059 70.5864 31.881 67.1274 31.881C63.6694 31.881 60.8148 29.058 60.8148 25.64V23.692C60.8148 20.273 63.1873 17.689 67.1274 17.689C68.6158 17.689 69.3796 17.849 70.2246 18.087V15.583L70.2236 15.582ZM82.3686 9.58C85.8266 9.58 88.6812 12.363 88.6812 15.821V16.219C87.4353 16.259 86.43 16.259 85.5048 16.299V15.821C85.5048 14.151 84.0976 12.761 82.3686 12.761C80.6797 12.761 79.3125 14.151 79.3125 15.821V25.759C79.3069 26.1615 79.382 26.561 79.5335 26.9341C79.6849 27.3072 79.9096 27.6462 80.1944 27.9314C80.4791 28.2165 80.8182 28.4419 81.1916 28.5944C81.565 28.7468 81.9652 28.8232 82.3686 28.819C84.0575 28.819 85.4647 27.548 85.5058 25.879C87.0734 25.998 88.5609 26.077 88.6812 26.077C88.5208 29.377 85.7063 32 82.3686 32C78.9106 32 76.0961 29.217 76.0961 25.759V15.821C76.0961 12.363 78.9106 9.581 82.3686 9.581V9.58ZM101.354 31.642L95.2433 21.108C94.6399 20.075 94.6399 19.955 95.3636 18.723L100.752 9.898H104.41L98.3394 20.075L104.894 31.642H101.354ZM94.4384 0.596V31.642H91.222V0.596H94.4384ZM105.571 15.861C105.571 12.402 108.386 9.581 111.884 9.581C115.342 9.581 118.156 12.402 118.156 15.861V20.751C118.156 21.665 117.432 22.341 116.547 22.341H108.788V25.719C108.788 27.429 110.155 28.819 111.884 28.819H115.945C115.985 29.853 116.025 30.569 116.105 31.284L112.246 31.881C108.305 32.556 105.57 29.178 105.57 25.719L105.571 15.861ZM124.194 31.642H120.977V16.14C120.977 12.682 123.712 9.462 127.732 9.541C129.099 9.581 129.944 9.899 130.87 10.336C130.829 11.29 130.789 12.086 130.749 12.801L127.251 12.721C125.561 12.721 124.194 14.511 124.194 16.141V31.642ZM32.9215 18.087H36.6611V15.78C36.6611 14.747 35.8172 13.912 34.8118 13.912C34.5647 13.9106 34.3197 13.9577 34.0909 14.0509C33.862 14.144 33.6539 14.2813 33.4783 14.4548C33.3027 14.6283 33.1631 14.8347 33.0676 15.0621C32.972 15.2895 32.9224 15.5334 32.9215 15.78V18.087ZM70.2236 25.64V20.273H67.1274C65.3994 20.273 64.0323 21.625 64.0323 23.334V25.64C64.0323 27.349 65.3994 28.74 67.1274 28.74C67.5352 28.7408 67.9391 28.6611 68.3159 28.5055C68.6927 28.3498 69.0349 28.1213 69.3228 27.8332C69.6106 27.545 69.8385 27.2029 69.9933 26.8265C70.1481 26.4501 70.2257 26.0468 70.2236 25.64ZM108.788 19.2H114.98V15.86C114.98 14.152 113.573 12.76 111.883 12.76C111.475 12.7596 111.071 12.8396 110.695 12.9954C110.318 13.1512 109.977 13.3797 109.689 13.6678C109.401 13.9559 109.174 14.2979 109.019 14.6741C108.864 15.0503 108.786 15.4534 108.788 15.86V19.2Z" fill="#2C0546" fill-opacity="0.8"/>
</svg>
