<svg width="244" height="32" viewBox="0 0 244 32" fill="none" xmlns="http://www.w3.org/2000/svg">
<g clip-path="url(#clip0_2015_83)">
<path fill-rule="evenodd" clip-rule="evenodd" d="M16.9067 0.34375L1.21356 8.18272V27.7798L9.06032 31.6989V19.9408L16.9067 23.86L24.7535 19.9408V31.6989L32.5999 27.7798V8.18272L16.9067 0.34375Z" fill="#2C0546" fill-opacity="0.8"/>
<path fill-rule="evenodd" clip-rule="evenodd" d="M58.7456 14.4508C58.3512 15.927 57.4309 19.7983 57.4309 19.7983H57.3655C57.3655 19.7983 56.4446 15.927 56.0173 14.4508L53.1582 4.18237H45.3349V27.6396H50.5611V15.8618C50.5611 14.9105 50.4628 11.1376 50.4628 11.1376H50.5282C50.5282 11.1376 51.3499 14.6808 51.6128 15.5337L54.9656 27.6396H59.7648L63.1501 15.5006C63.413 14.6477 64.2347 11.1376 64.2347 11.1376H64.3011C64.3011 11.1376 64.2022 14.8773 64.2022 15.829V27.6396H69.5266V4.18237H61.6382L58.7456 14.4508Z" fill="#2C0546" fill-opacity="0.8"/>
<path fill-rule="evenodd" clip-rule="evenodd" d="M80.6347 24.359C78.3012 24.359 77.0848 22.3248 77.0848 19.2736C77.0848 16.2225 78.3012 14.1562 80.6347 14.1562C82.9683 14.1562 84.2176 16.2225 84.2176 19.2736C84.2176 22.3248 82.9683 24.359 80.6347 24.359ZM80.6676 10.3833C75.2768 10.3833 71.6611 14.2214 71.6611 19.2736C71.6611 24.3259 75.2768 28.1647 80.6676 28.1647C86.0913 28.1647 89.6413 24.3259 89.6413 19.2736C89.6413 14.2214 86.0913 10.3833 80.6676 10.3833Z" fill="#2C0546" fill-opacity="0.8"/>
<path fill-rule="evenodd" clip-rule="evenodd" d="M99.4339 23.9326C97.3629 23.9326 96.1147 22.0952 96.1147 19.1753C96.1147 16.3538 97.3629 14.3858 99.5 14.3858C101.834 14.3858 102.984 16.4197 102.984 19.2412C102.984 21.9968 101.669 23.9326 99.4339 23.9326ZM102.853 12.7453H102.754C101.767 11.3347 100.42 10.3502 98.0538 10.3502C93.7147 10.3502 90.691 13.9918 90.691 19.2412C90.691 24.8511 93.7476 28.1647 98.0538 28.1647C100.256 28.1647 101.998 27.115 103.017 25.376H103.083V27.6398H108.21V4.18262H102.853V12.7453Z" fill="#2C0546" fill-opacity="0.8"/>
<path fill-rule="evenodd" clip-rule="evenodd" d="M115.308 17.4365C115.67 15.4355 116.722 14.1558 118.76 14.1558C120.502 14.1558 121.751 15.4355 121.948 17.4365H115.308ZM124.414 12.4496C122.967 11.1374 121.061 10.3501 118.661 10.3501C113.534 10.3501 110.016 14.1886 110.016 19.2083C110.016 24.293 113.435 28.1318 118.99 28.1318C121.126 28.1318 122.835 27.5738 124.249 26.5897C125.728 25.5727 126.714 24.1293 127.076 22.62H121.85C121.389 23.6697 120.469 24.293 119.055 24.293C116.854 24.293 115.604 22.8828 115.275 20.6189H127.372C127.405 17.2069 126.418 14.287 124.414 12.4496Z" fill="#2C0546" fill-opacity="0.8"/>
<path fill-rule="evenodd" clip-rule="evenodd" d="M134.404 13.4669H134.305V10.8422H129.178V27.6398H134.536V20.0941C134.536 16.4521 136.639 14.8447 139.926 15.3039H140.058V10.7113C139.827 10.6125 139.499 10.5801 139.006 10.5801C136.968 10.5801 135.587 11.4658 134.404 13.4669Z" fill="#2C0546" fill-opacity="0.8"/>
<path fill-rule="evenodd" clip-rule="evenodd" d="M152.219 10.3501C149.884 10.3501 148.274 11.3346 147.025 13.1388H146.926V10.8422H141.766V27.6398H147.123V18.3554C147.123 16.2884 148.307 14.8122 150.082 14.8122C151.824 14.8122 152.711 16.0256 152.711 17.7974V27.6398H158.069V16.7148C158.069 12.9748 155.9 10.3501 152.219 10.3501Z" fill="#2C0546" fill-opacity="0.8"/>
<path fill-rule="evenodd" clip-rule="evenodd" d="M171.018 14.5495H166.646V8.77558H171.149C173.384 8.77558 174.502 9.98935 174.502 11.6952C174.502 13.467 173.319 14.5495 171.018 14.5495ZM179.63 21.0127C179.301 18.6836 178.249 17.4038 176.211 16.7149V16.6165C178.94 15.6652 180.287 13.6638 180.287 10.9407C180.287 6.57734 176.737 4.18262 172.07 4.18262H160.828V27.6398H166.646V18.8472H170.163C172.662 18.8472 173.779 20.0285 174.074 22.1936C174.436 24.5231 174.338 27.279 174.962 27.6398H180.615V27.3443C179.794 27.049 180.123 24.0963 179.63 21.0127Z" fill="#2C0546" fill-opacity="0.8"/>
<path fill-rule="evenodd" clip-rule="evenodd" d="M186.924 17.4365C187.286 15.4355 188.338 14.1558 190.376 14.1558C192.118 14.1558 193.367 15.4355 193.564 17.4365H186.924ZM196.03 12.4496C194.583 11.1374 192.677 10.3501 190.277 10.3501C185.149 10.3501 181.632 14.1886 181.632 19.2083C181.632 24.293 185.051 28.1318 190.606 28.1318C192.742 28.1318 194.451 27.5738 195.865 26.5897C197.344 25.5727 198.33 24.1293 198.692 22.62H193.466C193.005 23.6697 192.085 24.293 190.671 24.293C188.47 24.293 187.22 22.8828 186.891 20.6189H198.988C199.021 17.2069 198.034 14.287 196.03 12.4496Z" fill="#2C0546" fill-opacity="0.8"/>
<path fill-rule="evenodd" clip-rule="evenodd" d="M207.007 5.52734H201.78V10.8423H199.545V14.1887H201.78V23.2107C201.78 26.8195 204.016 27.8364 207.138 27.8364C208.584 27.8364 209.603 27.7052 210.063 27.574V23.6699C209.867 23.6699 209.34 23.7024 208.88 23.7024C207.729 23.7024 207.007 23.3747 207.007 22.0625V14.1887H210.063V10.8423H207.007V5.52734Z" fill="#2C0546" fill-opacity="0.8"/>
<path fill-rule="evenodd" clip-rule="evenodd" d="M222.388 21.636C222.388 23.4403 221.008 24.6544 219.003 24.6544C217.688 24.6544 216.702 24.1295 216.702 22.7842C216.702 21.5048 217.556 20.9799 219.627 20.5203C220.712 20.2582 221.698 19.9954 222.388 19.6349V21.636ZM227.516 25.0152V16.5506C227.516 14.4511 226.826 12.8109 225.379 11.7612C224.164 10.8423 222.454 10.3831 219.923 10.3831C214.828 10.3831 212.429 13.0406 212.297 16.1573H217.228C217.392 14.7464 218.246 13.9919 219.956 13.9919C221.567 13.9919 222.257 14.7136 222.257 15.7961C222.257 16.9446 221.139 17.2723 217.984 17.6663C214.5 18.1256 211.542 19.2409 211.542 22.9482C211.542 26.2618 213.941 28.066 217.294 28.066C219.825 28.066 221.304 27.1806 222.29 25.7697H222.355C222.487 26.6226 222.651 27.2791 222.914 27.6396H228.107V27.4099C227.647 27.1147 227.516 26.3602 227.516 25.0152Z" fill="#2C0546" fill-opacity="0.8"/>
<mask id="mask0_2015_83" style="mask-type:luminance" maskUnits="userSpaceOnUse" x="1" y="0" width="243" height="32">
<path d="M1.21185 31.4805H243.488V0.341553H1.21185V31.4805Z" fill="white"/>
</mask>
<g mask="url(#mask0_2015_83)">
<path fill-rule="evenodd" clip-rule="evenodd" d="M230.111 27.6395H235.468V10.8423H230.111V27.6395Z" fill="#2C0546" fill-opacity="0.8"/>
</g>
<mask id="mask1_2015_83" style="mask-type:luminance" maskUnits="userSpaceOnUse" x="1" y="0" width="243" height="32">
<path d="M1.21185 31.4805H243.488V0.341553H1.21185V31.4805Z" fill="white"/>
</mask>
<g mask="url(#mask1_2015_83)">
<path fill-rule="evenodd" clip-rule="evenodd" d="M230.111 8.5129H235.468V4.18237H230.111V8.5129Z" fill="#2C0546" fill-opacity="0.8"/>
</g>
<mask id="mask2_2015_83" style="mask-type:luminance" maskUnits="userSpaceOnUse" x="1" y="0" width="243" height="32">
<path d="M1.21185 31.4805H243.488V0.341553H1.21185V31.4805Z" fill="white"/>
</mask>
<g mask="url(#mask2_2015_83)">
<path fill-rule="evenodd" clip-rule="evenodd" d="M238.065 27.6396H243.488V4.18237H238.065V27.6396Z" fill="#2C0546" fill-opacity="0.8"/>
</g>
</g>
<defs>
<clipPath id="clip0_2015_83">
<rect width="243" height="32" fill="white" transform="translate(0.869507)"/>
</clipPath>
</defs>
</svg>
