<svg width="118" height="30" viewBox="0 0 118 30" fill="none" xmlns="http://www.w3.org/2000/svg">
<path d="M66.8185 9.6C66.8185 6.16296 66.878 2.96296 67.0565 0L57.953 1.71852V2.54815L58.8455 2.66667C59.5 2.72593 59.9165 2.96296 60.1545 3.31852C60.3925 3.73333 60.571 4.32593 60.69 5.21482C60.809 6.93333 60.928 10.8444 60.8685 17.0074C60.8685 23.1111 60.809 26.963 60.69 28.4444C63.9625 29.1556 66.521 29.4519 68.425 29.4519C71.995 29.4519 74.7915 28.4444 76.8145 26.3704C78.8375 24.3556 79.9085 21.5111 79.9085 18.0148C79.9085 15.2296 79.135 12.9185 77.588 11.0815C76.041 9.24444 74.0775 8.35556 71.757 8.35556C70.21 8.35556 68.6035 8.77037 66.8185 9.6ZM66.997 27.8519C66.878 25.9556 66.759 20.2667 66.759 10.963C67.2945 10.7852 68.0085 10.6667 68.901 10.6667C70.329 10.6667 71.4595 11.3778 72.2925 12.8593C73.1255 14.3407 73.542 16.1185 73.542 18.3704C73.542 21.1556 73.066 23.4074 72.114 25.3037C71.162 27.1407 69.972 28.0889 68.4845 28.0889C68.0085 27.9704 67.5325 27.9111 66.997 27.8519ZM23.8 0.592593H0V1.77778L1.2495 1.8963C2.2015 2.07407 2.856 2.42963 3.2725 2.96296C3.689 3.55556 3.927 4.5037 3.9865 5.80741C4.4625 12.2074 4.4625 18.1926 3.9865 23.7037C3.8675 25.0074 3.6295 25.9556 3.2725 26.5481C2.856 27.1407 2.2015 27.4963 1.2495 27.6148L0 27.7926V28.9778H15.351V27.7926L13.7445 27.6741C13.3525 27.6414 12.9712 27.5301 12.6235 27.3467C12.2758 27.1634 11.969 26.9119 11.7215 26.6074C11.305 26.0148 11.067 25.0667 11.0075 23.763C10.829 21.3926 10.71 18.6667 10.71 15.6444L13.923 15.7037C15.6485 15.763 16.8385 17.0667 17.4335 19.6741H18.6235V10.0148H17.4335C16.8385 12.563 15.708 13.8667 13.923 13.9259L10.71 13.9852C10.71 8.65185 10.829 4.85926 11.0075 2.54815H15.708C19.04 2.54815 21.301 4.68148 22.61 8.94815L24.038 8.53333L23.8 0.592593ZM21.0035 18.8444C21.0035 21.9259 21.896 24.4741 23.6215 26.4889C25.347 28.5037 27.9055 29.4519 31.1185 29.4519C34.3315 29.4519 36.9495 28.4444 38.8535 26.3704C40.7575 24.3556 41.65 21.8074 41.65 18.7259C41.65 15.6444 40.7575 13.0963 39.032 11.0815C37.3065 9.06667 34.748 8.11852 31.535 8.11852C28.322 8.11852 25.704 9.12593 23.8 11.2C21.896 13.2148 21.0035 15.763 21.0035 18.8444ZM34.272 12.0889C34.986 13.8074 35.2835 16.0593 35.2835 18.7852C35.2835 25.0667 33.9745 28.1481 31.416 28.1481C30.107 28.1481 29.0955 27.2593 28.3815 25.4815C27.6675 23.7037 27.37 21.4519 27.37 18.7852C27.37 12.563 28.679 9.48148 31.2375 9.48148C32.5465 9.42222 33.558 10.3111 34.272 12.0889ZM84.5495 26.4889C86.513 28.4444 89.012 29.4519 91.987 29.4519C93.8315 29.4519 95.438 29.0963 96.866 28.3259C98.294 27.6148 99.4245 26.7259 100.198 25.6593L99.603 24.9481C98.294 25.9556 96.8065 26.4296 95.081 26.4296C92.701 26.4296 90.8565 25.6593 89.607 24.0593C88.298 22.4593 87.703 20.4444 87.822 17.837H100.555C100.555 14.9926 99.841 12.6815 98.3535 10.8444C96.866 9.06667 94.7835 8.17778 92.106 8.17778C88.774 8.17778 86.2155 9.24444 84.371 11.3185C82.5265 13.3926 81.634 15.9407 81.634 18.963C81.634 22.0444 82.586 24.5333 84.5495 26.4889ZM88.9525 11.6148C89.607 10.1926 90.44 9.48148 91.5705 9.48148C93.3555 9.48148 94.248 11.7333 94.248 16.2963L87.941 16.4148C88.0005 14.637 88.298 13.037 88.9525 11.6148ZM116.561 9.24444C114.954 8.53333 112.931 8.11852 110.492 8.11852C107.993 8.11852 106.029 8.77037 104.542 10.0148C103.054 11.2593 102.281 12.8 102.281 14.637C102.281 16.237 102.757 17.4815 103.649 18.3704C104.542 19.2593 105.97 20.0296 107.814 20.6815C109.48 21.2741 110.67 21.8667 111.265 22.4C111.86 22.9926 112.217 23.6444 112.217 24.5333C112.217 25.363 111.92 26.1333 111.265 26.7259C110.67 27.3778 109.837 27.6741 108.766 27.6741C106.148 27.6741 104.185 25.7778 102.816 21.9852L101.805 22.2815L102.043 28.2074C104.185 29.037 106.565 29.4519 109.183 29.4519C111.92 29.4519 114.002 28.8593 115.549 27.6148C117.096 26.4296 117.87 24.7111 117.87 22.5778C117.87 21.1556 117.513 19.9704 116.739 19.0815C115.966 18.1926 114.716 17.4222 112.931 16.7111C110.968 16 109.599 15.3481 108.885 14.7556C108.171 14.163 107.814 13.4519 107.814 12.563C107.814 11.6741 108.052 10.963 108.588 10.3704C109.123 9.77778 109.778 9.54074 110.611 9.54074C112.991 9.54074 114.716 11.2593 115.787 14.637L116.799 14.3407L116.561 9.24444ZM59.3215 8.71111C58.4885 8.2963 57.596 8.11852 56.5845 8.11852C55.573 8.11852 54.5615 8.53333 53.431 9.36296C52.3005 10.1926 51.4675 11.3185 50.813 12.8593L50.8725 8.11852L41.8285 9.8963V10.7259L42.721 10.7852C43.8515 10.9037 44.506 11.7926 44.625 13.3926C44.982 17.0667 44.982 20.9778 44.625 25.1259C44.506 26.7259 43.8515 27.5556 42.721 27.7333L41.8285 27.8519V28.9778H54.4425V27.8519L52.836 27.7333C51.7055 27.6148 51.051 26.7259 50.932 25.1259C50.575 21.6889 50.5155 18.0148 50.813 14.2222C51.17 13.6296 51.9435 13.2741 53.1335 13.1556C54.3235 13.037 55.692 13.3926 57.12 14.2222L59.3215 8.71111Z" fill="#2C0546" fill-opacity="0.8"/>
</svg>
