<svg width="190" height="32" viewBox="0 0 190 32" fill="none" xmlns="http://www.w3.org/2000/svg">
<path d="M156.417 31.828C150.908 30.8619 146.337 27.1838 144.266 22.0507C143.198 19.4066 142.837 14.8744 143.476 12.1544C144.387 8.28125 146.838 4.73914 150.024 2.68708C152.854 0.867026 155.092 0.352011 161.011 0.167005L166.313 0V11.1373L164.274 10.3033C162.934 9.75629 161.395 9.42328 159.787 9.33328C157.503 9.20528 157.238 9.26228 155.806 10.1873C153.753 11.5133 152.807 13.3404 152.787 16.0125C152.775 17.7445 152.913 18.2295 153.764 19.4456C155.087 21.3326 156.888 22.3297 158.972 22.3297C161.137 22.3307 161.487 22.0637 161.36 20.5076L161.256 19.2316L158.727 19.2476L156.199 19.2646V12.0304L163.05 12.1244L169.902 12.2194V18.8666C169.902 22.9067 170.046 25.9248 170.266 26.5608C170.723 27.8768 170.295 28.4109 167.645 29.8269C164.452 31.534 159.637 32.393 156.417 31.828ZM6.31452 30.6049C6.46599 30.2899 6.6364 25.2668 6.6932 19.4436L6.79385 8.85527L3.83218 8.97027L0.869507 9.08527L0.959194 4.66714L1.04988 0.249008L8.63643 0.160005L16.222 0.0720022V31.1769H11.1297C6.39225 31.1769 6.05742 31.1379 6.31452 30.6049ZM18.1792 15.6305V0.0850026H31.5565V9.14028L29.7628 8.99027L27.968 8.84127V12.1954H33.5147V0.0850026H43.3036V31.1779H32.8779L33.1968 30.3379C33.3722 29.8759 33.5157 27.2988 33.5157 24.6107V19.7226H27.9371L28.0368 24.8778C28.0906 27.7118 28.26 30.2899 28.4125 30.6049C28.6716 31.1379 28.3288 31.1779 23.4348 31.1779H18.1792V15.6305ZM44.6499 30.6359C45.3305 29.8139 45.4869 3.3701 44.8232 1.43704L44.3579 0.0850026H63.2062V9.15328L61.4931 8.70326C60.5265 8.44925 58.6431 8.29125 57.1702 8.34125L54.5593 8.43125L54.4606 10.3543L54.361 12.2784L57.1523 12.1324L59.9435 11.9854V19.6436L58.4996 19.3336C57.7063 19.1636 56.4946 19.0716 55.8079 19.1286L54.5603 19.2316L54.4606 20.9856L54.36 22.7397L58.0491 22.5777C60.0781 22.4897 62.0681 22.3077 62.4727 22.1767L63.2062 21.9367V31.1769H53.7053C44.906 31.1769 44.2363 31.1369 44.6508 30.6369L44.6499 30.6359ZM81.6967 30.1129C77.1824 19.2776 69.4125 1.71705 68.8216 1.01203L68.0423 0.0840025H79.0021C85.0301 0.0840025 89.9619 0.194006 89.9609 0.33001C89.9609 0.464014 89.3201 2.26907 88.5378 4.33913L87.1188 8.10324L84.6255 8.19925C83.2552 8.25125 82.1332 8.35025 82.1332 8.41825C82.1332 8.72826 85.1895 16.9695 85.3888 17.1965C85.5124 17.3375 87.054 13.5464 88.8149 8.76926L92.0147 0.0850026H117.37V4.86515C117.37 9.30128 117.33 9.62729 116.799 9.38228C116.485 9.23728 114.503 9.06227 112.395 8.99327L108.561 8.86727V12.2774L111.334 12.1314L114.108 11.9854V19.6436L112.664 19.3336C111.87 19.1636 110.659 19.0716 109.973 19.1286L108.724 19.2316L108.627 21.1136L108.528 22.9957H111.44C113.194 22.9957 114.903 22.7997 115.739 22.5047C116.502 22.2347 117.182 22.0137 117.249 22.0137C117.315 22.0137 117.37 24.0757 117.37 26.5958V31.1779H107.868C100.085 31.1779 98.4303 31.0999 98.7203 30.7499C99.109 30.2799 99.4279 7.61223 99.0452 7.61223C98.9256 7.61223 96.5808 12.9144 93.8334 19.3956L88.8368 31.1779H82.1401L81.6977 30.1139L81.6967 30.1129ZM118.314 0.00700021L124.292 0.0170005C133.068 0.0210006 135.971 0.67402 138.523 3.2411C141.658 6.39519 142.083 12.4714 139.419 16.1045L138.624 17.1825L140.022 18.2606C142.129 19.8786 143.454 22.6547 144.194 27.0178C144.53 28.9979 144.878 30.7549 144.98 30.9179C145.087 31.0929 142.847 31.2169 139.583 31.2169H134.002L134.381 30.5179C134.965 29.4179 134.566 26.8058 133.584 25.3128C132.715 23.9897 130.918 22.6007 129.545 22.1927C128.811 21.9737 128.81 21.9807 128.81 25.9598C128.81 28.1518 128.961 30.2299 129.147 30.5799C129.476 31.1969 129.315 31.2169 123.884 31.2169C118.665 31.2169 118.307 31.1769 118.568 30.6419C118.926 29.9079 118.935 1.73305 118.578 0.746022L118.314 0.00600018V0.00700021ZM129.525 8.23025C128.833 8.18725 128.81 8.91827 128.81 11.1763V14.1334H129.81C130.486 14.1334 131.128 13.8234 131.769 13.1784C133.28 11.6584 132.887 9.52029 130.942 8.70226C130.294 8.42925 129.839 8.25025 129.525 8.23025ZM171.127 30.6459C171.486 29.9099 171.496 1.73505 171.139 0.745022L170.87 0L180.279 0.0870026L189.687 0.175005L189.778 4.71714L189.87 9.25928L189.125 9.01927C187.316 8.43525 185.928 8.23925 183.566 8.23125L181.036 8.22425V12.2484L183.812 12.1024L186.586 11.9554V15.8745C186.586 19.4726 186.539 19.7746 186.015 19.5696C185.7 19.4466 184.467 19.2636 183.275 19.1616L181.105 18.9766L180.989 20.7056C180.909 21.9137 181.001 22.4847 181.299 22.5997C181.853 22.8137 188.16 22.4697 189.115 22.1737L189.851 21.9467V31.2209H180.349C171.41 31.2209 170.864 31.1859 171.127 30.6459Z" fill="#2C0546" fill-opacity="0.8"/>
</svg>
