<svg width="160" height="32" viewBox="0 0 160 32" fill="none" xmlns="http://www.w3.org/2000/svg">
<g clip-path="url(#clip0_2015_73)">
<path d="M5.05485 4.1345H8.51039C11.6686 4.1345 13.0604 5.13098 13.0604 7.15516C13.0604 8.91421 11.6686 10.1086 8.87502 10.1086H5.05485V4.1345ZM0.869507 24.0376H9.33877C13.7896 24.0376 18.2405 22.45 18.2405 17.3395C18.2405 14.3189 16.1195 12 13.1637 11.6644V11.5946C15.5821 10.8712 17.2499 9.11265 17.2499 6.4582C17.2499 2.17806 13.5914 0.553955 10.0368 0.553955H0.869507V24.0376ZM5.05485 13.6891H9.07324C12.4609 13.6891 14.061 14.5528 14.061 17.0093C14.061 20.0898 11.0644 20.457 8.90629 20.457H5.05485V13.6891Z" fill="#2C0546" fill-opacity="0.8"/>
<path d="M22.9733 24.0377V0" stroke="#2C0546" stroke-opacity="0.8" stroke-width="4" stroke-miterlimit="10"/>
<path d="M31.6148 16.078C31.6148 13.5903 33.3765 11.3036 36.3005 11.3036C39.2244 11.3036 40.9808 13.5908 40.9808 16.078C40.9808 18.5652 39.2244 20.853 36.3005 20.853C33.376 20.853 31.6148 18.5658 31.6148 16.078ZM27.6277 16.078C27.6277 21.0869 31.4791 24.4335 36.3005 24.4335C41.116 24.4335 44.9732 21.0874 44.9732 16.078C44.9732 11.0686 41.1165 7.71777 36.3005 7.71777C31.4791 7.71724 27.6277 11.0692 27.6277 16.078Z" fill="#2C0546" fill-opacity="0.8"/>
<path d="M50.7581 16.078C50.7581 13.5903 52.5198 11.3036 55.4438 11.3036C58.3677 11.3036 60.1241 13.5908 60.1241 16.078C60.1241 18.5652 58.3677 20.853 55.4438 20.853C52.5198 20.853 50.7581 18.5658 50.7581 16.078ZM46.771 16.078C46.771 21.0869 50.623 24.4335 55.4438 24.4335C60.2593 24.4335 64.1165 21.0874 64.1165 16.078C64.1165 11.0686 60.2598 7.71777 55.4438 7.71777C50.6224 7.71724 46.771 11.0692 46.771 16.078Z" fill="#2C0546" fill-opacity="0.8"/>
<path d="M66.545 8.11569H70.3339V10.6061H70.3964C71.0949 9.1127 72.6218 7.71509 75.2797 7.71509C77.74 7.71509 79.4391 8.67505 80.2675 10.6685C81.4298 8.64912 83.1236 7.71509 85.5107 7.71509C89.7633 7.71509 91.26 10.7384 91.26 14.5534V24.0382H87.2729V15.0164C87.2729 13.0282 86.6788 11.303 84.3177 11.303C81.8267 11.303 80.8934 13.3584 80.8934 15.4117V24.0376H76.9116V14.5528C76.9116 12.5906 76.1139 11.303 74.1858 11.303C71.564 11.303 70.5321 13.2209 70.5321 15.3466V24.0376H66.545V8.11569Z" fill="#2C0546" fill-opacity="0.8"/>
<path d="M107.714 16.0781C107.714 18.5685 105.958 20.853 103.028 20.853C100.104 20.853 98.3428 18.5685 98.3428 16.0781C98.3428 13.5903 100.104 11.2978 103.028 11.2978C105.958 11.2978 107.714 13.5903 107.714 16.0781ZM94.4914 24.0377H98.2803V21.651H98.3428C99.5099 23.5688 101.6 24.433 103.83 24.433C108.74 24.433 111.701 20.7847 111.701 16.0775C111.701 11.3677 108.542 7.71728 103.993 7.71728C101.005 7.71728 99.406 9.10695 98.5771 10.1426H98.478V0H94.4908L94.4914 24.0377Z" fill="#2C0546" fill-opacity="0.8"/>
<path d="M117.491 14.4857C117.789 12.1932 119.253 10.7024 121.609 10.7024C124.1 10.7024 125.627 12.1625 125.664 14.4857H117.491ZM129.651 17.4703V16.3775C129.651 10.8353 126.628 7.71777 122.177 7.71777C117.351 7.71777 113.504 11.0692 113.504 16.078C113.504 21.0869 117.351 24.4335 122.177 24.4335C124.695 24.4335 127.06 23.5386 128.916 21.2536L126.06 19.1019C125.064 20.3227 123.766 21.2536 121.775 21.2536C119.55 21.2536 117.752 19.8253 117.491 17.4703H129.651Z" fill="#2C0546" fill-opacity="0.8"/>
<path d="M132.246 8.11569H136.234V10.6373H136.301C137.166 8.81317 138.923 7.71509 141.018 7.71509C141.518 7.71509 141.982 7.81669 142.446 7.95164V11.7978C141.784 11.6338 141.148 11.501 140.517 11.501C136.765 11.501 136.233 14.6544 136.233 15.5186V24.0382H132.246L132.246 8.11569Z" fill="#2C0546" fill-opacity="0.8"/>
<path d="M151.364 11.303C154.252 11.303 156.081 13.2209 156.081 15.9811C156.081 18.6303 154.288 20.6545 151.332 20.6545C148.643 20.6545 146.647 18.5652 146.647 16.0436C146.647 13.2209 148.57 11.303 151.364 11.303ZM156.081 8.11569V10.5045H156.018C154.851 8.57874 152.756 7.71509 150.531 7.71509C145.616 7.71509 142.66 11.3655 142.66 16.078C142.66 20.5846 145.818 24.2356 150.598 24.2356C152.594 24.2356 154.653 23.4756 155.821 21.9171H155.878V23.0803C155.878 26.2285 154.689 28.4199 150.833 28.4199C148.607 28.4199 146.944 27.587 145.349 26.1195L142.962 29.3767C145.214 31.3749 147.908 31.9999 150.869 31.9999C157.082 31.9999 159.87 28.3469 159.87 22.6114V8.11569H156.081Z" fill="#2C0546" fill-opacity="0.8"/>
</g>
<defs>
<clipPath id="clip0_2015_73">
<rect width="159" height="32" fill="white" transform="translate(0.869507)"/>
</clipPath>
</defs>
</svg>
